<svg width="78" height="55" viewBox="0 0 78 55" fill="none" xmlns="http://www.w3.org/2000/svg">
  <rect x="3.70752" y="5" width="75" height="27" rx="12" transform="rotate(7.89285 3.70752 5)"
    fill="#FAD2D2" />
  <path
    d="M14.8532 25.7263L13.39 25.5235L19.2201 14.5841L20.6609 14.7838L23.2952 26.8967L21.8319 26.6938L19.7327 16.5136L19.6427 16.5012L14.8532 25.7263ZM16.0177 21.2988L21.9158 22.1165L21.7442 23.3547L15.8461 22.537L16.0177 21.2988ZM27.8366 15.7786L26.2387 27.3047L24.9105 27.1206L26.5084 15.5945L27.8366 15.7786ZM31.5975 16.3L29.9996 27.8261L28.6714 27.642L30.2693 16.1158L31.5975 16.3ZM40.1289 29.4139C39.4085 29.3141 38.7978 29.0439 38.2967 28.6035C37.7961 28.1594 37.4364 27.5818 37.2176 26.8708C36.9993 26.156 36.9536 25.3408 37.0805 24.4254C37.2064 23.5174 37.4713 22.751 37.8753 22.1264C38.2793 21.5017 38.7842 21.0458 39.39 20.7589C39.9957 20.4719 40.6625 20.3789 41.3904 20.4798C41.9532 20.5578 42.3848 20.7133 42.6852 20.9461C42.9899 21.1757 43.2122 21.4207 43.352 21.681C43.4961 21.9381 43.6065 22.1484 43.6833 22.312L43.7958 22.3276L44.3857 18.0729L45.7139 18.257L44.116 29.7831L42.8328 29.6052L43.0169 28.277L42.8593 28.2552C42.74 28.3992 42.5736 28.5789 42.3602 28.794C42.1473 29.0054 41.8609 29.1818 41.501 29.3231C41.1416 29.4606 40.6842 29.4909 40.1289 29.4139ZM40.4744 28.2458C41.0072 28.3196 41.4767 28.2432 41.8829 28.0166C42.2896 27.7861 42.6229 27.4366 42.8829 26.9678C43.1435 26.4953 43.319 25.9327 43.4095 25.2798C43.499 24.6345 43.4835 24.0568 43.363 23.5468C43.243 23.033 43.0179 22.6156 42.6876 22.2945C42.3579 21.9696 41.9229 21.7697 41.3826 21.6948C40.8198 21.6168 40.3308 21.6962 39.9155 21.9331C39.5045 22.1667 39.1712 22.5163 38.9154 22.9818C38.664 23.4441 38.4961 23.9792 38.4118 24.587C38.3265 25.2023 38.3428 25.7744 38.4607 26.3031C38.5829 26.8287 38.8092 27.2654 39.1395 27.6133C39.4742 27.958 39.9191 28.1688 40.4744 28.2458ZM49.2488 30.7012C48.701 30.6253 48.2181 30.4532 47.8003 30.1849C47.3829 29.9129 47.0702 29.5617 46.8622 29.1313C46.6547 28.6972 46.5899 28.1988 46.668 27.636C46.7366 27.1407 46.8898 26.7528 47.1276 26.4721C47.3659 26.1878 47.6604 25.98 48.0113 25.849C48.3622 25.7179 48.7406 25.6365 49.1465 25.6048C49.5567 25.5699 49.9662 25.554 50.3749 25.5571C50.9096 25.5624 51.3424 25.5708 51.6735 25.5823C52.0089 25.5905 52.2576 25.5619 52.4197 25.4964C52.5855 25.4315 52.6832 25.292 52.7128 25.0782L52.7191 25.0332C52.7961 24.4779 52.7039 24.0253 52.4427 23.6755C52.1851 23.3262 51.7506 23.1092 51.139 23.0244C50.5049 22.9365 49.9886 23.0064 49.5899 23.2341C49.1912 23.4618 48.8968 23.7231 48.7068 24.018L47.5086 23.393C47.8065 22.8989 48.1634 22.5316 48.5791 22.291C48.9992 22.0471 49.4405 21.8979 49.9031 21.8435C50.37 21.7859 50.8211 21.7872 51.2563 21.8476C51.5339 21.8861 51.8482 21.964 52.199 22.0815C52.5541 22.1957 52.8865 22.3776 53.1961 22.627C53.5094 22.8769 53.7503 23.222 53.9187 23.6622C54.0871 24.1024 54.1237 24.6657 54.0286 25.3524L53.239 31.0479L51.9107 30.8638L52.073 29.6931L52.0055 29.6838C51.8894 29.8589 51.7115 30.0388 51.4718 30.2235C51.232 30.4083 50.9273 30.5515 50.5575 30.6532C50.1878 30.7549 49.7515 30.7709 49.2488 30.7012ZM49.6168 29.5362C50.1421 29.609 50.5991 29.5672 50.9879 29.4108C51.3804 29.2549 51.6913 29.0264 51.9204 28.7255C52.1532 28.4251 52.2946 28.0948 52.3446 27.7346L52.5131 26.5189C52.4474 26.5787 52.315 26.6234 52.1159 26.6532C51.921 26.6797 51.6969 26.6964 51.4435 26.7034C51.1945 26.7071 50.9515 26.7078 50.7147 26.7056C50.4822 26.7001 50.2934 26.6969 50.1482 26.6959C49.7968 26.693 49.464 26.7215 49.1498 26.7812C48.8398 26.8376 48.5792 26.9525 48.3677 27.1259C48.1606 27.296 48.0336 27.55 47.9868 27.8876C47.9228 28.3491 48.0452 28.7217 48.3538 29.0054C48.6668 29.2859 49.0877 29.4628 49.6168 29.5362ZM55.7597 34.7014C55.5346 34.6702 55.3365 34.6236 55.1653 34.5616C54.9937 34.5034 54.8764 34.4527 54.8135 34.4096L55.3135 33.2858C55.6247 33.4131 55.9057 33.4826 56.1565 33.4944C56.4072 33.5063 56.6421 33.426 56.861 33.2537C57.0831 33.0856 57.3053 32.7933 57.5275 32.3767L57.8688 31.7356L55.8768 22.6028L57.3175 22.8026L58.7488 30.0221L58.8388 30.0345L62.1801 23.4767L63.6209 23.6764L58.5782 33.073C58.3512 33.4966 58.0955 33.8378 57.8111 34.0967C57.5261 34.3593 57.2124 34.5395 56.8699 34.6373C56.5313 34.7357 56.1612 34.757 55.7597 34.7014Z"
    fill="#1A1A1A" />
  <path
    d="M39.4999 39L35.2671 42.9265L40.7839 44.6289L39.4999 39ZM11.0836 51.749C11.3888 51.9155 11.6929 52.075 11.9961 52.2278L12.4461 51.3347C12.1528 51.187 11.8583 51.0325 11.5626 50.8711L11.0836 51.749ZM13.861 53.0872C14.5095 53.3579 15.1525 53.5969 15.7895 53.8048L16.0998 52.8542C15.489 52.6548 14.871 52.4252 14.2463 52.1644L13.861 53.0872ZM17.7787 54.3581C18.4654 54.5157 19.1439 54.6362 19.8134 54.7205L19.9383 53.7283C19.303 53.6483 18.6574 53.5337 18.0023 53.3835L17.7787 54.3581ZM21.8798 54.8669C22.5841 54.8771 23.2765 54.8458 23.9557 54.7739L23.8504 53.7794C23.2117 53.847 22.5594 53.8767 21.8944 53.867L21.8798 54.8669ZM26.0076 54.4247C26.6879 54.2636 27.3521 54.0595 27.9988 53.8139L27.6437 52.879C27.0377 53.1092 26.4152 53.3005 25.7772 53.4516L26.0076 54.4247ZM29.8932 52.9494C30.5016 52.6226 31.091 52.2562 31.66 51.8517L31.0806 51.0367C30.545 51.4175 29.9911 51.7617 29.4201 52.0683L29.8932 52.9494ZM33.2777 50.5501C33.7835 50.0921 34.2695 49.6006 34.7346 49.0771L33.9869 48.413C33.5452 48.9102 33.0847 49.3758 32.6065 49.8087L33.2777 50.5501ZM36.028 47.4645C36.4253 46.9164 36.8034 46.3412 37.1615 45.7401L36.3024 45.2283C35.9592 45.8045 35.5975 46.3545 35.2183 46.8776L36.028 47.4645ZM38.1424 43.927C38.4385 43.3231 38.7167 42.6977 38.9764 42.0517L38.0486 41.6787C37.7978 42.3027 37.5295 42.9056 37.2445 43.4868L38.1424 43.927Z"
    fill="#1A1A1A" />
</svg>