<svg width="107" height="55" viewBox="0 0 107 55" fill="none" xmlns="http://www.w3.org/2000/svg">
  <rect x="3.70752" y="5" width="104" height="27" rx="12" transform="rotate(7.89285 3.70752 5)"
    fill="#FAD2D2" />
  <path
    d="M14.3805 25.6614L15.9784 14.1352L20.008 14.6939C20.811 14.8052 21.454 15.0358 21.937 15.3858C22.4205 15.732 22.7576 16.1554 22.9483 16.656C23.1394 17.1529 23.196 17.6827 23.118 18.2455C23.0493 18.7407 22.9044 19.1375 22.6834 19.4357C22.466 19.7345 22.2018 19.9579 21.8906 20.1059C21.5832 20.2545 21.2582 20.351 20.9155 20.3952L20.8999 20.5078C21.2495 20.5792 21.5869 20.7522 21.9121 21.0267C22.2374 21.3012 22.4909 21.6653 22.6728 22.1188C22.8547 22.5723 22.9035 23.103 22.8192 23.7108C22.7391 24.2886 22.5357 24.79 22.2091 25.2151C21.8825 25.6402 21.4172 25.9485 20.8132 26.1401C20.2092 26.3317 19.4532 26.3646 18.5452 26.2387L14.3805 25.6614ZM15.9479 24.6167L18.7168 25.0006C19.6286 25.127 20.3002 25.0403 20.7318 24.7407C21.1677 24.4379 21.4208 24.0332 21.491 23.5266C21.5451 23.1364 21.4956 22.7625 21.3425 22.4047C21.1899 22.0432 20.9436 21.7376 20.6035 21.4877C20.2639 21.2341 19.8427 21.0725 19.3399 21.0028L16.5034 20.6096L15.9479 24.6167ZM16.6719 19.3939L19.2608 19.7528C19.681 19.8111 20.0714 19.7811 20.432 19.6628C20.7963 19.545 21.0987 19.3499 21.3392 19.0773C21.5834 18.8052 21.7336 18.4666 21.7898 18.0613C21.86 17.5548 21.7432 17.1008 21.4394 16.6992C21.1361 16.2939 20.6018 16.0381 19.8364 15.932L17.2025 15.5669L16.6719 19.3939ZM28.1075 27.7479C27.2746 27.6325 26.5816 27.349 26.0285 26.8976C25.4796 26.4429 25.088 25.8609 24.8537 25.1515C24.6236 24.4389 24.5699 23.6399 24.6927 22.7544C24.8155 21.869 25.085 21.1109 25.5013 20.4803C25.9219 19.8464 26.4492 19.3803 27.0833 19.082C27.7216 18.7805 28.431 18.6838 29.2115 18.792C29.6617 18.8544 30.0959 18.9911 30.5141 19.202C30.9323 19.4129 31.298 19.7122 31.6114 20.0998C31.9253 20.4837 32.151 20.9662 32.2884 21.5474C32.4258 22.1286 32.4385 22.8225 32.3267 23.6292L32.2487 24.192L25.5851 23.2682L25.7443 22.1201L31.0571 22.8567C31.1248 22.3689 31.0875 21.9201 30.9455 21.5104C30.8072 21.1012 30.5752 20.7611 30.2494 20.4904C29.9274 20.2201 29.5263 20.0517 29.046 19.9851C28.517 19.9118 28.0411 19.9796 27.6182 20.1887C27.1996 20.3945 26.8583 20.6914 26.5942 21.0792C26.3301 21.4671 26.165 21.8993 26.0989 22.3758L25.9928 23.1412C25.9023 23.794 25.9381 24.3631 26.1003 24.8483C26.2668 25.3302 26.5362 25.7175 26.9087 26.01C27.2816 26.2988 27.7364 26.4804 28.2729 26.5548C28.6219 26.6032 28.9438 26.5981 29.2387 26.5396C29.5379 26.4778 29.8045 26.3618 30.0384 26.1915C30.2728 26.0175 30.4672 25.7883 30.6213 25.5037L31.8546 26.0418C31.6592 26.4583 31.3791 26.8095 31.0144 27.0955C30.6502 27.3777 30.2209 27.5782 29.7264 27.697C29.2325 27.8121 28.6928 27.8291 28.1075 27.7479ZM37.2192 29.0111C36.4088 28.8988 35.7375 28.6107 35.2052 28.1468C34.6729 27.683 34.2958 27.0934 34.0737 26.3781C33.8517 25.6628 33.8005 24.8737 33.9201 24.0107C34.0418 23.1328 34.3106 22.3803 34.7263 21.7535C35.1464 21.1234 35.6735 20.6591 36.3076 20.3608C36.9459 20.0593 37.6553 19.9626 38.4357 20.0708C39.0436 20.155 39.5757 20.3435 40.0323 20.6363C40.4888 20.929 40.8447 21.2996 41.1 21.748C41.3552 22.1964 41.4829 22.6959 41.483 23.2466L40.1548 23.0625C40.1081 22.6545 39.9314 22.2743 39.6246 21.922C39.3221 21.5665 38.8781 21.3482 38.2928 21.267C37.7751 21.1952 37.3023 21.2674 36.8747 21.4834C36.4513 21.6962 36.097 22.0314 35.8117 22.489C35.5308 22.9434 35.3451 23.497 35.2545 24.1498C35.162 24.8177 35.1864 25.4138 35.3278 25.9382C35.473 26.4631 35.7199 26.8893 36.0684 27.2168C36.4206 27.5448 36.8594 27.7452 37.3846 27.818C37.7298 27.8659 38.0514 27.8493 38.3495 27.7682C38.6475 27.6872 38.9097 27.5476 39.136 27.3495C39.3623 27.1515 39.5386 26.9006 39.6648 26.5968L40.9931 26.781C40.8473 27.2808 40.5978 27.7147 40.2447 28.0826C39.8959 28.4472 39.4628 28.7161 38.9455 28.8891C38.4325 29.0589 37.8571 29.0996 37.2192 29.0111ZM44.4979 24.2152L46.9742 24.5585C47.9873 24.699 48.7264 25.0634 49.1917 25.6518C49.657 26.2402 49.835 26.9284 49.7258 27.7163C49.654 28.2341 49.4686 28.6883 49.1697 29.079C48.8713 29.4659 48.4721 29.7528 47.972 29.9397C47.4724 30.1228 46.885 30.1676 46.2096 30.074L42.5852 29.5715L43.7836 20.9269L45.1118 21.111L44.085 28.5175L46.3812 28.8358C46.9065 28.9086 47.3572 28.8296 47.7334 28.5988C48.1096 28.3679 48.3278 28.0349 48.3882 27.5997C48.4516 27.1419 48.3346 26.7452 48.0369 26.4095C47.7393 26.0738 47.3278 25.8695 46.8026 25.7967L44.3263 25.4534L44.4979 24.2152ZM54.5517 33.7544L55.0666 30.0399L55.787 30.1398C55.9889 29.9804 56.1684 29.8026 56.3256 29.6064C56.4828 29.4102 56.6286 29.1723 56.763 28.8927C56.9016 28.6098 57.0341 28.261 57.1604 27.8464C57.2873 27.428 57.4188 26.9205 57.5551 26.3237L58.3221 22.9424L63.815 23.7039L62.7882 31.1104L64.1165 31.2945L63.6015 35.009L62.2733 34.8248L62.6166 32.3485L56.2232 31.4622L55.8799 33.9385L54.5517 33.7544ZM57.2953 30.3489L61.46 30.9262L62.3152 24.758L59.3886 24.3522L58.8608 26.5047C58.6416 27.3959 58.4158 28.1696 58.1834 28.8257C57.9509 29.4818 57.6549 29.9895 57.2953 30.3489ZM69.3072 33.4596C68.4743 33.3442 67.7813 33.0607 67.2282 32.6093C66.6793 32.1546 66.2878 31.5726 66.0534 30.8632C65.8233 30.1506 65.7697 29.3516 65.8924 28.4661C66.0152 27.5807 66.2847 26.8226 66.701 26.192C67.1216 25.5581 67.6489 25.092 68.283 24.7937C68.9214 24.4922 69.6308 24.3955 70.4112 24.5037C70.8614 24.5661 71.2956 24.7028 71.7138 24.9137C72.132 25.1246 72.4977 25.4239 72.8111 25.8115C73.125 26.1954 73.3507 26.6779 73.4881 27.2591C73.6255 27.8403 73.6383 28.5342 73.5264 29.3409L73.4484 29.9037L66.7849 28.9799L66.944 27.8318L72.2569 28.5683C72.3245 28.0806 72.2873 27.6318 72.1452 27.2221C72.0069 26.8129 71.7749 26.4728 71.4491 26.2021C71.1271 25.9318 70.726 25.7634 70.2458 25.6968C69.7167 25.6235 69.2408 25.6913 68.8179 25.9004C68.3993 26.1062 68.058 26.4031 67.7939 26.7909C67.5298 27.1788 67.3647 27.611 67.2986 28.0875L67.1925 28.8529C67.102 29.5057 67.1379 30.0748 67.3 30.56C67.4665 31.0419 67.7359 31.4292 68.1084 31.7217C68.4814 32.0105 68.9361 32.1921 69.4726 32.2665C69.8216 32.3149 70.1435 32.3098 70.4384 32.2513C70.7376 32.1895 71.0042 32.0735 71.2381 31.9032C71.4726 31.7292 71.6669 31.5 71.821 31.2154L73.0543 31.7535C72.8589 32.17 72.5788 32.5212 72.2141 32.8072C71.85 33.0894 71.4206 33.2899 70.9261 33.4087C70.4322 33.5238 69.8925 33.5408 69.3072 33.4596ZM81.4011 29.9278L81.2295 31.166L76.4569 30.5044L76.6286 29.2662L81.4011 29.9278ZM77.4587 25.5954L76.2603 34.24L74.9321 34.0559L76.1305 25.4113L77.4587 25.5954ZM82.9291 26.3538L81.7307 34.9984L80.4025 34.8143L81.6009 26.1697L82.9291 26.3538ZM86.0691 29.9784L88.5454 30.3217C89.5584 30.4622 90.2976 30.8266 90.7629 31.415C91.2281 32.0034 91.4061 32.6916 91.2969 33.4795C91.2251 33.9972 91.0398 34.4515 90.7409 34.8422C90.4425 35.2291 90.0433 35.516 89.5432 35.7029C89.0436 35.886 88.4561 35.9308 87.7808 35.8371L84.1563 35.3347L85.3548 26.6901L86.683 26.8742L85.6562 34.2807L87.9524 34.599C88.4777 34.6718 88.9284 34.5928 89.3046 34.362C89.6808 34.1311 89.899 33.7981 89.9593 33.3629C90.0228 32.9051 89.9057 32.5084 89.6081 32.1727C89.3105 31.837 88.899 31.6327 88.3737 31.5599L85.8974 31.2166L86.0691 29.9784Z"
    fill="#1A1A1A" />
  <path
    d="M39.4999 39L35.2672 42.9265L40.7839 44.6289L39.4999 39ZM11.0836 51.749C11.3888 51.9155 11.693 52.075 11.9961 52.2278L12.4461 51.3347C12.1528 51.187 11.8584 51.0325 11.5626 50.8711L11.0836 51.749ZM13.8611 53.0872C14.5095 53.3579 15.1525 53.5969 15.7895 53.8048L16.0998 52.8542C15.489 52.6548 14.871 52.4252 14.2464 52.1644L13.8611 53.0872ZM17.7787 54.3581C18.4654 54.5157 19.1439 54.6362 19.8134 54.7205L19.9383 53.7283C19.303 53.6483 18.6574 53.5337 18.0023 53.3835L17.7787 54.3581ZM21.8799 54.8669C22.5842 54.8771 23.2765 54.8458 23.9557 54.7739L23.8504 53.7794C23.2118 53.847 22.5595 53.8767 21.8944 53.867L21.8799 54.8669ZM26.0077 54.4247C26.688 54.2636 27.3521 54.0595 27.9988 53.8139L27.6437 52.879C27.0377 53.1092 26.4152 53.3005 25.7772 53.4516L26.0077 54.4247ZM29.8932 52.9494C30.5017 52.6226 31.091 52.2562 31.6601 51.8517L31.0807 51.0367C30.545 51.4175 29.9911 51.7617 29.4201 52.0683L29.8932 52.9494ZM33.2777 50.5501C33.7836 50.0921 34.2695 49.6006 34.7346 49.0771L33.987 48.413C33.5453 48.9102 33.0847 49.3758 32.6065 49.8087L33.2777 50.5501ZM36.028 47.4645C36.4253 46.9164 36.8034 46.3412 37.1615 45.7401L36.3025 45.2283C35.9592 45.8045 35.5975 46.3545 35.2183 46.8776L36.028 47.4645ZM38.1424 43.927C38.4385 43.3231 38.7168 42.6977 38.9765 42.0517L38.0486 41.6787C37.7978 42.3027 37.5295 42.9056 37.2446 43.4868L38.1424 43.927Z"
    fill="#1A1A1A" />
</svg>
  