<svg width="128" height="55" viewBox="0 0 128 55" fill="none" xmlns="http://www.w3.org/2000/svg">
  <rect x="4.11948" y="1" width="125" height="30" rx="12" transform="rotate(7.89285 4.11948 1)"
    fill="#FAD2D2" />
  <path
    d="M18.0131 24.2885C17.2207 24.1787 16.5499 23.9295 16.0007 23.5411C15.4529 23.1421 15.0578 22.6135 14.8152 21.9553C14.5726 21.2971 14.5136 20.5189 14.6381 19.6208C14.8168 18.3318 15.2873 17.3848 16.0496 16.7797C16.8225 16.1762 17.753 15.9498 18.8413 16.1007C19.2851 16.1622 19.6626 16.2738 19.9741 16.4354C20.2975 16.5879 20.5736 16.7716 20.8023 16.9863C21.0309 17.2011 21.2197 17.4319 21.3686 17.6787L21.4636 17.6918C21.4692 17.5742 21.47 17.4127 21.4662 17.2076C21.4729 17.0039 21.4887 16.8123 21.5136 16.6327L21.608 15.9512C21.6564 15.6025 21.6143 15.2844 21.4819 14.9968C21.3495 14.7092 21.1245 14.4681 20.8069 14.2733C20.4907 14.0679 20.0685 13.9286 19.5403 13.8554C19.1493 13.8012 18.7768 13.8088 18.4225 13.8781C18.0804 13.9384 17.7935 14.0655 17.562 14.2596C17.3425 14.4445 17.2108 14.6955 17.1669 15.0124C17.1625 15.0441 17.1588 15.0705 17.1559 15.0917C17.1544 15.1022 17.1515 15.1234 17.1471 15.1551L15.7524 14.9617C15.7536 14.8757 15.7571 14.8116 15.763 14.7693C15.7688 14.7271 15.7754 14.6795 15.7827 14.6267C15.8516 14.1301 16.0807 13.7204 16.4701 13.3974C16.8594 13.0745 17.3427 12.8508 17.92 12.7262C18.4972 12.6016 19.0975 12.5825 19.7209 12.6689C20.4922 12.7759 21.1342 12.9995 21.647 13.3398C22.1718 13.671 22.5499 14.0896 22.7813 14.5955C23.0233 15.1028 23.101 15.6682 23.0146 16.2916L22.4038 20.6974C22.2163 22.0498 21.7414 23.0285 20.9791 23.6336C20.2274 24.2401 19.2387 24.4584 18.0131 24.2885ZM18.1801 23.084C18.7612 23.1646 19.2415 23.1181 19.6209 22.9446C20.0003 22.771 20.2971 22.4945 20.5112 22.115C20.7374 21.7263 20.8871 21.2679 20.9604 20.7396L20.9933 20.5019C21.0651 19.9842 21.0616 19.5045 20.9828 19.0628C20.9055 18.6106 20.7048 18.2328 20.3808 17.9294C20.0673 17.6275 19.5724 17.4297 18.8962 17.3359C18.1249 17.229 17.5019 17.4118 17.0272 17.8844C16.5524 18.3571 16.2565 19.016 16.1393 19.8613C16.0148 20.7593 16.1121 21.4943 16.4313 22.0662C16.7625 22.629 17.3454 22.9683 18.1801 23.084ZM27.6139 25.6195C27.1068 25.5492 26.6445 25.3882 26.2271 25.1365C25.8217 24.8757 25.4816 24.5324 25.2068 24.1066C24.9426 23.6823 24.7528 23.1876 24.6373 22.6224C24.5338 22.048 24.5312 21.4069 24.6293 20.699C24.7597 19.7587 25.0174 18.9868 25.4026 18.3833C25.7999 17.7707 26.2913 17.3327 26.877 17.0693C27.4642 16.7954 28.1223 16.7089 28.8514 16.81C29.443 16.892 29.9772 17.1168 30.4539 17.4844C30.9412 17.8535 31.254 18.3545 31.3924 18.9875L31.4875 19.0007C31.6699 18.6168 31.8957 18.3089 32.1648 18.077C32.4338 17.8451 32.7515 17.6899 33.1177 17.6114C33.4854 17.5224 33.907 17.5109 34.3825 17.5768C35.0481 17.6691 35.5832 17.9263 35.9877 18.3485C36.3937 18.7602 36.6697 19.2938 36.8157 19.9494C36.9738 20.5959 36.9971 21.3206 36.8858 22.1236C36.8023 22.7259 36.6884 23.2754 36.5442 23.7723C36.4119 24.2601 36.2396 24.7262 36.0272 25.1706C35.8269 25.6059 35.5814 26.0564 35.2907 26.5222L33.8643 26.3245C34.3064 25.6212 34.6475 24.947 34.8877 24.3019C35.14 23.6476 35.3239 22.9032 35.4397 22.0685C35.5349 21.3817 35.54 20.8009 35.4551 20.3261C35.3822 19.8422 35.2298 19.4657 34.9978 19.1966C34.7659 18.9276 34.4651 18.7674 34.0953 18.7161C33.5564 18.6414 33.0961 18.7768 32.7144 19.1224C32.3341 19.4573 32.0876 20.0316 31.9748 20.8451L31.8562 21.7009C31.7581 22.4088 31.5811 23.025 31.3253 23.5496C31.0816 24.065 30.7748 24.4909 30.4051 24.8273C30.0354 25.1637 29.6148 25.4015 29.1432 25.5408C28.6731 25.6694 28.1633 25.6957 27.6139 25.6195ZM27.806 24.467C28.3026 24.5358 28.7277 24.4601 29.0812 24.2399C29.4348 24.0197 29.7193 23.6769 29.9346 23.2114C30.1619 22.7368 30.3217 22.1666 30.414 21.501C30.5531 20.4973 30.4879 19.686 30.2184 19.0671C29.9488 18.4482 29.4389 18.0868 28.6888 17.9828C27.9386 17.8788 27.3496 18.0879 26.9219 18.6101C26.4941 19.1323 26.2107 19.8953 26.0715 20.899C25.9792 21.5646 25.9726 22.156 26.0517 22.6731C26.1428 23.1811 26.3338 23.5898 26.6247 23.8994C26.9157 24.2089 27.3094 24.3981 27.806 24.467ZM40.8762 31.3348C40.3374 31.2601 39.8532 31.1015 39.4238 30.8589C39.0035 30.6283 38.653 30.3213 38.3723 29.9378C38.0902 29.5648 37.8916 29.1335 37.7764 28.6437C37.6703 28.1659 37.6568 27.6418 37.7359 27.0712C37.7784 26.7648 37.8444 26.4832 37.9338 26.2264C38.0353 25.9605 38.1355 25.7428 38.2343 25.5735L39.5656 25.758C39.4893 25.9198 39.4057 26.1343 39.3148 26.4017C39.236 26.66 39.1804 26.9053 39.1482 27.1378C39.0764 27.6555 39.0912 28.1314 39.1926 28.5654C39.3045 29.0009 39.5134 29.3583 39.8193 29.6376C40.1237 29.9275 40.5294 30.1076 41.0366 30.1779C41.586 30.2541 42.0413 30.1934 42.4025 29.9958C42.7743 29.7996 43.065 29.4899 43.2744 29.0667C43.4944 28.6449 43.6461 28.1329 43.7296 27.5306L44.3976 22.7127C44.5089 21.9097 44.4308 21.2689 44.1633 20.7903C43.8973 20.3012 43.4209 20.009 42.7342 19.9138C42.3221 19.8567 41.9466 19.8854 41.6077 19.9999C41.2793 20.1159 41.004 20.3147 40.782 20.5962C40.5719 20.8686 40.4354 21.2319 40.3724 21.6863C40.3402 21.9187 40.32 22.142 40.3118 22.3563C40.3157 22.5614 40.3285 22.7409 40.3502 22.8947L39.019 22.7101C38.9943 22.5775 38.9702 22.4018 38.9466 22.1832C38.9351 21.9554 38.9455 21.7253 38.9777 21.4929C39.0759 20.785 39.3111 20.2146 39.6834 19.7816C40.0663 19.3501 40.5334 19.0487 41.0848 18.8775C41.6468 18.7077 42.25 18.6675 42.8945 18.7568C43.5813 18.8521 44.1585 19.0775 44.6261 19.433C45.1043 19.7901 45.4433 20.2571 45.6434 20.834C45.8554 21.4018 45.9079 22.0714 45.801 22.8427L45.1155 27.7874C44.9969 28.6432 44.7479 29.3517 44.3685 29.9129C43.9983 30.4862 43.5165 30.8932 42.9232 31.134C42.3404 31.3763 41.6581 31.4432 40.8762 31.3348ZM56.8021 33.5427C56.6148 33.1075 56.368 32.7126 56.0618 32.3578C55.7647 32.0151 55.4241 31.7148 55.0399 31.457C54.6662 31.2006 54.2595 30.988 53.8199 30.8194C53.3802 30.6508 52.9226 30.5335 52.4472 30.4676C51.9295 30.3958 51.4128 30.3942 50.8972 30.4627C50.3801 30.5417 49.8708 30.6811 49.3693 30.8808L48.9552 29.7896C49.1917 29.7147 49.4328 29.6458 49.6784 29.583C49.9331 29.5321 50.1917 29.4926 50.454 29.4644C50.7149 29.4467 50.9676 29.4494 51.2121 29.4725L51.2187 29.425C50.6731 29.1663 50.1672 28.8539 49.701 28.4877C49.2455 28.123 48.8575 27.6977 48.5372 27.2118C48.2169 26.7259 47.9861 26.177 47.8448 25.5651C47.714 24.9547 47.7014 24.2691 47.8068 23.5084C47.9182 22.7054 48.1311 22.0242 48.4455 21.4648C48.772 20.8962 49.1904 20.4804 49.7007 20.2173C50.223 19.9451 50.8223 19.8559 51.4985 19.9497C52.0902 20.0317 52.5466 20.2349 52.8677 20.5595C53.2009 20.8749 53.4198 21.2767 53.5244 21.765L53.6037 21.776C53.8477 21.336 54.1782 21.0104 54.5952 20.7989C55.0242 20.5784 55.5293 20.5085 56.1104 20.589C56.7338 20.6754 57.2113 20.8816 57.543 21.2076C57.8762 21.523 58.0951 21.9249 58.1997 22.4132L58.2789 22.4242C58.523 21.9842 58.8535 21.6585 59.2705 21.4471C59.689 21.2251 60.1782 21.153 60.7381 21.2306C61.4249 21.3258 61.9758 21.5852 62.3909 22.0089C62.806 22.4326 63.0851 22.9828 63.2282 23.6595C63.3833 24.3272 63.4015 25.0889 63.2829 25.9447C63.1892 26.6209 63.028 27.2393 62.7996 27.7999C62.5817 28.362 62.286 28.9025 61.9125 29.4214L60.7695 28.8107C61.0843 28.3267 61.3229 27.8482 61.4854 27.3754C61.6493 26.892 61.7738 26.3439 61.8587 25.7311C62.0008 24.7062 61.944 23.9122 61.6882 23.3491C61.4445 22.7769 61.0374 22.4512 60.4668 22.3721C59.9914 22.3062 59.5967 22.4346 59.2827 22.7572C58.9688 23.0798 58.7664 23.5686 58.6756 24.2237L58.3218 26.7753L56.9906 26.5907L57.3443 24.0391C57.4263 23.4475 57.3624 22.9379 57.1524 22.5103C56.9531 22.0842 56.5522 21.8294 55.95 21.746C55.4006 21.6698 54.9584 21.7915 54.6233 22.1112C54.2988 22.4324 54.0911 22.9205 54.0003 23.5755L53.6466 26.1271L52.3153 25.9426L52.669 23.391C52.7511 22.7993 52.6977 22.2912 52.5088 21.8666C52.32 21.4419 51.9615 21.193 51.4332 21.1198C50.8732 21.0421 50.3972 21.2131 50.0053 21.6325C49.6238 22.0535 49.3665 22.7447 49.2332 23.7062C49.1307 24.4458 49.1575 25.1064 49.3138 25.688C49.4821 26.2605 49.7459 26.7656 50.1053 27.203C50.4646 27.6405 50.8863 28.0167 51.3703 28.3315C51.8664 28.6371 52.3909 28.8929 52.9438 29.0988C53.6418 29.3463 54.3271 29.6459 54.9999 29.9977C55.6817 30.3614 56.2839 30.7949 56.8064 31.298C57.338 31.8133 57.7169 32.4204 57.9431 33.1194L56.8021 33.5427ZM65.3845 30.6943C65.242 30.1684 65.1283 29.668 65.0434 29.1932C64.9584 28.7184 64.9119 28.2381 64.9039 27.7524C64.9079 27.2576 64.948 26.7355 65.0241 26.1861C65.1442 25.3197 65.3856 24.5886 65.7482 23.9927C66.1228 23.3878 66.609 22.9491 67.2067 22.6766C67.8059 22.3935 68.5018 22.3069 69.2942 22.4167C70.1077 22.5295 70.759 22.8029 71.2481 23.2368C71.7492 23.6617 72.0924 24.2154 72.2777 24.898C72.4645 25.57 72.4979 26.3392 72.3778 27.2056C72.3016 27.755 72.1929 28.2676 72.0515 28.7433C71.9222 29.21 71.7521 29.6602 71.5412 30.094C71.3409 30.5293 71.0954 30.9799 70.8046 31.4457L69.3783 31.248C69.8204 30.5447 70.1615 29.8705 70.4017 29.2253C70.6539 28.5711 70.8379 27.8266 70.9536 26.992C71.0488 26.3052 71.0381 25.7222 70.9215 25.243C70.8063 24.7532 70.5958 24.3686 70.2899 24.0893C69.9946 23.8115 69.6092 23.6396 69.1338 23.5737C68.6583 23.5078 68.2355 23.5676 67.8651 23.7532C67.5054 23.9402 67.2035 24.2537 66.9594 24.6937C66.7168 25.1231 66.5479 25.6812 66.4527 26.368C66.375 26.928 66.335 27.4501 66.3325 27.9343C66.3405 28.42 66.381 28.9048 66.4539 29.3888C66.5388 29.8636 66.6578 30.3647 66.8108 30.892L65.3845 30.6943ZM84.899 37.4379C84.7281 36.9619 84.4593 36.5316 84.0927 36.147C83.7366 35.7638 83.3386 35.4501 82.8986 35.2061C82.4677 34.974 82.0462 34.8295 81.6342 34.7723C81.1904 34.7108 80.7823 34.7027 80.4099 34.748C80.0375 34.7933 79.6208 34.8863 79.1597 35.027L78.8205 33.9784C79.0796 33.8959 79.3743 33.8291 79.7044 33.7779C80.0346 33.7268 80.4441 33.7243 80.9331 33.7706L80.9397 33.723C80.2695 33.2748 79.71 32.7664 79.2612 32.1981C78.8229 31.6312 78.5132 30.9906 78.3323 30.2763C78.1633 29.5529 78.1389 28.7581 78.259 27.8917C78.3689 27.0993 78.5833 26.4075 78.9021 25.8163C79.233 25.2161 79.6558 24.7686 80.1705 24.4738C80.6958 24.1805 81.3018 24.0814 81.9885 24.1766C82.4428 24.2396 82.8295 24.3632 83.1486 24.5474C83.4797 24.7226 83.7484 24.959 83.9548 25.2569C84.1612 25.5547 84.2947 25.9124 84.3552 26.33L84.4345 26.341C84.7399 25.7695 85.1666 25.371 85.7148 25.1455C86.2735 24.9214 86.8487 24.8504 87.4404 24.9324C88.1694 25.0335 88.7799 25.2904 89.2719 25.7032C89.7744 26.1175 90.1289 26.6674 90.3354 27.3529C90.5419 28.0384 90.5822 28.8355 90.4562 29.7441C90.361 30.4309 90.181 31.0305 89.9161 31.543C89.6617 32.057 89.3452 32.4761 88.9664 32.8005C88.5982 33.1264 88.1782 33.3589 87.7067 33.4981C87.2471 33.6283 86.7637 33.6582 86.2566 33.5879C85.7072 33.5117 85.2238 33.3478 84.8064 33.0961C84.3905 32.8338 84.0497 32.4958 83.784 32.0821C83.5183 31.6683 83.3329 31.1796 83.228 30.6158C83.1337 30.0535 83.1341 29.429 83.2293 28.7423L83.337 27.9657C83.4498 27.1521 83.3688 26.5325 83.094 26.1067C82.8206 25.6704 82.4145 25.4148 81.8757 25.3401C81.5165 25.2903 81.1834 25.3626 80.8764 25.557C80.5801 25.7528 80.3272 26.0623 80.1177 26.4856C79.9203 26.8997 79.7777 27.4238 79.6898 28.0577C79.5858 28.8079 79.5855 29.4701 79.689 30.0444C79.8044 30.6096 79.9936 31.1097 80.2563 31.5446C80.5311 31.9703 80.8563 32.3438 81.2317 32.6651C81.6177 32.9878 82.024 33.2811 82.4505 33.5448C83.0266 33.8939 83.5515 34.2251 84.0249 34.5384C84.4969 34.8623 84.9004 35.2144 85.2354 35.5946C85.5794 35.9869 85.8476 36.4603 86.04 37.0146L84.899 37.4379ZM86.3853 32.4265C86.8924 32.4968 87.3228 32.4219 87.6764 32.2017C88.0406 31.983 88.3295 31.6461 88.5434 31.1912C88.7678 30.7377 88.9246 30.1887 89.014 29.5442C89.1488 28.5722 89.0806 27.782 88.8096 27.1737C88.5386 26.5654 88.028 26.2092 87.2778 26.1052C86.5382 26.0027 85.95 26.2065 85.5131 26.7167C85.0868 27.2283 84.8063 27.9702 84.6715 28.9422C84.5822 29.5867 84.5785 30.1569 84.6605 30.6529C84.7531 31.1503 84.9395 31.5531 85.2199 31.8611C85.5108 32.1707 85.8993 32.3592 86.3853 32.4265ZM98.3838 39.3074C98.2129 38.8314 97.9705 38.4047 97.6567 38.0274C97.3534 37.6515 97.0082 37.3452 96.6211 37.1085C96.243 36.8838 95.848 36.7429 95.4359 36.6857C94.9922 36.6242 94.5841 36.6161 94.2117 36.6614C93.8392 36.7067 93.4225 36.7997 92.9615 36.9404L92.6223 35.8918C92.8814 35.8093 93.176 35.7425 93.5062 35.6913C93.8469 35.6416 94.267 35.6406 94.7665 35.6884L94.7731 35.6408C93.7461 34.9708 93.0172 34.1697 92.5864 33.2378C92.1571 32.2952 92.0274 31.2111 92.1973 29.9855C92.3174 29.1191 92.5436 28.3805 92.876 27.7697C93.2084 27.1589 93.6372 26.7069 94.1624 26.4135C94.6877 26.1202 95.3043 26.0226 96.0122 26.1208C96.6038 26.2028 97.0602 26.4061 97.3814 26.7306C97.7146 27.046 97.9335 27.4478 98.0381 27.9362L98.1173 27.9472C98.3614 27.5072 98.6919 27.1815 99.1089 26.9701C99.5273 26.7481 100.017 26.6759 100.577 26.7535C101.284 26.8517 101.851 27.1133 102.277 27.5385C102.702 27.9636 102.992 28.5153 103.146 29.1935C103.301 29.8611 103.319 30.6228 103.201 31.4786C103.107 32.1548 102.946 32.7732 102.717 33.3338C102.499 33.8959 102.204 34.4364 101.83 34.9554L100.687 34.3447C101.002 33.8606 101.241 33.3822 101.403 32.9094C101.567 32.426 101.691 31.8779 101.776 31.265C101.872 30.5783 101.877 29.9975 101.792 29.5227C101.708 29.0373 101.54 28.6586 101.287 28.3866C101.045 28.1161 100.717 27.9522 100.305 27.8951C99.8297 27.8292 99.435 27.9575 99.1211 28.2801C98.8071 28.6028 98.6048 29.0916 98.5139 29.7467L98.1602 32.2983L96.8289 32.1137L97.1827 29.5621C97.2647 28.9704 97.2113 28.4623 97.0225 28.0377C96.8337 27.6131 96.4751 27.3641 95.9469 27.2909C95.3446 27.2074 94.8431 27.4071 94.4423 27.89C94.043 28.3623 93.7716 29.1161 93.6281 30.1516C93.5299 30.8595 93.5288 31.4893 93.6246 32.041C93.7218 32.5821 93.892 33.0634 94.1351 33.4848C94.3903 33.8971 94.7003 34.2631 95.0652 34.5829C95.43 34.9027 95.8257 35.1945 96.2522 35.4582C96.8284 35.8073 97.3268 36.1348 97.7474 36.4408C98.1666 36.7574 98.5172 37.1021 98.7994 37.4751C99.0906 37.8601 99.3324 38.3297 99.5248 38.884L98.3838 39.3074ZM107.211 40.5311C106.672 40.4564 106.188 40.2977 105.758 40.0551C105.338 39.8245 104.987 39.5175 104.707 39.134C104.425 38.761 104.226 38.3297 104.111 37.8399C104.005 37.3621 103.991 36.838 104.07 36.2674C104.113 35.961 104.179 35.6794 104.268 35.4226C104.37 35.1567 104.47 34.9391 104.569 34.7697L105.9 34.9543C105.824 35.116 105.74 35.3305 105.649 35.5979C105.57 35.8562 105.515 36.1016 105.483 36.334C105.411 36.8517 105.426 37.3276 105.527 37.7616C105.639 38.1971 105.848 38.5545 106.154 38.8338C106.458 39.1237 106.864 39.3038 107.371 39.3741C107.92 39.4503 108.376 39.3896 108.737 39.192C109.109 38.9958 109.399 38.6861 109.609 38.2629C109.829 37.8411 109.98 37.3291 110.064 36.7269L110.732 31.9089C110.843 31.1059 110.765 30.4652 110.498 29.9866C110.232 29.4974 109.755 29.2052 109.068 29.11C108.656 29.0529 108.281 29.0816 107.942 29.1961C107.614 29.3121 107.338 29.5109 107.116 29.7924C106.906 30.0648 106.77 30.4281 106.707 30.8825C106.674 31.1149 106.654 31.3383 106.646 31.5525C106.65 31.7576 106.663 31.9371 106.685 32.0909L105.353 31.9063C105.329 31.7737 105.305 31.598 105.281 31.3794C105.269 31.1517 105.28 30.9216 105.312 30.6891C105.41 29.9812 105.645 29.4108 106.018 28.9778C106.401 28.5463 106.868 28.2449 107.419 28.0737C107.981 27.9039 108.584 27.8637 109.229 27.9531C109.916 28.0483 110.493 28.2737 110.96 28.6292C111.439 28.9863 111.778 29.4533 111.978 30.0302C112.19 30.598 112.242 31.2676 112.135 32.0389L111.45 36.9836C111.331 37.8394 111.082 38.5479 110.703 39.1092C110.333 39.6824 109.851 40.0894 109.258 40.3302C108.675 40.5725 107.992 40.6395 107.211 40.5311Z"
    fill="#1A1A1A" />
  <path
    d="M42.4999 39L38.2672 42.9265L43.784 44.6289L42.4999 39ZM14.0837 51.749C14.3888 51.9155 14.693 52.075 14.9961 52.2278L15.4461 51.3347C15.1529 51.187 14.8584 51.0325 14.5626 50.8711L14.0837 51.749ZM16.8611 53.0872C17.5095 53.3579 18.1525 53.5969 18.7895 53.8048L19.0998 52.8542C18.489 52.6548 17.871 52.4252 17.2464 52.1644L16.8611 53.0872ZM20.7787 54.3581C21.4654 54.5157 22.1439 54.6362 22.8135 54.7205L22.9384 53.7283C22.303 53.6483 21.6574 53.5337 21.0023 53.3835L20.7787 54.3581ZM24.8799 54.8669C25.5842 54.8771 26.2765 54.8458 26.9557 54.7739L26.8504 53.7794C26.2118 53.847 25.5595 53.8767 24.8945 53.867L24.8799 54.8669ZM29.0077 54.4247C29.688 54.2636 30.3521 54.0595 30.9988 53.8139L30.6437 52.879C30.0377 53.1092 29.4152 53.3005 28.7772 53.4516L29.0077 54.4247ZM32.8932 52.9494C33.5017 52.6226 34.091 52.2562 34.6601 51.8517L34.0807 51.0367C33.545 51.4175 32.9911 51.7617 32.4201 52.0683L32.8932 52.9494ZM36.2777 50.5501C36.7836 50.0921 37.2695 49.6006 37.7346 49.0771L36.987 48.413C36.5453 48.9102 36.0848 49.3758 35.6066 49.8087L36.2777 50.5501ZM39.028 47.4645C39.4253 46.9164 39.8034 46.3412 40.1616 45.7401L39.3025 45.2283C38.9592 45.8045 38.5975 46.3545 38.2183 46.8776L39.028 47.4645ZM41.1425 43.927C41.4385 43.3231 41.7168 42.6977 41.9765 42.0517L41.0486 41.6787C40.7978 42.3027 40.5295 42.9056 40.2446 43.4868L41.1425 43.927Z"
    fill="#1A1A1A" />
</svg>
  