<svg width="78" height="38" viewBox="0 0 78 38" fill="none" xmlns="http://www.w3.org/2000/svg">
<rect x="3.70752" width="75" height="27" rx="12" transform="rotate(7.89285 3.70752 0)" fill="#FAD2D2"/>
<path d="M14.8532 20.7263L13.39 20.5235L19.2201 9.58406L20.6609 9.7838L23.2952 21.8967L21.8319 21.6938L19.7327 11.5136L19.6427 11.5012L14.8532 20.7263ZM16.0177 16.2988L21.9158 17.1165L21.7442 18.3547L15.8461 17.537L16.0177 16.2988ZM27.8366 10.7786L26.2387 22.3047L24.9105 22.1206L26.5084 10.5945L27.8366 10.7786ZM31.5975 11.3L29.9996 22.8261L28.6714 22.642L30.2693 11.1158L31.5975 11.3ZM40.1289 24.4139C39.4085 24.3141 38.7978 24.0439 38.2967 23.6035C37.7961 23.1594 37.4364 22.5818 37.2176 21.8708C36.9993 21.156 36.9536 20.3408 37.0805 19.4254C37.2064 18.5174 37.4713 17.751 37.8753 17.1264C38.2793 16.5017 38.7842 16.0458 39.39 15.7589C39.9957 15.4719 40.6625 15.3789 41.3904 15.4798C41.9532 15.5578 42.3848 15.7133 42.6852 15.9461C42.9899 16.1757 43.2122 16.4207 43.352 16.681C43.4961 16.9381 43.6065 17.1484 43.6833 17.312L43.7958 17.3276L44.3857 13.0729L45.7139 13.257L44.116 24.7831L42.8328 24.6052L43.0169 23.277L42.8593 23.2552C42.74 23.3992 42.5736 23.5789 42.3602 23.794C42.1473 24.0054 41.8609 24.1818 41.501 24.3231C41.1416 24.4606 40.6842 24.4909 40.1289 24.4139ZM40.4744 23.2458C41.0072 23.3196 41.4767 23.2432 41.8829 23.0166C42.2896 22.7861 42.6229 22.4366 42.8829 21.9678C43.1435 21.4953 43.319 20.9327 43.4095 20.2798C43.499 19.6345 43.4835 19.0568 43.363 18.5468C43.243 18.033 43.0179 17.6156 42.6876 17.2945C42.3579 16.9696 41.9229 16.7697 41.3826 16.6948C40.8198 16.6168 40.3308 16.6962 39.9155 16.9331C39.5045 17.1667 39.1712 17.5163 38.9154 17.9818C38.664 18.4441 38.4961 18.9792 38.4118 19.587C38.3265 20.2023 38.3428 20.7744 38.4607 21.3031C38.5829 21.8287 38.8092 22.2654 39.1395 22.6133C39.4742 22.958 39.9191 23.1688 40.4744 23.2458ZM49.2488 25.7012C48.701 25.6253 48.2181 25.4532 47.8003 25.1849C47.3829 24.9129 47.0702 24.5617 46.8622 24.1313C46.6547 23.6972 46.5899 23.1988 46.668 22.636C46.7366 22.1407 46.8898 21.7528 47.1276 21.4721C47.3659 21.1878 47.6604 20.98 48.0113 20.849C48.3622 20.7179 48.7406 20.6365 49.1465 20.6048C49.5567 20.5699 49.9662 20.554 50.3749 20.5571C50.9096 20.5624 51.3424 20.5708 51.6735 20.5823C52.0089 20.5905 52.2576 20.5619 52.4197 20.4964C52.5855 20.4315 52.6832 20.292 52.7128 20.0782L52.7191 20.0332C52.7961 19.4779 52.7039 19.0253 52.4427 18.6755C52.1851 18.3262 51.7506 18.1092 51.139 18.0244C50.5049 17.9365 49.9886 18.0064 49.5899 18.2341C49.1912 18.4618 48.8968 18.7231 48.7068 19.018L47.5086 18.393C47.8065 17.8989 48.1634 17.5316 48.5791 17.291C48.9992 17.0471 49.4405 16.8979 49.9031 16.8435C50.37 16.7859 50.8211 16.7872 51.2563 16.8476C51.5339 16.8861 51.8482 16.964 52.199 17.0815C52.5541 17.1957 52.8865 17.3776 53.1961 17.627C53.5094 17.8769 53.7503 18.222 53.9187 18.6622C54.0871 19.1024 54.1237 19.6657 54.0286 20.3524L53.239 26.0479L51.9107 25.8638L52.073 24.6931L52.0055 24.6838C51.8894 24.8589 51.7115 25.0388 51.4718 25.2235C51.232 25.4083 50.9273 25.5515 50.5575 25.6532C50.1878 25.7549 49.7515 25.7709 49.2488 25.7012ZM49.6168 24.5362C50.1421 24.609 50.5991 24.5672 50.9879 24.4108C51.3804 24.2549 51.6913 24.0264 51.9204 23.7255C52.1532 23.4251 52.2946 23.0948 52.3446 22.7346L52.5131 21.5189C52.4474 21.5787 52.315 21.6234 52.1159 21.6532C51.921 21.6797 51.6969 21.6964 51.4435 21.7034C51.1945 21.7071 50.9515 21.7078 50.7147 21.7056C50.4822 21.7001 50.2934 21.6969 50.1482 21.6959C49.7968 21.693 49.464 21.7215 49.1498 21.7812C48.8398 21.8376 48.5792 21.9525 48.3677 22.1259C48.1606 22.296 48.0336 22.55 47.9868 22.8876C47.9228 23.3491 48.0452 23.7217 48.3538 24.0054C48.6668 24.2859 49.0877 24.4628 49.6168 24.5362ZM55.7597 29.7014C55.5346 29.6702 55.3365 29.6236 55.1653 29.5616C54.9937 29.5034 54.8764 29.4527 54.8135 29.4096L55.3135 28.2858C55.6247 28.4131 55.9057 28.4826 56.1565 28.4944C56.4072 28.5063 56.6421 28.426 56.861 28.2537C57.0831 28.0856 57.3053 27.7933 57.5275 27.3767L57.8688 26.7356L55.8768 17.6028L57.3175 17.8026L58.7488 25.0221L58.8388 25.0345L62.1801 18.4767L63.6209 18.6764L58.5782 28.073C58.3512 28.4966 58.0955 28.8378 57.8111 29.0967C57.5261 29.3593 57.2124 29.5395 56.8699 29.6373C56.5313 29.7357 56.1612 29.757 55.7597 29.7014Z" fill="#1A1A1A"/>
</svg>
