<svg width="30" height="16" viewBox="0 0 30 16" fill="none" xmlns="http://www.w3.org/2000/svg">
<path d="M28.4999 0L24.2671 3.92647L29.7839 5.6289L28.4999 0ZM0.0836264 12.749C0.388769 12.9155 0.692941 13.075 0.996083 13.2278L1.44605 12.3347C1.15283 12.187 0.858327 12.0325 0.562614 11.8711L0.0836264 12.749ZM2.86105 14.0872C3.50947 14.3579 4.1525 14.5969 4.7895 14.8048L5.09975 13.8542C4.48897 13.6548 3.87097 13.4252 3.24633 13.1644L2.86105 14.0872ZM6.7787 15.3581C7.46538 15.5157 8.14392 15.6362 8.81342 15.7205L8.93832 14.7283C8.30297 14.6483 7.65737 14.5337 7.00228 14.3835L6.7787 15.3581ZM10.8798 15.8669C11.5841 15.8771 12.2765 15.8458 12.9557 15.7739L12.8504 14.7794C12.2117 14.847 11.5594 14.8767 10.8944 14.867L10.8798 15.8669ZM15.0076 15.4247C15.6879 15.2636 16.3521 15.0595 16.9988 14.8139L16.6437 13.879C16.0377 14.1092 15.4152 14.3005 14.7772 14.4516L15.0076 15.4247ZM18.8932 13.9494C19.5016 13.6226 20.091 13.2562 20.66 12.8517L20.0806 12.0367C19.545 12.4175 18.9911 12.7617 18.4201 13.0683L18.8932 13.9494ZM22.2777 11.5501C22.7835 11.0921 23.2695 10.6006 23.7346 10.0771L22.9869 9.41298C22.5452 9.91021 22.0847 10.3758 21.6065 10.8087L22.2777 11.5501ZM25.028 8.46453C25.4253 7.91638 25.8034 7.34119 26.1615 6.74009L25.3024 6.22827C24.9592 6.80446 24.5975 7.35454 24.2183 7.87765L25.028 8.46453ZM27.1424 4.92704C27.4385 4.32314 27.7167 3.69774 27.9764 3.05172L27.0486 2.67873C26.7978 3.30267 26.5295 3.9056 26.2445 4.4868L27.1424 4.92704Z" fill="#1A1A1A"/>
</svg>
