<svg width="66" height="66" viewBox="0 0 66 66" fill="none" xmlns="http://www.w3.org/2000/svg">
<circle cx="32.014" cy="32.0143" r="32.014" fill="white"/>
<path d="M21.8772 15.1936H17.3633V49.9207H21.8778L21.87 37.2225H28.5173V32.5757H21.7293L21.8772 15.1936Z" fill="#1A1A1A"/>
<path d="M22.707 43.2328H22.7084L22.707 43.2299V43.2328Z" fill="#1A1A1A"/>
<path d="M42.4421 15.1936L42.3098 32.5769H40.8046C40.9531 32.1709 41.0285 31.7129 41.0285 31.2034C41.0285 30.0095 40.6315 29.0898 39.849 28.4695C39.2442 27.9905 38.4791 27.6271 37.5672 27.3846C38.5341 27.0667 39.2592 26.6302 39.7286 26.0823C40.3064 25.4076 40.5998 24.5226 40.5998 23.4515C40.5998 22.3803 40.1244 21.39 39.1868 20.6404C38.2851 19.9195 37.1594 19.3854 35.8404 19.0525C34.8531 18.8124 34.0669 18.5358 33.5047 18.2292C32.9802 17.9442 32.6467 17.6077 32.5132 17.2299L32.4527 17.0581H26.4755V17.3156C26.4755 18.7962 26.9658 19.9201 27.9322 20.6559C28.8609 21.3637 30.0589 21.884 31.4995 22.2037C32.524 22.4061 33.3179 22.6504 33.8586 22.9294C34.3358 23.176 34.5675 23.5185 34.5675 23.9766C34.5675 24.325 34.4244 24.6052 34.1304 24.8352C33.8208 25.0771 33.3203 25.1992 32.6413 25.1992H29.6542V29.7065H32.6413C33.3927 29.7065 33.9921 29.8466 34.4226 30.1233C34.8219 30.3801 35.0159 30.7334 35.0159 31.2022C35.0159 32.1692 34.2172 32.5739 32.6413 32.5739H29.6542V37.2207H31.842C33.1035 37.2207 33.9723 37.3842 34.5764 37.9189C35.2135 38.4835 35.5231 39.1912 35.5231 40.0827C35.5231 41.0653 35.2009 41.8239 34.5387 42.4011C33.8753 42.9794 33.3879 43.2722 32.1192 43.2722C31.3019 43.2722 30.5733 43.1291 29.9542 42.8477C29.9033 42.8244 29.8512 42.7974 29.7979 42.7663C29.0022 42.3053 28.5292 41.4389 28.5262 40.5204L28.5178 38.1889H22.707C22.707 38.1889 22.707 40.894 22.7076 42.3406C22.7076 43.0393 22.8932 43.7291 23.2668 44.3194C23.2692 44.323 23.271 44.3266 23.2734 44.3296C24.032 45.5241 25.1696 46.4545 26.6545 47.0964C28.1232 47.7305 29.9218 48.0526 32.0019 48.0526C34.0819 48.0526 35.3081 47.7652 36.8259 47.1988C38.3593 46.6264 39.5682 45.7792 40.4196 44.6805C41.277 43.5746 41.7117 42.2304 41.7117 40.6863C41.7117 39.3247 41.4171 38.1685 40.8321 37.2219H42.4517L42.4421 49.9183H47.0608V15.1936H42.4421Z" fill="#1A1A1A"/>
</svg>
