<svg width="24" height="24" viewBox="0 0 24 24" fill="currentColor"
  xmlns="http://www.w3.org/2000/svg">
  <path
    d="M10.4985 11.501H12.6185L18.7785 5.34104L16.6585 3.22104L10.4985 9.38104V11.501ZM20.2085 2.50104L19.4985 1.79104C19.1085 1.40104 18.4785 1.40104 18.0885 1.79104L17.3685 2.51104L19.4885 4.63104L20.2085 3.91104C20.5985 3.52104 20.5985 2.89104 20.2085 2.50104ZM17.3985 9.55103C17.4585 9.91103 17.4985 10.291 17.4985 10.701C17.4985 12.411 16.4185 15.341 11.4985 19.841C6.57854 15.351 5.49854 12.411 5.49854 10.701C5.49854 6.67103 8.58854 4.50104 11.4985 4.50104C11.8185 4.50104 12.1485 4.53104 12.4685 4.58104L14.1185 2.93104C13.2785 2.66104 12.3985 2.50104 11.4985 2.50104C7.29854 2.50104 3.49854 5.72103 3.49854 10.701C3.49854 14.021 6.16854 17.951 11.4985 22.501C16.8285 17.951 19.4985 14.021 19.4985 10.701C19.4985 9.69103 19.3385 8.76104 19.0485 7.90104L17.3985 9.55103Z"
  />
</svg>
  