<svg width="23" height="26" viewBox="0 0 23 26" fill="currentColor" xmlns="http://www.w3.org/2000/svg">
  <path d="M3.37955 0H0V26H3.38L3.37417 16.493H8.35093V13.0139H3.26883L3.37955 0Z" />
  <path d="M4.0011 20.9923H4.00223C4.00223 20.9923 4.00166 20.9906 4.0011 20.9901V20.9923Z"
    />
  <path
    d="M18.7767 0L18.6776 13.0148H17.5506C17.6618 12.7109 17.7183 12.3679 17.7183 11.9864C17.7183 11.0926 17.4211 10.404 16.8352 9.93962C16.3824 9.581 15.8095 9.3089 15.1268 9.12734C15.8508 8.88931 16.3936 8.56252 16.7451 8.15234C17.1777 7.64714 17.3973 6.98459 17.3973 6.18262C17.3973 5.38066 17.0414 4.63921 16.3394 4.07797C15.6643 3.53824 14.8215 3.13838 13.834 2.88914C13.0948 2.70938 12.5062 2.50228 12.0852 2.27276C11.6926 2.05938 11.4429 1.80745 11.3429 1.52459L11.2976 1.39593H6.82249V1.58869C6.82249 2.69728 7.18962 3.53869 7.91314 4.08962C8.60842 4.61948 9.50542 5.00903 10.584 5.24841C11.351 5.39993 11.9454 5.58283 12.3502 5.79172C12.7075 5.97641 12.8809 6.23283 12.8809 6.57576C12.8809 6.83666 12.7738 7.04645 12.5537 7.21859C12.3219 7.39969 11.9472 7.49114 11.4388 7.49114H9.20238V10.8658H11.4388C12.0014 10.8658 12.4501 10.9707 12.7725 11.1778C13.0715 11.3701 13.2167 11.6346 13.2167 11.9856C13.2167 12.7095 12.6187 13.0126 11.4388 13.0126H9.20238V16.4916H10.8404C11.7849 16.4916 12.4353 16.614 12.8877 17.0143C13.3646 17.437 13.5964 17.9669 13.5964 18.6344C13.5964 19.37 13.3552 19.938 12.8594 20.3701C12.3627 20.8031 11.9978 21.0223 11.0479 21.0223C10.436 21.0223 9.89049 20.9152 9.42697 20.7045C9.38886 20.687 9.34987 20.6669 9.30997 20.6436C8.71421 20.2984 8.36007 19.6497 8.35783 18.9621L8.35156 17.2165H4.00104C4.00104 17.2165 4.00104 19.2418 4.00149 20.3248C4.00149 20.848 4.14045 21.3644 4.42018 21.8064C4.42197 21.8091 4.42331 21.8118 4.42511 21.814C4.99307 22.7083 5.8448 23.4049 6.95652 23.8855C8.05614 24.3602 9.40276 24.6014 10.9601 24.6014C12.5174 24.6014 13.4355 24.3862 14.5718 23.9621C15.7199 23.5336 16.6249 22.8993 17.2624 22.0767C17.9043 21.2487 18.2298 20.2423 18.2298 19.0862C18.2298 18.0669 18.0092 17.2012 17.5712 16.4925H18.7838L18.7767 25.9982H22.2347V0H18.7767Z"
   />
</svg>
  