<svg width="25" height="24" viewBox="0 0 25 24" fill="currentColor" xmlns="http://www.w3.org/2000/svg">
  <path fill-rule="evenodd" d="M8.49843 2.4C5.41123 2.4 2.89999 4.91356 2.89999 8.00156V16.0016C2.89999 19.0888 5.41356 21.6 8.50156 21.6H16.5016C19.5888 21.6 22.1 19.0864 22.1 15.9984V7.99844C22.1 4.91124 19.5864 2.4 16.4984 2.4H8.49843ZM18.1 5.6C18.5416 5.6 18.9 5.9584 18.9 6.4C18.9 6.8416 18.5416 7.2 18.1 7.2C17.6584 7.2 17.3 6.8416 17.3 6.4C17.3 5.9584 17.6584 5.6 18.1 5.6ZM12.5 7.2C15.1472 7.2 17.3 9.3528 17.3 12C17.3 14.6472 15.1472 16.8 12.5 16.8C9.85279 16.8 7.69999 14.6472 7.69999 12C7.69999 9.3528 9.85279 7.2 12.5 7.2ZM12.5 8.8C11.6513 8.8 10.8374 9.13714 10.2373 9.73726C9.63714 10.3374 9.29999 11.1513 9.29999 12C9.29999 12.8487 9.63714 13.6626 10.2373 14.2627C10.8374 14.8629 11.6513 15.2 12.5 15.2C13.3487 15.2 14.1626 14.8629 14.7627 14.2627C15.3629 13.6626 15.7 12.8487 15.7 12C15.7 11.1513 15.3629 10.3374 14.7627 9.73726C14.1626 9.13714 13.3487 8.8 12.5 8.8Z"/>
</svg>
