<svg width="77" height="90" viewBox="0 0 77 90" fill="none" xmlns="http://www.w3.org/2000/svg">
  <path
    d="M32.6104 75.9342C50.2912 75.9342 64.6244 61.601 64.6244 43.9202C64.6244 26.2394 50.2912 11.9062 32.6104 11.9062C14.9296 11.9062 0.596405 26.2394 0.596405 43.9202C0.596405 61.601 14.9296 75.9342 32.6104 75.9342Z"
    fill="#1A1A1A" />
  <path
    d="M22.4736 27.0996H17.9597V61.8266H22.4742L22.4664 49.1285H29.1137V44.4817H22.3257L22.4736 27.0996Z"
    fill="#F5F5F5" />
  <path d="M23.3034 55.1388H23.3048L23.3034 55.1359V55.1388Z" fill="#F5F5F5" />
  <path
    d="M43.0385 27.0996L42.9062 44.4829H41.401C41.5495 44.0769 41.6249 43.6189 41.6249 43.1094C41.6249 41.9155 41.2279 40.9958 40.4454 40.3755C39.8406 39.8965 39.0755 39.5331 38.1636 39.2906C39.1305 38.9727 39.8556 38.5362 40.325 37.9883C40.9028 37.3135 41.1962 36.4286 41.1962 35.3575C41.1962 34.2863 40.7208 33.296 39.7832 32.5464C38.8815 31.8255 37.7558 31.2914 36.4368 30.9585C35.4495 30.7184 34.6633 30.4418 34.1011 30.1352C33.5766 29.8502 33.2431 29.5137 33.1096 29.1359L33.0491 28.9641H27.0719V29.2216C27.0719 30.7022 27.5622 31.8261 28.5286 32.5619C29.4573 33.2696 30.6553 33.79 32.0959 34.1097C33.1204 34.3121 33.9143 34.5563 34.455 34.8354C34.9322 35.082 35.1639 35.4245 35.1639 35.8826C35.1639 36.231 35.0208 36.5112 34.7268 36.7412C34.4172 36.983 33.9167 37.1052 33.2377 37.1052H30.2506V41.6125H33.2377C33.9891 41.6125 34.5885 41.7526 35.019 42.0292C35.4183 42.2861 35.6123 42.6394 35.6123 43.1082C35.6123 44.0751 34.8136 44.4799 33.2377 44.4799H30.2506V49.1267H32.4384C33.7 49.1267 34.5687 49.2902 35.1729 49.8249C35.8099 50.3895 36.1195 51.0972 36.1195 51.9887C36.1195 52.9713 35.7973 53.7299 35.1351 54.307C34.4717 54.8854 33.9844 55.1782 32.7156 55.1782C31.8983 55.1782 31.1697 55.0351 30.5506 54.7537C30.4997 54.7304 30.4476 54.7034 30.3943 54.6723C29.5986 54.2112 29.1256 53.3449 29.1226 52.4264L29.1142 50.0949H23.3034C23.3034 50.0949 23.3034 52.8 23.304 54.2466C23.304 54.9453 23.4896 55.6351 23.8632 56.2254C23.8656 56.229 23.8674 56.2326 23.8698 56.2356C24.6284 57.4301 25.766 58.3605 27.2509 59.0024C28.7196 59.6364 30.5182 59.9586 32.5983 59.9586C34.6783 59.9586 35.9045 59.6712 37.4223 59.1048C38.9557 58.5324 40.1646 57.6851 41.016 56.5865C41.8734 55.4806 42.3081 54.1364 42.3081 52.5922C42.3081 51.2307 42.0135 50.0745 41.4285 49.1279H43.0481L43.0385 61.8243H47.6572V27.0996H43.0385Z"
    fill="#F5F5F5" />
  <path
    d="M14.9745 5.52835L14.3391 5.83274C14.214 5.66798 14.0713 5.53893 13.9111 5.44558C13.7526 5.35141 13.5842 5.28927 13.406 5.25915C13.2287 5.2265 13.0483 5.22472 12.8648 5.25381C12.6813 5.28291 12.5025 5.33918 12.3282 5.42264C12.0105 5.57484 11.7612 5.79299 11.5802 6.07711C11.4009 6.3604 11.3101 6.69475 11.3078 7.08015C11.3073 7.46473 11.4158 7.88419 11.6335 8.33854C11.8511 8.79288 12.11 9.14034 12.41 9.38091C12.7118 9.62066 13.0292 9.75944 13.3624 9.79726C13.6972 9.83426 14.0235 9.77666 14.3412 9.62447C14.5154 9.54101 14.6713 9.4369 14.809 9.31216C14.9466 9.18742 15.0587 9.04658 15.1452 8.88963C15.2326 8.73015 15.2893 8.55915 15.3152 8.37661C15.3421 8.19154 15.3309 7.99948 15.2818 7.80043L15.9172 7.49604C15.9978 7.78711 16.0257 8.06882 16.0007 8.34118C15.9758 8.61353 15.905 8.869 15.7883 9.10761C15.6708 9.34452 15.5134 9.55745 15.3162 9.74641C15.1208 9.93456 14.8907 10.092 14.6259 10.2189C14.1784 10.4333 13.728 10.5146 13.2749 10.4629C12.8217 10.4112 12.3986 10.2316 12.0057 9.92428C11.6127 9.61691 11.2837 9.18652 11.0186 8.63311C10.7535 8.0797 10.6243 7.55357 10.631 7.05474C10.6377 6.5559 10.763 6.1137 11.0067 5.72815C11.2504 5.34259 11.596 5.04262 12.0435 4.82824C12.3082 4.70141 12.5752 4.62078 12.8443 4.58636C13.1151 4.55113 13.3801 4.5628 13.6391 4.6214C13.8974 4.67828 14.1405 4.78235 14.3683 4.9336C14.5954 5.08314 14.7974 5.28139 14.9745 5.52835Z"
    fill="#1A1A1A" />
  <path
    d="M22.2327 4.27623C22.4035 4.86561 22.4447 5.40579 22.3563 5.89678C22.2679 6.38777 22.0719 6.80346 21.7683 7.14385C21.4647 7.48425 21.0746 7.72351 20.598 7.86164C20.1214 7.99977 19.6638 8.00619 19.2252 7.8809C18.7866 7.75561 18.3987 7.50916 18.0615 7.14154C17.7242 6.77392 17.4702 6.29542 17.2993 5.70604C17.1285 5.11666 17.0873 4.57648 17.1757 4.08549C17.2641 3.5945 17.4601 3.17881 17.7637 2.83842C18.0674 2.49802 18.4575 2.25876 18.9341 2.12063C19.4107 1.9825 19.8682 1.97608 20.3068 2.10137C20.7454 2.22666 21.1333 2.47311 21.4706 2.84073C21.8078 3.20835 22.0619 3.68684 22.2327 4.27623ZM21.5778 4.46602C21.4376 3.98215 21.2383 3.59723 20.9799 3.31126C20.7233 3.02476 20.4329 2.83582 20.1087 2.74444C19.7863 2.65253 19.4559 2.65561 19.1175 2.75367C18.7792 2.85173 18.4974 3.02606 18.2723 3.27667C18.049 3.52674 17.9047 3.84169 17.8392 4.2215C17.7756 4.60079 17.814 5.03237 17.9542 5.51624C18.0944 6.00012 18.2928 6.38531 18.5494 6.6718C18.8078 6.95777 19.0982 7.14671 19.4206 7.23862C19.7448 7.33 20.0761 7.32666 20.4145 7.2286C20.7528 7.13054 21.0337 6.95647 21.257 6.70639C21.4821 6.45579 21.6264 6.14084 21.69 5.76156C21.7555 5.38174 21.7181 4.9499 21.5778 4.46602Z"
    fill="#1A1A1A" />
  <path
    d="M24.7655 6.73264L23.982 0.967454L27.4389 0.49765L27.523 1.11696L24.7643 1.49188L25.029 3.43989L27.5288 3.10016L27.6129 3.71946L25.1132 4.05919L25.4636 6.63776L24.7655 6.73264Z"
    fill="#1A1A1A" />
  <path
    d="M29.3636 6.17303L29.269 0.355616L32.7571 0.298843L32.7673 0.92376L29.9836 0.969068L30.0156 2.93472L32.538 2.89367L32.5481 3.51858L30.0257 3.55964L30.0681 6.16157L29.3636 6.17303Z"
    fill="#1A1A1A" />
  <path
    d="M33.999 6.13526L34.6709 0.356003L38.1588 0.76152L38.0866 1.38234L35.2986 1.05819L35.0716 3.01095L37.679 3.3141L37.6068 3.93492L34.9994 3.63176L34.771 5.59581L37.6042 5.92521L37.532 6.54603L33.999 6.13526Z"
    fill="#1A1A1A" />
  <path
    d="M39.53 6.85101L41.0126 1.22487L44.408 2.11959L44.2488 2.72396L41.5346 2.00876L41.0337 3.90978L43.572 4.57865L43.4128 5.18302L40.8744 4.51415L40.3706 6.42616L43.1287 7.15294L42.9695 7.75731L39.53 6.85101Z"
    fill="#1A1A1A" />
  <path
    d="M49.3765 9.13019C49.1709 9.02885 49.0079 8.8862 48.8875 8.70222C48.7678 8.51655 48.6989 8.31365 48.6808 8.09353C48.6643 7.87425 48.7067 7.66184 48.8081 7.45629C48.9102 7.24905 49.0529 7.08605 49.236 6.96729C49.4217 6.84767 49.6242 6.77963 49.8435 6.76315C50.0636 6.74498 50.2764 6.78656 50.482 6.8879C50.6892 6.99008 50.8518 7.13358 50.9697 7.31841C51.0902 7.50239 51.1586 7.70402 51.1751 7.9233C51.1941 8.14172 51.1525 8.35455 51.0503 8.5618C50.949 8.76734 50.8055 8.92992 50.6198 9.04954C50.4359 9.17 50.2338 9.23931 50.0137 9.25749C49.7961 9.2748 49.5837 9.23237 49.3765 9.13019Z"
    fill="#1A1A1A" />
  <path
    d="M53.9934 12.9793L57.5679 8.38872L59.1728 9.63841C59.4926 9.88742 59.7133 10.1481 59.8349 10.4204C59.9577 10.6912 59.9978 10.9589 59.9551 11.2233C59.9136 11.4862 59.8056 11.7297 59.631 11.9539C59.4774 12.1512 59.3155 12.2867 59.1452 12.3605C58.9764 12.4355 58.8061 12.4661 58.6343 12.4524C58.4641 12.4399 58.2992 12.4003 58.1398 12.3338L58.1049 12.3786C58.2384 12.497 58.3412 12.6562 58.4134 12.8564C58.4855 13.0566 58.5042 13.2777 58.4696 13.5195C58.4349 13.7613 58.3233 14.0033 58.1348 14.2454C57.9556 14.4755 57.7421 14.6418 57.4944 14.7441C57.2467 14.8465 56.9681 14.8636 56.6587 14.7955C56.3493 14.7274 56.0137 14.5525 55.6521 14.2709L53.9934 12.9793ZM54.9333 12.9191L56.0361 13.7778C56.3992 14.0605 56.7117 14.191 56.9735 14.1692C57.2379 14.1471 57.4487 14.0352 57.6058 13.8335C57.7268 13.6781 57.7989 13.5038 57.8221 13.3106C57.8465 13.1159 57.8162 12.922 57.7315 12.7287C57.6479 12.534 57.5059 12.3587 57.3057 12.2028L56.176 11.3231L54.9333 12.9191ZM56.553 10.8389L57.5841 11.6418C57.7514 11.7721 57.928 11.8568 58.1137 11.8958C58.3008 11.9359 58.4806 11.927 58.6529 11.8691C58.8266 11.8124 58.9764 11.7034 59.102 11.542C59.2591 11.3403 59.3221 11.1145 59.291 10.8646C59.2611 10.6133 59.0937 10.3689 58.7889 10.1315L57.7398 9.3147L56.553 10.8389Z"
    fill="#1A1A1A" />
  <path
    d="M58.3449 16.4649L62.5388 12.4322L63.9014 13.8493C64.2165 14.1769 64.4191 14.4997 64.5093 14.8176C64.6009 15.1342 64.5983 15.4362 64.5016 15.7236C64.4049 16.011 64.233 16.2735 63.9859 16.5111C63.7388 16.7488 63.4711 16.9089 63.1828 16.9917C62.8945 17.0744 62.5954 17.0639 62.2853 16.96C61.9766 16.8549 61.6661 16.6398 61.3536 16.3149L60.251 15.1681L60.7097 14.727L61.7966 15.8574C62.0119 16.0813 62.2179 16.23 62.4147 16.3035C62.6128 16.3784 62.8015 16.3888 62.9807 16.3347C63.1626 16.2807 63.3375 16.1729 63.5054 16.0115C63.6733 15.85 63.7899 15.6775 63.8551 15.4939C63.9203 15.3104 63.9208 15.1168 63.8565 14.9133C63.7935 14.7085 63.6531 14.4927 63.4352 14.2661L62.5766 13.3733L58.8332 16.9727L58.3449 16.4649ZM62.1271 16.6274L61.2355 19.4711L60.6684 18.8813L61.5757 16.054L62.1271 16.6274Z"
    fill="#1A1A1A" />
  <path
    d="M62.1524 20.5438L66.8736 17.1437L68.9257 19.993L68.4185 20.3582L66.7782 18.0806L65.183 19.2295L66.717 21.3596L66.2099 21.7249L64.6758 19.5948L63.0713 20.7503L64.7382 23.0648L64.231 23.4301L62.1524 20.5438Z"
    fill="#1A1A1A" />
  <path
    d="M65.5328 25.46L65.1933 24.8041L71.3424 24.0271L71.6767 24.673L67.4915 29.2446L67.152 28.5886L70.7026 24.7933L70.6817 24.753L65.5328 25.46ZM67.6766 24.6576L69.0451 27.3018L68.49 27.589L67.1215 24.9449L67.6766 24.6576Z"
    fill="#1A1A1A" />
  <path
    d="M67.9187 30.2364L73.4126 28.321L73.6445 28.9863L70.919 29.9365L70.9415 30.0009L74.5274 31.5186L74.8304 32.3878L71.5474 30.9449L69.3365 34.3031L69.0559 33.4984L70.9438 30.698L69.9319 30.2807L68.1506 30.9016L67.9187 30.2364Z"
    fill="#1A1A1A" />
  <path
    d="M69.6632 35.5618L75.3624 34.3909L76.0644 37.8082L75.4522 37.934L74.892 35.2068L72.9663 35.6024L73.4739 38.0736L72.8617 38.1993L72.3541 35.7282L69.805 36.2519L69.6632 35.5618Z"
    fill="#1A1A1A" />
  <path
    d="M70.5694 40.3191L70.5164 39.5824L76.4728 41.296L76.5249 42.0214L70.8749 44.5695L70.822 43.8328L75.5824 41.7474L75.5792 41.7021L70.5694 40.3191ZM72.8558 40.4281L73.0693 43.3978L72.4459 43.4426L72.2324 40.473L72.8558 40.4281Z"
    fill="#1A1A1A" />
  <path
    d="M74.9991 49.1327C75.2887 49.1194 75.5215 48.9975 75.6976 48.7672C75.8737 48.5368 75.9744 48.2459 75.9997 47.8946C76.0182 47.6376 75.9928 47.4099 75.9236 47.2112C75.8542 47.0144 75.7507 46.8569 75.613 46.7388C75.4751 46.6225 75.3136 46.5577 75.1285 46.5444C74.9736 46.5332 74.8378 46.5605 74.721 46.6261C74.606 46.6938 74.5075 46.7835 74.4254 46.8954C74.3451 47.0073 74.2768 47.1258 74.2203 47.2509C74.1657 47.3761 74.1204 47.4915 74.0843 47.5971L73.8832 48.1751C73.8326 48.3233 73.7657 48.4875 73.6825 48.6676C73.5991 48.8496 73.4909 49.0212 73.3577 49.1825C73.2263 49.3459 73.0631 49.4765 72.8681 49.5745C72.673 49.6725 72.4395 49.7117 72.1675 49.6921C71.8539 49.6695 71.5765 49.5669 71.3352 49.3844C71.0937 49.2037 70.9097 48.9512 70.783 48.6268C70.6563 48.3044 70.6089 47.9203 70.641 47.4745C70.671 47.0589 70.7639 46.7038 70.92 46.4094C71.0758 46.1168 71.28 45.8922 71.5324 45.7357C71.7847 45.5811 72.0704 45.5039 72.3894 45.504L72.3371 46.2294C72.1166 46.2325 71.93 46.2932 71.7771 46.4113C71.6261 46.5314 71.5085 46.6881 71.4243 46.8815C71.3419 47.0768 71.2923 47.2897 71.2757 47.5202C71.2564 47.7884 71.2825 48.0324 71.3541 48.2521C71.4275 48.472 71.5381 48.6499 71.6859 48.7859C71.8356 48.922 72.0162 48.9976 72.2278 49.0129C72.4205 49.0267 72.5812 48.9842 72.7098 48.8852C72.8385 48.7863 72.9469 48.6517 73.0351 48.4814C73.1233 48.3112 73.2031 48.1261 73.2745 47.9262L73.5299 47.2268C73.6929 46.7828 73.9048 46.4373 74.1657 46.1902C74.4265 45.9432 74.7525 45.8337 75.1435 45.8619C75.4684 45.8853 75.7454 45.9935 75.9746 46.1866C76.2055 46.3818 76.3772 46.6334 76.4899 46.9415C76.6043 47.2517 76.6481 47.5919 76.6214 47.9621C76.5945 48.3362 76.5035 48.6638 76.3484 48.945C76.1952 49.2264 75.9973 49.4438 75.7546 49.5973C75.5117 49.7526 75.2436 49.8244 74.9501 49.8128L74.9991 49.1327Z"
    fill="#1A1A1A" />
  <path
    d="M75.5434 51.9923L76.1541 52.125L75.2272 56.3891L74.6165 56.2563L75.0051 54.4685L69.9304 53.3654L70.0801 52.677L75.1548 53.7801L75.5434 51.9923Z"
    fill="#1A1A1A" />
  <path
    d="M68.5566 61.1199C68.6488 60.9101 68.7842 60.741 68.9627 60.6126C69.1429 60.485 69.3426 60.4072 69.5617 60.3794C69.7801 60.3533 69.9941 60.3864 70.2039 60.4786C70.4154 60.5716 70.5846 60.707 70.7112 60.8847C70.8389 61.065 70.9158 61.2643 70.9418 61.4826C70.9696 61.7017 70.9374 61.9162 70.8452 62.126C70.7522 62.3375 70.616 62.5062 70.4365 62.6321C70.258 62.7605 70.0596 62.8378 69.8412 62.8639C69.6239 62.8924 69.4094 62.8602 69.1979 62.7673C68.9881 62.675 68.8194 62.5388 68.6917 62.3586C68.5633 62.1801 68.4852 61.9812 68.4574 61.7621C68.4305 61.5455 68.4636 61.3314 68.5566 61.1199Z"
    fill="#1A1A1A" />
  <path
    d="M64.7842 66.0814L65.2115 65.4789L68.7218 70.587L68.3011 71.1803L62.3193 69.5576L62.7466 68.955L67.7475 70.3697L67.7738 70.3327L64.7842 66.0814ZM66.4804 67.6185L64.7583 70.0472L64.2484 69.6856L65.9706 67.257L66.4804 67.6185Z"
    fill="#1A1A1A" />
  <path
    d="M61.6655 70.3543L65.8849 74.3603L64.5313 75.7859C64.217 76.117 63.9004 76.3308 63.5814 76.4275C63.2624 76.5269 62.9538 76.5315 62.6554 76.4415C62.357 76.3514 62.0835 76.1884 61.8349 75.9524C61.5863 75.7163 61.4086 75.451 61.3018 75.1564C61.1937 74.8631 61.179 74.554 61.2576 74.2291C61.3377 73.9055 61.5335 73.5796 61.8452 73.2513L62.8154 72.2294L63.2686 72.6598L62.3141 73.6652C62.0989 73.8918 61.9653 74.1109 61.9131 74.3226C61.861 74.5343 61.8722 74.7343 61.9468 74.9226C62.0214 75.1136 62.1432 75.2893 62.3121 75.4497C62.4811 75.6101 62.6622 75.7219 62.8554 75.7852C63.0473 75.8499 63.2469 75.8487 63.4541 75.7817C63.6627 75.716 63.8759 75.5685 64.0937 75.3391L64.9465 74.4409L61.1804 70.8652L61.6655 70.3543Z"
    fill="#1A1A1A" />
  <path
    d="M57.7559 74.3601L61.3526 78.9334L58.5926 81.1041L58.2062 80.6128L60.4125 78.8777L59.1972 77.3324L57.1338 78.9552L56.7475 78.4639L58.8108 76.8412L57.5885 75.287L55.3465 77.0502L54.9602 76.5589L57.7559 74.3601Z"
    fill="#1A1A1A" />
  <path
    d="M53.172 77.853L56.0631 82.902L54.3571 83.8789C53.9626 84.1048 53.6003 84.2228 53.27 84.2329C52.9406 84.2447 52.6483 84.1688 52.3931 84.005C52.1378 83.8413 51.925 83.6106 51.7547 83.3132C51.5843 83.0157 51.4941 82.7171 51.484 82.4173C51.4738 82.1176 51.5568 81.83 51.733 81.5545C51.9101 81.2807 52.1943 81.0318 52.5855 80.8078L53.9661 80.0172L54.2823 80.5695L52.9214 81.3487C52.6518 81.5031 52.4575 81.6667 52.3383 81.8397C52.2175 82.0137 52.1615 82.1941 52.1703 82.3811C52.1785 82.5707 52.2405 82.7666 52.3562 82.9687C52.472 83.1709 52.6109 83.3259 52.7731 83.4338C52.9353 83.5417 53.1229 83.5893 53.336 83.5764C53.55 83.5652 53.7934 83.4814 54.0662 83.3252L55.1411 82.7097L52.5606 78.2031L53.172 77.853ZM52.0941 81.4819L49.5529 79.9253L50.2629 79.5187L52.7844 81.0867L52.0941 81.4819Z"
    fill="#1A1A1A" />
  <path
    d="M44.7921 85.0585C44.5724 84.4855 44.4861 83.9507 44.533 83.454C44.5799 82.9574 44.7403 82.5267 45.0143 82.162C45.2883 81.7974 45.657 81.5262 46.1203 81.3486C46.5837 81.171 47.0391 81.1262 47.4866 81.2143C47.9342 81.3024 48.3414 81.5154 48.7083 81.8534C49.0752 82.1915 49.3685 82.647 49.5881 83.22C49.8078 83.7929 49.8941 84.3278 49.8472 84.8244C49.8003 85.3211 49.6398 85.7518 49.3658 86.1164C49.0918 86.4811 48.7232 86.7522 48.2598 86.9299C47.7965 87.1075 47.3411 87.1522 46.8935 87.0642C46.446 86.9761 46.0388 86.7631 45.6719 86.425C45.305 86.087 45.0117 85.6315 44.7921 85.0585ZM45.4287 84.8144C45.609 85.2849 45.8399 85.6517 46.1214 85.915C46.4011 86.179 46.7063 86.3429 47.037 86.4068C47.366 86.4713 47.695 86.4405 48.0239 86.3144C48.3529 86.1883 48.619 85.991 48.8223 85.7224C49.0238 85.4545 49.1413 85.1285 49.1746 84.7446C49.2062 84.3613 49.1318 83.9344 48.9515 83.464C48.7711 82.9936 48.5411 82.6264 48.2614 82.3625C47.98 82.0992 47.6748 81.9352 47.3458 81.8707C47.015 81.8068 46.6852 81.8379 46.3562 81.964C46.0273 82.0901 45.7621 82.2871 45.5605 82.5551C45.3572 82.8237 45.2398 83.1496 45.2082 83.5329C45.1749 83.9169 45.2484 84.344 45.4287 84.8144Z"
    fill="#1A1A1A" />
  <path
    d="M42.3004 82.7638L43.5999 88.435L42.9132 88.5923L41.7532 83.5303L39.117 84.1344L38.9774 83.5252L42.3004 82.7638Z"
    fill="#1A1A1A" />
</svg>
  