<svg width="29" height="28" viewBox="0 0 29 28" fill="none" xmlns="http://www.w3.org/2000/svg">
  <path d="M8.46709 8.94028C7.87436 8.94028 7.39523 9.41941 7.39523 10.0121V17.4608C7.39523 18.0585 7.87929 18.5426 8.47697 18.5426C9.07464 18.5426 9.55871 18.0585 9.55871 17.4608V16.7446C9.55871 16.3396 9.88471 16.0136 10.2897 16.0136H11.6283C12.2408 16.0136 12.7397 15.5147 12.7397 14.9022C12.7397 14.2848 12.2408 13.7908 11.6283 13.7908H10.2354C9.83038 13.7908 9.49944 13.4599 9.50437 13.0499L9.54883 10.0319C9.55871 9.43424 9.07464 8.94523 8.47697 8.94523L8.46709 8.94028Z" fill="#010101"/>
  <path d="M19.3832 10.0362L19.3437 13.0641C19.3388 13.4642 19.0128 13.7853 18.6127 13.7853C18.6818 13.5926 18.7213 13.3704 18.7213 13.1283C18.7213 12.4171 18.42 11.9577 17.936 11.6564C17.6593 11.4835 17.6347 11.0834 17.8866 10.876C18.2719 10.5648 18.5188 10.1054 18.5188 9.41388C18.5188 8.45069 17.684 7.65543 16.2417 7.30472C14.4141 6.86017 14.8537 6.35141 14.0782 6.35141H12.4235C11.5196 6.35141 11.7271 7.49737 12.4334 8.05553C12.4433 8.06047 12.4482 8.0654 12.4581 8.07528C12.9027 8.4161 13.4756 8.66307 14.1672 8.8162C15.2736 9.06317 15.6342 9.26569 15.6342 9.66578C15.6342 10.2486 14.3647 10.2536 14.3598 10.2536C13.7621 10.2536 13.2781 10.7376 13.2781 11.3353C13.2781 11.933 13.7621 12.4171 14.3598 12.4171C14.3598 12.4171 15.8466 12.4912 15.8466 13.1333C15.8466 13.7754 14.3252 13.7902 14.3252 13.7902C12.9175 13.7902 12.9323 16.0179 14.3252 16.0179C15.7774 16.0179 16.0886 16.7341 16.0886 17.3911C16.0886 18.1221 15.6144 18.9223 14.4586 18.9223C13.693 18.9223 12.7446 18.5963 12.7397 17.6035C12.7397 16.9861 12.2358 16.4872 11.6184 16.4872C10.6997 16.4872 9.95381 17.233 9.95381 18.1518C9.95381 18.295 9.78586 21.2142 14.4043 21.2142C19.8574 21.2142 19.2252 16.991 18.6324 16.0229H18.6769C19.0819 16.0229 19.4079 16.3489 19.4079 16.7539V17.4454C19.4079 18.0579 19.9019 18.5519 20.5094 18.5519C21.117 18.5519 21.6159 18.0579 21.6159 17.4454V10.0609C21.6159 9.44846 21.117 8.94957 20.5045 8.94957C19.8969 8.94957 19.398 9.43858 19.3931 10.0461L19.3832 10.0362Z" fill="#010101"/>
  <path d="M8.85278 27.6363C6.80291 26.7867 5.65202 24.6727 5.93356 22.5685C5.10374 22.6821 4.25415 22.5684 3.46384 22.2424C2.27837 21.7534 1.35962 20.8298 0.865679 19.6443C0.371734 18.4588 0.376673 17.1548 0.865679 15.9743C1.19662 15.179 1.71527 14.5023 2.3821 13.9985C0.697742 12.7093 0.0160933 10.4026 0.865679 8.35269C1.71527 6.30281 3.82936 5.15193 5.93356 5.43348C5.81996 4.60365 5.93357 3.75407 6.25957 2.96376C6.74858 1.77829 7.67225 0.859543 8.85772 0.365598C10.9076 -0.483988 13.2143 0.19765 14.5035 1.88694C15.7927 0.202589 18.0994 -0.479049 20.1493 0.365598C22.1992 1.21518 23.3501 3.32927 23.0685 5.43348C25.1727 5.15193 27.2868 6.30281 28.1364 8.35269C28.6254 9.53816 28.6254 10.8422 28.1364 12.0227C27.8055 12.818 27.2868 13.4947 26.62 13.9985C28.3044 15.2877 28.986 17.5944 28.1364 19.6443C27.2868 21.6942 25.1727 22.8451 23.0685 22.5635C23.1821 23.3933 23.0685 24.2429 22.7425 25.0332C22.2535 26.2187 21.3298 27.1374 20.1444 27.6314C18.9589 28.1253 17.6549 28.1204 16.4744 27.6314C15.6791 27.3004 15.0024 26.7818 14.4986 26.115C13.2094 27.7993 10.9027 28.481 8.85278 27.6314V27.6363ZM7.86489 20.6371C8.40823 21.1805 7.86489 22.035 7.86489 22.035C7.22276 23.5909 7.96368 25.379 9.51467 26.0211C11.0657 26.6633 12.8587 25.9223 13.5008 24.3713C13.5008 24.3713 13.7181 23.3835 14.4936 23.3835C15.2691 23.3835 15.4865 24.3713 15.4865 24.3713C15.7977 25.1221 16.3854 25.7099 17.1362 26.0211C17.892 26.3323 18.7169 26.3323 19.4726 26.0211C20.2283 25.7099 20.8112 25.1221 21.1224 24.3713C21.4336 23.6206 21.4336 22.7907 21.1224 22.035C21.1224 22.035 20.579 21.1805 21.1224 20.6371C21.6657 20.0938 22.5202 20.6371 22.5202 20.6371C24.0762 21.2793 25.8643 20.5383 26.5064 18.9873C27.1485 17.4314 26.4076 15.6433 24.8566 15.0012C24.8566 15.0012 23.8687 14.7839 23.8687 14.0084C23.8687 13.2329 24.8566 13.0155 24.8566 13.0155C25.6074 12.7043 26.1952 12.1166 26.5064 11.3658C26.8176 10.615 26.8176 9.78514 26.5064 9.0294C25.8643 7.47348 24.0712 6.73256 22.5202 7.37963C22.5202 7.37963 21.6608 7.91803 21.1224 7.37963C20.579 6.83629 21.1224 5.98175 21.1224 5.98175C21.7645 4.42583 21.0236 2.63774 19.4726 1.99561C17.9216 1.35348 16.1286 2.0944 15.4865 3.64539C15.4865 3.64539 15.2691 4.63328 14.4936 4.63328C13.728 4.63328 13.5008 3.64539 13.5008 3.64539C12.8587 2.08946 11.0657 1.34854 9.51467 1.99561C8.75893 2.3068 8.17608 2.89459 7.86489 3.64539C7.55371 4.39618 7.55371 5.22602 7.86489 5.98175C7.86489 5.98175 8.40823 6.83629 7.86489 7.37963C7.32155 7.92297 6.46703 7.37963 6.46703 7.37963C4.9111 6.7375 3.12301 7.47842 2.48088 9.0294C1.83875 10.5804 2.57967 12.3734 4.13066 13.0155C4.13066 13.0155 5.11855 13.2329 5.11855 14.0084C5.11855 14.769 4.13066 15.0012 4.13066 15.0012C3.37986 15.3124 2.79207 15.9002 2.48088 16.651C2.1697 17.4067 2.1697 18.2316 2.48088 18.9873C2.79207 19.7431 3.37986 20.3259 4.13066 20.6371C4.88146 20.9483 5.71129 20.9483 6.46703 20.6371C6.46703 20.6371 7.32649 20.1037 7.86489 20.6371Z" fill="#010101"/>
</svg>
