<svg width="73" height="76" viewBox="0 0 73 76" fill="none" xmlns="http://www.w3.org/2000/svg">
<path opacity="0.7" d="M35.3937 16.5495C35.065 18.3685 35.0128 20.1673 35.199 21.9035C35.2684 22.5226 34.4927 22.8394 34.1073 22.3537C31.0575 18.4974 26.4753 15.8499 21.1301 15.3949C11.7939 14.6039 3.18276 21.104 1.40142 30.2996C-0.647885 40.8925 6.66658 50.8604 17.205 52.224C22.2323 52.8745 27.0496 51.4433 30.7924 48.5967C31.2965 48.2137 31.9905 48.7206 31.7536 49.3001C30.999 51.1388 30.5285 53.1387 30.4037 55.258C29.8578 64.4329 36.3254 72.7659 45.3519 74.5066C55.9456 76.5498 65.9012 69.2338 67.264 58.7015C68.3472 50.3308 63.6631 42.5524 56.2957 39.3452C55.73 39.0977 55.837 38.2711 56.447 38.1757C64.3881 36.9494 70.8977 30.6194 71.9809 22.2487C73.3445 11.7103 65.5675 2.09348 54.7949 1.38441C45.4917 0.772069 37.0418 7.37397 35.3868 16.5548L35.3937 16.5495Z" fill="#F0CEBF" stroke="#F0CEBF" stroke-miterlimit="10"/>
</svg>
