<svg width="77" height="63" viewBox="0 0 77 63" fill="none" xmlns="http://www.w3.org/2000/svg">
<g opacity="0.7">
<path fill-rule="evenodd" clip-rule="evenodd" d="M48.5456 11.3365C68.2744 21.9763 79.6682 39.5322 73.9945 50.5488C68.3207 61.5654 47.7279 61.8708 27.999 51.231C8.27021 40.5912 -3.12366 23.0353 2.5501 12.0187C8.22387 1.00212 28.8167 0.69668 48.5456 11.3365ZM47.5631 10.9574C53.9792 14.0226 55.0725 25.5439 50.005 36.6909C44.9376 47.8379 35.6283 54.3895 29.2122 51.3244C22.7961 48.2592 21.7028 36.7379 26.7702 25.5909C31.8377 14.4439 41.147 7.89222 47.5631 10.9574Z" fill="#F0CEBF"/>
<path d="M73.9945 50.5488L74.6783 50.901L74.6783 50.901L73.9945 50.5488ZM48.5456 11.3365L48.1805 12.0135L48.1805 12.0135L48.5456 11.3365ZM27.999 51.231L28.3641 50.554L28.3641 50.554L27.999 51.231ZM2.5501 12.0187L1.86631 11.6665L1.86631 11.6665L2.5501 12.0187ZM50.005 36.6909L49.3048 36.3726L49.3048 36.3726L50.005 36.6909ZM47.5631 10.9574L47.8946 10.2634L47.8946 10.2634L47.5631 10.9574ZM74.6783 50.901C77.6999 45.0339 76.1111 37.5782 71.4412 30.3826C66.7537 23.16 58.8677 16.0293 48.9107 10.6595L48.1805 12.0135C57.9523 17.2834 65.6276 24.2506 70.1508 31.2201C74.6915 38.2165 75.9628 45.0471 73.3107 50.1966L74.6783 50.901ZM27.6339 51.908C37.5905 57.2776 47.7997 59.9059 56.2788 59.7801C64.7289 59.6548 71.6525 56.7761 74.6783 50.901L73.3107 50.1966C70.6627 55.3381 64.453 58.1204 56.256 58.242C48.0881 58.3631 38.1364 55.8242 28.3641 50.554L27.6339 51.908ZM1.86631 11.6665C-1.15534 17.5336 0.433441 24.9893 5.10341 32.1849C9.7909 39.4075 17.6769 46.5382 27.6339 51.908L28.3641 50.554C18.5923 45.2841 10.917 38.3169 6.39379 31.3474C1.85305 24.3509 0.581778 17.5204 3.2339 12.3709L1.86631 11.6665ZM48.9107 10.6595C38.9541 5.28992 28.7449 2.66161 20.2658 2.78737C11.8157 2.91271 4.89212 5.79139 1.86631 11.6665L3.2339 12.3709C5.88185 7.22942 12.0916 4.4471 20.2886 4.32552C28.4565 4.20437 38.4082 6.74323 48.1805 12.0135L48.9107 10.6595ZM50.7052 37.0092C53.285 31.3343 54.3127 25.5327 53.8561 20.7208C53.4018 15.933 51.4499 11.9618 47.8946 10.2634L47.2315 11.6514C50.0924 13.0182 51.8952 16.3402 52.3247 20.8661C52.7519 25.3679 51.7925 30.9004 49.3048 36.3726L50.7052 37.0092ZM28.8806 52.0184C32.4432 53.7204 36.6797 52.695 40.557 49.9662C44.4513 47.2255 48.1256 42.6836 50.7052 37.0092L49.3048 36.3726C46.817 41.8452 43.3029 46.1526 39.6717 48.7082C36.0235 51.2757 32.3973 51.9936 29.5437 50.6303L28.8806 52.0184ZM26.07 25.2726C23.4902 30.9475 22.4625 36.7491 22.9191 41.561C23.3735 46.3488 25.3254 50.3199 28.8806 52.0184L29.5437 50.6303C26.6829 49.2636 24.8801 45.9415 24.4506 41.4157C24.0234 36.9139 24.9828 31.3813 27.4704 25.9092L26.07 25.2726ZM47.8946 10.2634C44.332 8.56141 40.0955 9.58681 36.2182 12.3156C32.3239 15.0563 28.6496 19.5982 26.07 25.2726L27.4704 25.9092C29.9583 20.4366 33.4723 16.1291 37.1036 13.5736C40.7518 11.006 44.378 10.2882 47.2315 11.6514L47.8946 10.2634Z" fill="#F0CEBF"/>
</g>
</svg>
