<svg width="86" height="86" viewBox="0 0 86 86" fill="none" xmlns="http://www.w3.org/2000/svg">
<g opacity="0.7">
<mask id="path-1-inside-1_196_12452" fill="white">
<path fill-rule="evenodd" clip-rule="evenodd" d="M26.9422 78.947C26.2107 81.6999 27.8494 84.5245 30.6023 85.256C33.3552 85.9875 36.1798 84.3489 36.9113 81.596L43.0846 58.3636C43.2148 57.8736 43.6433 57.5238 44.1459 57.4572C44.6472 57.3908 45.1467 57.6164 45.4004 58.0538L56.9208 77.9121C58.35 80.3758 61.5059 81.2143 63.9695 79.7851C66.4332 78.3558 67.2717 75.2 65.8425 72.7363L54.3044 52.8476C54.062 52.4297 54.1118 51.9082 54.4058 51.5248C54.698 51.1436 55.1869 50.9568 55.6515 51.0786L78.9886 57.196C81.744 57.9182 84.5631 56.2701 85.2853 53.5148C86.0076 50.7595 84.3595 47.9403 81.6042 47.2181L58.4998 41.1617C57.9308 41.0125 57.5245 40.5156 57.4414 39.9333C57.3572 39.3435 57.617 38.7513 58.1323 38.4523L78.0189 26.9155C80.4826 25.4862 81.3212 22.3304 79.8919 19.8668C78.4627 17.4031 75.3069 16.5645 72.8432 17.9938L52.5092 29.7901C52.1529 29.9969 51.7086 29.9593 51.3786 29.7127C51.042 29.4612 50.8783 29.033 50.9862 28.6269L56.7786 6.82781C57.5101 4.07492 55.8715 1.25027 53.1186 0.518775C50.3657 -0.212721 47.541 1.42594 46.8095 4.17883L41.0311 25.9254C40.909 26.3846 40.5092 26.7138 40.0384 26.7778C39.5657 26.8421 39.0944 26.6292 38.855 26.2166L27.0217 5.81896C25.5925 3.35529 22.4367 2.51673 19.973 3.94598C17.5094 5.37522 16.6708 8.53104 18.1 10.9947L29.8897 31.3172C30.156 31.7761 30.1012 32.3483 29.7807 32.7712C29.4589 33.1959 28.917 33.4071 28.4015 33.272L6.76978 27.6016C4.01445 26.8794 1.19531 28.5275 0.473056 31.2828C-0.249203 34.0381 1.39892 36.8573 4.15425 37.5795L26.1231 43.3383C26.4715 43.4296 26.723 43.731 26.769 44.0882C26.8146 44.4412 26.6519 44.7907 26.344 44.9693L5.9258 56.8145C3.46214 58.2438 2.62358 61.3996 4.05282 63.8633C5.48206 66.3269 8.63788 67.1655 11.1015 65.7362L31.0274 54.1767C31.5216 53.89 32.1386 53.9556 32.5885 54.3076C33.0292 54.6524 33.2464 55.2222 33.1027 55.7629L26.9422 78.947Z"/>
</mask>
<path fill-rule="evenodd" clip-rule="evenodd" d="M26.9422 78.947C26.2107 81.6999 27.8494 84.5245 30.6023 85.256C33.3552 85.9875 36.1798 84.3489 36.9113 81.596L43.0846 58.3636C43.2148 57.8736 43.6433 57.5238 44.1459 57.4572C44.6472 57.3908 45.1467 57.6164 45.4004 58.0538L56.9208 77.9121C58.35 80.3758 61.5059 81.2143 63.9695 79.7851C66.4332 78.3558 67.2717 75.2 65.8425 72.7363L54.3044 52.8476C54.062 52.4297 54.1118 51.9082 54.4058 51.5248C54.698 51.1436 55.1869 50.9568 55.6515 51.0786L78.9886 57.196C81.744 57.9182 84.5631 56.2701 85.2853 53.5148C86.0076 50.7595 84.3595 47.9403 81.6042 47.2181L58.4998 41.1617C57.9308 41.0125 57.5245 40.5156 57.4414 39.9333C57.3572 39.3435 57.617 38.7513 58.1323 38.4523L78.0189 26.9155C80.4826 25.4862 81.3212 22.3304 79.8919 19.8668C78.4627 17.4031 75.3069 16.5645 72.8432 17.9938L52.5092 29.7901C52.1529 29.9969 51.7086 29.9593 51.3786 29.7127C51.042 29.4612 50.8783 29.033 50.9862 28.6269L56.7786 6.82781C57.5101 4.07492 55.8715 1.25027 53.1186 0.518775C50.3657 -0.212721 47.541 1.42594 46.8095 4.17883L41.0311 25.9254C40.909 26.3846 40.5092 26.7138 40.0384 26.7778C39.5657 26.8421 39.0944 26.6292 38.855 26.2166L27.0217 5.81896C25.5925 3.35529 22.4367 2.51673 19.973 3.94598C17.5094 5.37522 16.6708 8.53104 18.1 10.9947L29.8897 31.3172C30.156 31.7761 30.1012 32.3483 29.7807 32.7712C29.4589 33.1959 28.917 33.4071 28.4015 33.272L6.76978 27.6016C4.01445 26.8794 1.19531 28.5275 0.473056 31.2828C-0.249203 34.0381 1.39892 36.8573 4.15425 37.5795L26.1231 43.3383C26.4715 43.4296 26.723 43.731 26.769 44.0882C26.8146 44.4412 26.6519 44.7907 26.344 44.9693L5.9258 56.8145C3.46214 58.2438 2.62358 61.3996 4.05282 63.8633C5.48206 66.3269 8.63788 67.1655 11.1015 65.7362L31.0274 54.1767C31.5216 53.89 32.1386 53.9556 32.5885 54.3076C33.0292 54.6524 33.2464 55.2222 33.1027 55.7629L26.9422 78.947Z" fill="#F0CDBE"/>
<path d="M56.9208 77.9121L58.4079 77.0494L56.9208 77.9121ZM63.9695 79.7851L63.1068 78.298L63.9695 79.7851ZM65.8425 72.7363L64.3554 73.599L65.8425 72.7363ZM78.9886 57.196L79.4245 55.533L78.9886 57.196ZM85.2853 53.5148L83.6224 53.0789L85.2853 53.5148ZM81.6042 47.2181L82.0401 45.5551L81.6042 47.2181ZM78.0189 26.9155L78.8816 28.4025L78.0189 26.9155ZM79.8919 19.8668L81.379 19.0041L81.379 19.0041L79.8919 19.8668ZM72.8432 17.9938L71.9805 16.5067L71.9805 16.5067L72.8432 17.9938ZM53.1186 0.518775L53.5601 -1.14274L53.1186 0.518775ZM46.8095 4.17883L45.148 3.73734L46.8095 4.17883ZM27.0217 5.81896L25.5347 6.68164L27.0217 5.81896ZM18.1 10.9947L19.5871 10.132L18.1 10.9947ZM6.76978 27.6016L6.33386 29.2646L6.33386 29.2646L6.76978 27.6016ZM0.473056 31.2828L-1.18993 30.8469L0.473056 31.2828ZM4.15425 37.5795L3.71833 39.2425L3.71833 39.2425L4.15425 37.5795ZM5.9258 56.8145L6.78848 58.3016L6.78848 58.3016L5.9258 56.8145ZM4.05282 63.8633L5.53987 63.0006L5.53987 63.0006L4.05282 63.8633ZM11.1015 65.7362L10.2389 64.2492L10.2389 64.2492L11.1015 65.7362ZM31.0274 54.1767L30.1647 52.6896L31.0274 54.1767ZM26.344 44.9693L27.2067 46.4564L26.344 44.9693ZM26.1231 43.3383L26.5591 41.6753L26.1231 43.3383ZM28.4015 33.272L27.9656 34.935L28.4015 33.272ZM29.8897 31.3172L31.3768 30.4546L29.8897 31.3172ZM41.0311 25.9254L39.3695 25.4839L41.0311 25.9254ZM52.5092 29.7901L53.3719 31.2772L52.5092 29.7901ZM55.6515 51.0786L56.0874 49.4156L55.6515 51.0786ZM45.4004 58.0538L46.8875 57.1911L45.4004 58.0538ZM38.855 26.2166L37.368 27.0793L38.855 26.2166ZM58.4998 41.1617L58.9357 39.4987L58.4998 41.1617ZM54.3044 52.8476L52.8174 53.7102L54.3044 52.8476ZM58.1323 38.4523L57.2696 36.9653L58.1323 38.4523ZM31.0438 83.5945C29.2085 83.1069 28.1161 81.2238 28.6037 79.3885L25.2807 78.5055C24.3054 82.176 26.4903 85.9422 30.1608 86.9175L31.0438 83.5945ZM35.2498 81.1545C34.7621 82.9897 32.879 84.0822 31.0438 83.5945L30.1608 86.9175C33.8313 87.8929 37.5975 85.708 38.5728 82.0375L35.2498 81.1545ZM41.4231 57.9221L35.2498 81.1545L38.5728 82.0375L44.7461 58.8051L41.4231 57.9221ZM58.4079 77.0494L46.8875 57.1911L43.9134 58.9165L55.4337 78.7748L58.4079 77.0494ZM63.1068 78.298C61.4645 79.2508 59.3606 78.6918 58.4079 77.0494L55.4337 78.7748C57.3394 82.0597 61.5473 83.1778 64.8322 81.2721L63.1068 78.298ZM64.3554 73.599C65.3082 75.2414 64.7492 77.3452 63.1068 78.298L64.8322 81.2721C68.1171 79.3664 69.2352 75.1586 67.3296 71.8737L64.3554 73.599ZM52.8174 53.7102L64.3554 73.599L67.3296 71.8737L55.7915 51.9849L52.8174 53.7102ZM79.4245 55.533L56.0874 49.4156L55.2156 52.7416L78.5527 58.859L79.4245 55.533ZM83.6224 53.0789C83.1409 54.9158 81.2614 56.0145 79.4245 55.533L78.5527 58.859C82.2265 59.822 85.9853 57.6245 86.9483 53.9507L83.6224 53.0789ZM81.1682 48.8811C83.0051 49.3626 84.1039 51.242 83.6224 53.0789L86.9483 53.9507C87.9113 50.2769 85.7138 46.5181 82.0401 45.5551L81.1682 48.8811ZM58.0639 42.8247L81.1682 48.8811L82.0401 45.5551L58.9357 39.4987L58.0639 42.8247ZM77.1563 25.4284L57.2696 36.9653L58.995 39.9394L78.8816 28.4025L77.1563 25.4284ZM78.4049 20.7295C79.3577 22.3718 78.7986 24.4756 77.1563 25.4284L78.8816 28.4025C82.1666 26.4969 83.2847 22.289 81.379 19.0041L78.4049 20.7295ZM73.7059 19.4808C75.3483 18.528 77.4521 19.0871 78.4049 20.7295L81.379 19.0041C79.4733 15.7191 75.2654 14.601 71.9805 16.5067L73.7059 19.4808ZM53.3719 31.2772L73.7059 19.4808L71.9805 16.5067L51.6465 28.3031L53.3719 31.2772ZM55.1171 6.38631L49.3247 28.1854L52.6477 29.0683L58.4401 7.2693L55.1171 6.38631ZM52.6771 2.18029C54.5123 2.66795 55.6048 4.55105 55.1171 6.38631L58.4401 7.2693C59.4155 3.59879 57.2306 -0.167414 53.5601 -1.14274L52.6771 2.18029ZM48.4711 4.62033C48.9587 2.78507 50.8418 1.69263 52.6771 2.18029L53.5601 -1.14274C49.8896 -2.11807 46.1234 0.0668155 45.148 3.73734L48.4711 4.62033ZM42.6926 26.3669L48.4711 4.62033L45.148 3.73734L39.3695 25.4839L42.6926 26.3669ZM25.5347 6.68164L37.368 27.0793L40.3421 25.3539L28.5088 4.95627L25.5347 6.68164ZM20.8357 5.43303C22.4781 4.48023 24.5819 5.03926 25.5347 6.68164L28.5088 4.95627C26.6031 1.67133 22.3953 0.553234 19.1103 2.45892L20.8357 5.43303ZM19.5871 10.132C18.6343 8.48963 19.1933 6.38582 20.8357 5.43303L19.1103 2.45892C15.8254 4.36461 14.7073 8.57244 16.613 11.8574L19.5871 10.132ZM31.3768 30.4546L19.5871 10.132L16.613 11.8574L28.4027 32.1799L31.3768 30.4546ZM6.33386 29.2646L27.9656 34.935L28.8374 31.609L7.2057 25.9386L6.33386 29.2646ZM2.13604 31.7187C2.61755 29.8818 4.49697 28.7831 6.33386 29.2646L7.2057 25.9386C3.53193 24.9756 -0.226919 27.1731 -1.18993 30.8469L2.13604 31.7187ZM4.59017 35.9165C2.75329 35.435 1.65454 33.5556 2.13604 31.7187L-1.18993 30.8469C-2.15294 34.5206 0.0445597 38.2795 3.71833 39.2425L4.59017 35.9165ZM26.5591 41.6753L4.59017 35.9165L3.71833 39.2425L25.6872 45.0013L26.5591 41.6753ZM6.78848 58.3016L27.2067 46.4564L25.4813 43.4823L5.06312 55.3275L6.78848 58.3016ZM5.53987 63.0006C4.58708 61.3582 5.1461 59.2544 6.78848 58.3016L5.06312 55.3275C1.77818 57.2332 0.660077 61.441 2.56577 64.7259L5.53987 63.0006ZM10.2389 64.2492C8.59648 65.202 6.49267 64.643 5.53987 63.0006L2.56577 64.7259C4.47145 68.0109 8.67929 69.129 11.9642 67.2233L10.2389 64.2492ZM30.1647 52.6896L10.2389 64.2492L11.9642 67.2233L31.8901 55.6637L30.1647 52.6896ZM28.6037 79.3885L34.7642 56.2044L31.4411 55.3214L25.2807 78.5055L28.6037 79.3885ZM31.5291 55.6616C31.4784 55.6219 31.3922 55.5057 31.4411 55.3214L34.7642 56.2044C35.1005 54.9387 34.5799 53.6829 33.6479 52.9536L31.5291 55.6616ZM31.8901 55.6637C31.7273 55.7581 31.5863 55.7063 31.5291 55.6616L33.6479 52.9536C32.6908 52.2049 31.3158 52.0218 30.1647 52.6896L31.8901 55.6637ZM25.064 44.3081C25.0255 44.01 25.1599 43.6688 25.4813 43.4823L27.2067 46.4564C28.1439 45.9127 28.6036 44.8724 28.4741 43.8683L25.064 44.3081ZM25.6872 45.0013C25.3189 44.9047 25.1022 44.6045 25.064 44.3081L28.4741 43.8683C28.3437 42.8576 27.6242 41.9545 26.5591 41.6753L25.6872 45.0013ZM28.4105 31.7328C28.4717 31.6522 28.6224 31.5526 28.8374 31.609L27.9656 34.935C29.2117 35.2616 30.446 34.7397 31.1509 33.8095L28.4105 31.7328ZM28.4027 32.1799C28.295 31.9942 28.345 31.8193 28.4105 31.7328L31.1509 33.8095C31.8573 32.8774 32.017 31.558 31.3768 30.4546L28.4027 32.1799ZM39.3695 25.4839C39.4394 25.2212 39.644 25.0965 39.8066 25.0743L40.2702 28.4813C41.3744 28.331 42.3787 27.5481 42.6926 26.3669L39.3695 25.4839ZM51.6465 28.3031C51.9209 28.1439 52.2192 28.1947 52.4076 28.3355L50.3496 31.0899C51.198 31.7238 52.3848 31.8498 53.3719 31.2772L51.6465 28.3031ZM55.7701 52.5708C55.6748 52.6952 55.4723 52.8089 55.2156 52.7416L56.0874 49.4156C54.9014 49.1047 53.7212 49.592 53.0414 50.4788L55.7701 52.5708ZM44.3717 59.1615C44.2353 59.1796 44.0332 59.1231 43.9134 58.9165L46.8875 57.1911C46.2602 56.1098 45.0591 55.6021 43.9202 55.753L44.3717 59.1615ZM39.8066 25.0743C39.9763 25.0513 40.2081 25.123 40.3421 25.3539L37.368 27.0793C37.9807 28.1354 39.1552 28.633 40.2702 28.4813L39.8066 25.0743ZM58.9357 39.4987C59.0132 39.519 59.0682 39.5611 59.099 39.5973C59.1276 39.6311 59.1395 39.6634 59.1433 39.6903L55.7395 40.1763C55.9108 41.3763 56.7622 42.4835 58.0639 42.8247L58.9357 39.4987ZM52.4076 28.3355C52.5946 28.4752 52.7322 28.7502 52.6477 29.0683L49.3247 28.1854C49.0244 29.3157 49.4894 30.4472 50.3496 31.0899L52.4076 28.3355ZM55.7915 51.9849C55.9225 52.2108 55.87 52.4405 55.7701 52.5708L53.0414 50.4788C52.3537 51.3759 52.2015 52.6486 52.8174 53.7102L55.7915 51.9849ZM59.1433 39.6903C59.1495 39.734 59.137 39.857 58.995 39.9394L57.2696 36.9653C56.0969 37.6456 55.5649 38.9531 55.7395 40.1763L59.1433 39.6903ZM44.7461 58.8051C44.683 59.0427 44.5011 59.1444 44.3717 59.1615L43.9202 55.753C42.7855 55.9033 41.7466 56.7044 41.4231 57.9221L44.7461 58.8051Z" fill="#F0CDBE" mask="url(#path-1-inside-1_196_12452)"/>
</g>
</svg>
