<svg width="261" height="164" viewBox="0 0 261 164" fill="none" xmlns="http://www.w3.org/2000/svg">
  <g clip-path="url(#clip0_126_17)">
    <path
      d="M72.0001 19.5089C72.0001 14.3185 76.2078 10.1108 81.3982 10.1108H180.078C185.268 10.1108 189.476 14.3185 189.476 19.5089V154.734H72.0001V19.5089Z"
      fill="#F5F5F5" />
    <g clip-path="url(#clip1_126_17)">
      <path
        d="M72.0001 25.1477C72.0001 19.6113 76.4883 15.1231 82.0247 15.1231H179.451C184.988 15.1231 189.476 19.6113 189.476 25.1477V154.734H72.0001V25.1477Z"
        fill="#F5F5F5" />
      <rect x="77.0125" y="25.1477" width="15.6634" height="11.2777" rx="5.63883" fill="#E6E6E6" />
      <rect x="95.1819" y="25.1477" width="19.7359" height="11.2777" rx="5.63883" fill="#BDBDBD" />
      <rect x="117.424" y="25.1477" width="23.4951" height="11.2777" rx="5.63883" fill="#E6E6E6" />
      <rect x="143.425" y="25.1477" width="16.9165" height="11.2777" rx="5.63883" fill="#E6E6E6" />
      <rect x="162.848" y="25.1477" width="22.8686" height="11.2777" rx="5.63883" fill="#E6E6E6" />
      <rect x="188.223" y="25.1477" width="44.4841" height="11.2777" rx="5.63883" fill="#E6E6E6" />
      <path
        d="M77.4085 59.9684V55.4118H78.3719V57.2919H80.3276V55.4118H81.2887V59.9684H80.3276V58.0862H78.3719V59.9684H77.4085ZM86.2703 57.6901C86.2703 58.187 86.1761 58.6098 85.9878 58.9583C85.8009 59.3069 85.5458 59.5732 85.2224 59.7571C84.9005 59.9395 84.5386 60.0307 84.1366 60.0307C83.7317 60.0307 83.3683 59.9388 83.0464 59.7549C82.7246 59.5709 82.4702 59.3047 82.2833 58.9561C82.0964 58.6075 82.0029 58.1855 82.0029 57.6901C82.0029 57.1932 82.0964 56.7705 82.2833 56.4219C82.4702 56.0734 82.7246 55.8078 83.0464 55.6254C83.3683 55.4415 83.7317 55.3495 84.1366 55.3495C84.5386 55.3495 84.9005 55.4415 85.2224 55.6254C85.5458 55.8078 85.8009 56.0734 85.9878 56.4219C86.1761 56.7705 86.2703 57.1932 86.2703 57.6901ZM85.2936 57.6901C85.2936 57.3683 85.2454 57.0968 85.149 56.8758C85.054 56.6548 84.9198 56.4872 84.7463 56.373C84.5727 56.2588 84.3695 56.2017 84.1366 56.2017C83.9038 56.2017 83.7006 56.2588 83.527 56.373C83.3535 56.4872 83.2185 56.6548 83.1221 56.8758C83.0271 57.0968 82.9797 57.3683 82.9797 57.6901C82.9797 58.012 83.0271 58.2834 83.1221 58.5044C83.2185 58.7255 83.3535 58.8931 83.527 59.0073C83.7006 59.1215 83.9038 59.1786 84.1366 59.1786C84.3695 59.1786 84.5727 59.1215 84.7463 59.0073C84.9198 58.8931 85.054 58.7255 85.149 58.5044C85.2454 58.2834 85.2936 58.012 85.2936 57.6901ZM86.984 59.9684V55.4118H87.9474V57.4209H88.0074L89.6472 55.4118H90.8019L89.111 57.4521L90.822 59.9684H89.6695L88.4213 58.0951L87.9474 58.6735V59.9684H86.984ZM91.3037 59.9684V55.4118H92.267V57.4209H92.3271L93.9669 55.4118H95.1216L93.4307 57.4521L95.1416 59.9684H93.9891L92.741 58.0951L92.267 58.6735V59.9684H91.3037ZM96.4087 59.9684H95.3764L96.9494 55.4118H98.1909L99.7617 59.9684H98.7293L97.5879 56.4531H97.5523L96.4087 59.9684ZM96.3442 58.1774H98.7827V58.9294H96.3442V58.1774ZM101.274 55.4118V59.9684H100.31V55.4118H101.274ZM103.681 59.9684H102.066V55.4118H103.695C104.153 55.4118 104.548 55.503 104.878 55.6855C105.209 55.8664 105.464 56.1268 105.642 56.4664C105.821 56.8061 105.911 57.2125 105.911 57.6857C105.911 58.1603 105.821 58.5682 105.642 58.9094C105.464 59.2505 105.208 59.5123 104.874 59.6948C104.542 59.8772 104.144 59.9684 103.681 59.9684ZM103.03 59.143H103.641C103.926 59.143 104.166 59.0926 104.36 58.9917C104.556 58.8894 104.703 58.7314 104.801 58.5178C104.9 58.3027 104.95 58.0253 104.95 57.6857C104.95 57.349 104.9 57.0738 104.801 56.8602C104.703 56.6466 104.557 56.4894 104.362 56.3886C104.168 56.2877 103.928 56.2373 103.644 56.2373H103.03V59.143ZM110.812 57.6901C110.812 58.187 110.718 58.6098 110.529 58.9583C110.342 59.3069 110.087 59.5732 109.764 59.7571C109.442 59.9395 109.08 60.0307 108.678 60.0307C108.273 60.0307 107.91 59.9388 107.588 59.7549C107.266 59.5709 107.012 59.3047 106.825 58.9561C106.638 58.6075 106.544 58.1855 106.544 57.6901C106.544 57.1932 106.638 56.7705 106.825 56.4219C107.012 56.0734 107.266 55.8078 107.588 55.6254C107.91 55.4415 108.273 55.3495 108.678 55.3495C109.08 55.3495 109.442 55.4415 109.764 55.6254C110.087 55.8078 110.342 56.0734 110.529 56.4219C110.718 56.7705 110.812 57.1932 110.812 57.6901ZM109.835 57.6901C109.835 57.3683 109.787 57.0968 109.69 56.8758C109.595 56.6548 109.461 56.4872 109.288 56.373C109.114 56.2588 108.911 56.2017 108.678 56.2017C108.445 56.2017 108.242 56.2588 108.068 56.373C107.895 56.4872 107.76 56.6548 107.663 56.8758C107.569 57.0968 107.521 57.3683 107.521 57.6901C107.521 58.012 107.569 58.2834 107.663 58.5044C107.76 58.7255 107.895 58.8931 108.068 59.0073C108.242 59.1215 108.445 59.1786 108.678 59.1786C108.911 59.1786 109.114 59.1215 109.288 59.0073C109.461 58.8931 109.595 58.7255 109.69 58.5044C109.787 58.2834 109.835 58.012 109.835 57.6901ZM112.802 56.2061V55.4118H116.544V56.2061H115.149V59.9684H114.197V56.2061H112.802ZM121.14 57.6901C121.14 58.187 121.046 58.6098 120.857 58.9583C120.67 59.3069 120.415 59.5732 120.092 59.7571C119.77 59.9395 119.408 60.0307 119.006 60.0307C118.601 60.0307 118.238 59.9388 117.916 59.7549C117.594 59.5709 117.34 59.3047 117.153 58.9561C116.966 58.6075 116.872 58.1855 116.872 57.6901C116.872 57.1932 116.966 56.7705 117.153 56.4219C117.34 56.0734 117.594 55.8078 117.916 55.6254C118.238 55.4415 118.601 55.3495 119.006 55.3495C119.408 55.3495 119.77 55.4415 120.092 55.6254C120.415 55.8078 120.67 56.0734 120.857 56.4219C121.046 56.7705 121.14 57.1932 121.14 57.6901ZM120.163 57.6901C120.163 57.3683 120.115 57.0968 120.018 56.8758C119.924 56.6548 119.789 56.4872 119.616 56.373C119.442 56.2588 119.239 56.2017 119.006 56.2017C118.773 56.2017 118.57 56.2588 118.396 56.373C118.223 56.4872 118.088 56.6548 117.992 56.8758C117.897 57.0968 117.849 57.3683 117.849 57.6901C117.849 58.012 117.897 58.2834 117.992 58.5044C118.088 58.7255 118.223 58.8931 118.396 59.0073C118.57 59.1215 118.773 59.1786 119.006 59.1786C119.239 59.1786 119.442 59.1215 119.616 59.0073C119.789 58.8931 119.924 58.7255 120.018 58.5044C120.115 58.2834 120.163 58.012 120.163 57.6901ZM122.382 59.9684H121.35L122.923 55.4118H124.164L125.735 59.9684H124.702L123.561 56.4531H123.525L122.382 59.9684ZM122.317 58.1774H124.756V58.9294H122.317V58.1774ZM128.651 56.7223C128.633 56.5428 128.557 56.4034 128.422 56.304C128.287 56.2046 128.104 56.1549 127.872 56.1549C127.715 56.1549 127.582 56.1772 127.474 56.2217C127.366 56.2647 127.283 56.3248 127.225 56.4019C127.169 56.479 127.14 56.5665 127.14 56.6644C127.137 56.746 127.155 56.8172 127.192 56.878C127.23 56.9388 127.283 56.9915 127.35 57.036C127.416 57.079 127.493 57.1168 127.581 57.1495C127.668 57.1806 127.762 57.2073 127.861 57.2296L128.271 57.3275C128.469 57.372 128.652 57.4313 128.818 57.5055C128.984 57.5796 129.128 57.6708 129.25 57.7791C129.371 57.8874 129.465 58.015 129.532 58.1618C129.6 58.3087 129.635 58.477 129.637 58.6669C129.635 58.9457 129.564 59.1875 129.423 59.3922C129.284 59.5954 129.082 59.7534 128.818 59.8661C128.555 59.9773 128.239 60.033 127.868 60.033C127.5 60.033 127.18 59.9766 126.907 59.8639C126.635 59.7511 126.423 59.5843 126.27 59.3633C126.119 59.1408 126.04 58.8656 126.032 58.5378H126.965C126.975 58.6906 127.019 58.8182 127.096 58.9205C127.175 59.0214 127.279 59.0978 127.41 59.1497C127.542 59.2001 127.691 59.2253 127.857 59.2253C128.02 59.2253 128.162 59.2016 128.282 59.1541C128.403 59.1067 128.498 59.0407 128.564 58.9561C128.631 58.8716 128.664 58.7744 128.664 58.6646C128.664 58.5623 128.634 58.4763 128.573 58.4066C128.514 58.3368 128.426 58.2775 128.311 58.2286C128.197 58.1796 128.056 58.1351 127.89 58.0951L127.394 57.9705C127.01 57.877 126.707 57.7309 126.484 57.5322C126.262 57.3334 126.151 57.0657 126.153 56.729C126.151 56.4531 126.224 56.212 126.373 56.0059C126.523 55.7997 126.728 55.6388 126.989 55.5231C127.25 55.4074 127.547 55.3495 127.879 55.3495C128.217 55.3495 128.512 55.4074 128.765 55.5231C129.018 55.6388 129.216 55.7997 129.356 56.0059C129.497 56.212 129.57 56.4508 129.574 56.7223H128.651ZM130.111 56.2061V55.4118H133.854V56.2061H132.459V59.9684H131.506V56.2061H130.111ZM136.942 56.7223C136.924 56.5428 136.848 56.4034 136.713 56.304C136.578 56.2046 136.394 56.1549 136.163 56.1549C136.006 56.1549 135.873 56.1772 135.765 56.2217C135.656 56.2647 135.573 56.3248 135.516 56.4019C135.459 56.479 135.431 56.5665 135.431 56.6644C135.428 56.746 135.445 56.8172 135.482 56.878C135.521 56.9388 135.573 56.9915 135.64 57.036C135.707 57.079 135.784 57.1168 135.872 57.1495C135.959 57.1806 136.053 57.2073 136.152 57.2296L136.561 57.3275C136.76 57.372 136.942 57.4313 137.109 57.5055C137.275 57.5796 137.419 57.6708 137.54 57.7791C137.662 57.8874 137.756 58.015 137.823 58.1618C137.891 58.3087 137.926 58.477 137.927 58.6669C137.926 58.9457 137.855 59.1875 137.714 59.3922C137.574 59.5954 137.373 59.7534 137.109 59.8661C136.846 59.9773 136.529 60.033 136.159 60.033C135.791 60.033 135.47 59.9766 135.197 59.8639C134.926 59.7511 134.714 59.5843 134.561 59.3633C134.41 59.1408 134.33 58.8656 134.323 58.5378H135.255C135.266 58.6906 135.309 58.8182 135.387 58.9205C135.465 59.0214 135.57 59.0978 135.7 59.1497C135.832 59.2001 135.981 59.2253 136.147 59.2253C136.311 59.2253 136.452 59.2016 136.572 59.1541C136.694 59.1067 136.788 59.0407 136.855 58.9561C136.922 58.8716 136.955 58.7744 136.955 58.6646C136.955 58.5623 136.925 58.4763 136.864 58.4066C136.805 58.3368 136.717 58.2775 136.601 58.2286C136.487 58.1796 136.347 58.1351 136.181 58.0951L135.685 57.9705C135.3 57.877 134.997 57.7309 134.775 57.5322C134.552 57.3334 134.442 57.0657 134.443 56.729C134.442 56.4531 134.515 56.212 134.663 56.0059C134.813 55.7997 135.019 55.6388 135.28 55.5231C135.541 55.4074 135.837 55.3495 136.17 55.3495C136.508 55.3495 136.803 55.4074 137.055 55.5231C137.309 55.6388 137.506 55.7997 137.647 56.0059C137.788 56.212 137.861 56.4508 137.865 56.7223H136.942Z"
        fill="#949494" />
      <path
        d="M115.092 65.6303L114.809 65.7104C114.791 65.6632 114.765 65.6174 114.73 65.5729C114.697 65.5275 114.65 65.4901 114.591 65.4608C114.533 65.4314 114.458 65.4167 114.366 65.4167C114.24 65.4167 114.136 65.4456 114.052 65.5035C113.969 65.5604 113.928 65.633 113.928 65.7211C113.928 65.7994 113.956 65.8612 114.013 65.9066C114.07 65.952 114.159 65.9898 114.28 66.0201L114.585 66.0949C114.768 66.1394 114.905 66.2074 114.995 66.2991C115.085 66.3899 115.129 66.5069 115.129 66.6502C115.129 66.7677 115.096 66.8727 115.028 66.9652C114.961 67.0578 114.868 67.1308 114.748 67.1842C114.628 67.2376 114.488 67.2643 114.329 67.2643C114.119 67.2643 113.946 67.2189 113.809 67.1281C113.672 67.0373 113.585 66.9047 113.549 66.7303L113.848 66.6555C113.876 66.7659 113.93 66.8487 114.009 66.9038C114.09 66.959 114.194 66.9866 114.323 66.9866C114.47 66.9866 114.587 66.9555 114.673 66.8932C114.76 66.83 114.804 66.7543 114.804 66.6662C114.804 66.595 114.779 66.5354 114.729 66.4873C114.679 66.4384 114.603 66.4019 114.499 66.3779L114.158 66.2978C113.97 66.2533 113.832 66.1843 113.744 66.0909C113.657 65.9965 113.613 65.8786 113.613 65.7371C113.613 65.6214 113.645 65.5191 113.71 65.4301C113.776 65.3411 113.866 65.2712 113.979 65.2205C114.093 65.1697 114.222 65.1444 114.366 65.1444C114.569 65.1444 114.728 65.1889 114.844 65.2779C114.96 65.3669 115.043 65.4843 115.092 65.6303ZM116.463 67.2643C116.266 67.2643 116.095 67.2207 115.952 67.1335C115.81 67.0453 115.7 66.9225 115.622 66.765C115.546 66.6066 115.508 66.4224 115.508 66.2123C115.508 66.0023 115.546 65.8172 115.622 65.657C115.7 65.4959 115.808 65.3704 115.945 65.2805C116.084 65.1898 116.246 65.1444 116.431 65.1444C116.538 65.1444 116.644 65.1622 116.748 65.1978C116.852 65.2334 116.947 65.2912 117.032 65.3713C117.118 65.4505 117.186 65.5555 117.236 65.6864C117.287 65.8172 117.312 65.9783 117.312 66.1696V66.3031H115.732V66.0308H116.992C116.992 65.9151 116.969 65.8118 116.923 65.7211C116.877 65.6303 116.812 65.5587 116.728 65.5061C116.644 65.4536 116.545 65.4274 116.431 65.4274C116.306 65.4274 116.197 65.4585 116.106 65.5208C116.015 65.5822 115.945 65.6623 115.896 65.7611C115.847 65.8599 115.823 65.9658 115.823 66.0788V66.2604C115.823 66.4152 115.849 66.5465 115.903 66.6542C115.957 66.761 116.032 66.8424 116.128 66.8985C116.224 66.9537 116.336 66.9813 116.463 66.9813C116.546 66.9813 116.621 66.9697 116.688 66.9466C116.755 66.9225 116.814 66.8869 116.863 66.8398C116.912 66.7917 116.949 66.7321 116.976 66.6609L117.28 66.7463C117.248 66.8496 117.195 66.9403 117.119 67.0186C117.043 67.0961 116.95 67.1566 116.839 67.2002C116.727 67.2429 116.602 67.2643 116.463 67.2643ZM117.792 67.2216V65.1711H118.096V65.4808H118.117C118.155 65.3793 118.222 65.297 118.32 65.2338C118.418 65.1706 118.529 65.139 118.651 65.139C118.675 65.139 118.703 65.1395 118.738 65.1404C118.773 65.1413 118.799 65.1426 118.817 65.1444V65.4648C118.806 65.4621 118.782 65.4581 118.744 65.4527C118.706 65.4465 118.667 65.4434 118.625 65.4434C118.525 65.4434 118.436 65.4643 118.358 65.5061C118.28 65.5471 118.219 65.604 118.173 65.677C118.129 65.7491 118.107 65.8314 118.107 65.924V67.2216H117.792ZM120.929 65.1711L120.171 67.2216H119.851L119.093 65.1711H119.434L120 66.8051H120.022L120.588 65.1711H120.929ZM122.132 67.2643C121.934 67.2643 121.764 67.2207 121.62 67.1335C121.478 67.0453 121.368 66.9225 121.291 66.765C121.214 66.6066 121.176 66.4224 121.176 66.2123C121.176 66.0023 121.214 65.8172 121.291 65.657C121.368 65.4959 121.476 65.3704 121.614 65.2805C121.752 65.1898 121.914 65.1444 122.1 65.1444C122.206 65.1444 122.312 65.1622 122.416 65.1978C122.52 65.2334 122.615 65.2912 122.7 65.3713C122.786 65.4505 122.854 65.5555 122.905 65.6864C122.955 65.8172 122.981 65.9783 122.981 66.1696V66.3031H121.4V66.0308H122.66C122.66 65.9151 122.637 65.8118 122.591 65.7211C122.545 65.6303 122.48 65.5587 122.396 65.5061C122.312 65.4536 122.213 65.4274 122.1 65.4274C121.974 65.4274 121.866 65.4585 121.774 65.5208C121.683 65.5822 121.613 65.6623 121.564 65.7611C121.515 65.8599 121.491 65.9658 121.491 66.0788V66.2604C121.491 66.4152 121.518 66.5465 121.571 66.6542C121.625 66.761 121.7 66.8424 121.797 66.8985C121.893 66.9537 122.004 66.9813 122.132 66.9813C122.214 66.9813 122.289 66.9697 122.356 66.9466C122.424 66.9225 122.482 66.8869 122.531 66.8398C122.58 66.7917 122.618 66.7321 122.644 66.6609L122.949 66.7463C122.917 66.8496 122.863 66.9403 122.787 67.0186C122.711 67.0961 122.618 67.1566 122.507 67.2002C122.395 67.2429 122.27 67.2643 122.132 67.2643ZM124.234 67.2643C124.063 67.2643 123.912 67.2211 123.782 67.1348C123.651 67.0476 123.548 66.9248 123.475 66.7663C123.401 66.607 123.364 66.4188 123.364 66.2017C123.364 65.9863 123.401 65.7994 123.475 65.641C123.548 65.4826 123.651 65.3602 123.783 65.2739C123.915 65.1875 124.067 65.1444 124.24 65.1444C124.373 65.1444 124.478 65.1666 124.556 65.2111C124.634 65.2547 124.694 65.3046 124.735 65.3606C124.777 65.4158 124.809 65.4612 124.832 65.4968H124.859V64.4876H125.174V67.2216H124.87V66.9065H124.832C124.809 66.9439 124.776 66.9911 124.733 67.048C124.691 67.1041 124.63 67.1544 124.551 67.1989C124.471 67.2425 124.366 67.2643 124.234 67.2643ZM124.277 66.9813C124.403 66.9813 124.51 66.9483 124.597 66.8825C124.684 66.8157 124.751 66.7236 124.796 66.6061C124.842 66.4878 124.864 66.3512 124.864 66.1963C124.864 66.0432 124.842 65.9093 124.798 65.7945C124.753 65.6788 124.687 65.5889 124.6 65.5248C124.513 65.4599 124.405 65.4274 124.277 65.4274C124.143 65.4274 124.032 65.4616 123.943 65.5302C123.855 65.5978 123.789 65.6899 123.744 65.8065C123.701 65.9222 123.679 66.0521 123.679 66.1963C123.679 66.3423 123.701 66.4749 123.746 66.5941C123.791 66.7125 123.858 66.8068 123.946 66.8771C124.035 66.9466 124.145 66.9813 124.277 66.9813ZM127.317 67.2216L126.692 65.1711H127.023L127.466 66.741H127.487L127.925 65.1711H128.262L128.694 66.7356H128.716L129.159 65.1711H129.49L128.865 67.2216H128.555L128.107 65.6463H128.075L127.626 67.2216H127.317ZM129.906 67.2216V65.1711H130.221V67.2216H129.906ZM130.067 64.8293C130.005 64.8293 129.952 64.8084 129.908 64.7666C129.864 64.7248 129.842 64.6745 129.842 64.6157C129.842 64.557 129.864 64.5067 129.908 64.4649C129.952 64.4231 130.005 64.4021 130.067 64.4021C130.128 64.4021 130.18 64.4231 130.224 64.4649C130.269 64.5067 130.291 64.557 130.291 64.6157C130.291 64.6745 130.269 64.7248 130.224 64.7666C130.18 64.8084 130.128 64.8293 130.067 64.8293ZM131.69 65.1711V65.4381H130.628V65.1711H131.69ZM130.937 64.6798H131.252V66.6342C131.252 66.7232 131.265 66.7899 131.291 66.8344C131.318 66.878 131.352 66.9074 131.393 66.9225C131.434 66.9368 131.478 66.9439 131.525 66.9439C131.559 66.9439 131.588 66.9421 131.61 66.9385C131.632 66.9341 131.65 66.9305 131.664 66.9279L131.728 67.2109C131.706 67.2189 131.676 67.2269 131.638 67.2349C131.6 67.2438 131.551 67.2483 131.493 67.2483C131.404 67.2483 131.316 67.2291 131.231 67.1909C131.146 67.1526 131.076 67.0943 131.02 67.016C130.965 66.9377 130.937 66.8389 130.937 66.7196V64.6798ZM132.523 65.9881V67.2216H132.208V64.4876H132.523V65.4915H132.55C132.598 65.3856 132.67 65.3015 132.766 65.2392C132.863 65.176 132.992 65.1444 133.153 65.1444C133.293 65.1444 133.415 65.1724 133.52 65.2285C133.625 65.2837 133.707 65.3686 133.765 65.4835C133.823 65.5974 133.853 65.7424 133.853 65.9186V67.2216H133.538V65.94C133.538 65.7771 133.496 65.6512 133.411 65.5622C133.327 65.4723 133.211 65.4274 133.063 65.4274C132.959 65.4274 132.867 65.4492 132.785 65.4928C132.704 65.5364 132.64 65.6 132.593 65.6837C132.546 65.7674 132.523 65.8688 132.523 65.9881ZM136.939 65.6303L136.656 65.7104C136.638 65.6632 136.612 65.6174 136.577 65.5729C136.543 65.5275 136.497 65.4901 136.438 65.4608C136.38 65.4314 136.304 65.4167 136.213 65.4167C136.087 65.4167 135.983 65.4456 135.899 65.5035C135.816 65.5604 135.775 65.633 135.775 65.7211C135.775 65.7994 135.803 65.8612 135.86 65.9066C135.917 65.952 136.006 65.9898 136.127 66.0201L136.432 66.0949C136.615 66.1394 136.752 66.2074 136.841 66.2991C136.931 66.3899 136.976 66.5069 136.976 66.6502C136.976 66.7677 136.942 66.8727 136.875 66.9652C136.808 67.0578 136.715 67.1308 136.594 67.1842C136.474 67.2376 136.335 67.2643 136.175 67.2643C135.966 67.2643 135.793 67.2189 135.656 67.1281C135.519 67.0373 135.432 66.9047 135.396 66.7303L135.695 66.6555C135.723 66.7659 135.777 66.8487 135.856 66.9038C135.936 66.959 136.041 66.9866 136.17 66.9866C136.317 66.9866 136.433 66.9555 136.52 66.8932C136.607 66.83 136.651 66.7543 136.651 66.6662C136.651 66.595 136.626 66.5354 136.576 66.4873C136.526 66.4384 136.449 66.4019 136.346 66.3779L136.004 66.2978C135.817 66.2533 135.679 66.1843 135.591 66.0909C135.503 65.9965 135.46 65.8786 135.46 65.7371C135.46 65.6214 135.492 65.5191 135.557 65.4301C135.623 65.3411 135.713 65.2712 135.826 65.2205C135.939 65.1697 136.069 65.1444 136.213 65.1444C136.416 65.1444 136.575 65.1889 136.691 65.2779C136.807 65.3669 136.89 65.4843 136.939 65.6303ZM138.743 66.3832V65.1711H139.058V67.2216H138.743V66.8745H138.721C138.673 66.9786 138.599 67.0671 138.497 67.1401C138.396 67.2122 138.268 67.2483 138.113 67.2483C137.984 67.2483 137.871 67.2202 137.771 67.1642C137.671 67.1072 137.593 67.0218 137.536 66.9078C137.479 66.793 137.451 66.6484 137.451 66.474V65.1711H137.766V66.4526C137.766 66.6021 137.807 66.7214 137.891 66.8104C137.976 66.8994 138.083 66.9439 138.214 66.9439C138.292 66.9439 138.372 66.9239 138.453 66.8838C138.535 66.8438 138.603 66.7824 138.659 66.6996C138.715 66.6168 138.743 66.5114 138.743 66.3832ZM139.635 67.9905V65.1711H139.939V65.4968H139.977C140 65.4612 140.032 65.4158 140.073 65.3606C140.115 65.3046 140.174 65.2547 140.252 65.2111C140.33 65.1666 140.436 65.1444 140.569 65.1444C140.742 65.1444 140.894 65.1875 141.026 65.2739C141.158 65.3602 141.26 65.4826 141.334 65.641C141.408 65.7994 141.445 65.9863 141.445 66.2017C141.445 66.4188 141.408 66.607 141.334 66.7663C141.26 66.9248 141.158 67.0476 141.027 67.1348C140.896 67.2211 140.746 67.2643 140.575 67.2643C140.443 67.2643 140.337 67.2425 140.258 67.1989C140.179 67.1544 140.118 67.1041 140.075 67.048C140.033 66.9911 140 66.9439 139.977 66.9065H139.95V67.9905H139.635ZM139.945 66.1963C139.945 66.3512 139.967 66.4878 140.013 66.6061C140.058 66.7236 140.124 66.8157 140.212 66.8825C140.299 66.9483 140.406 66.9813 140.532 66.9813C140.664 66.9813 140.774 66.9466 140.862 66.8771C140.951 66.8068 141.017 66.7125 141.062 66.5941C141.107 66.4749 141.13 66.3423 141.13 66.1963C141.13 66.0521 141.108 65.9222 141.063 65.8065C141.02 65.6899 140.953 65.5978 140.864 65.5302C140.776 65.4616 140.665 65.4274 140.532 65.4274C140.404 65.4274 140.296 65.4599 140.209 65.5248C140.122 65.5889 140.056 65.6788 140.011 65.7945C139.967 65.9093 139.945 66.0432 139.945 66.1963ZM141.926 67.2216V65.1711H142.23V65.4808H142.251C142.289 65.3793 142.356 65.297 142.454 65.2338C142.552 65.1706 142.662 65.139 142.785 65.139C142.808 65.139 142.837 65.1395 142.872 65.1404C142.907 65.1413 142.933 65.1426 142.951 65.1444V65.4648C142.94 65.4621 142.916 65.4581 142.877 65.4527C142.84 65.4465 142.8 65.4434 142.759 65.4434C142.659 65.4434 142.57 65.4643 142.492 65.5061C142.414 65.5471 142.353 65.604 142.307 65.677C142.263 65.7491 142.241 65.8314 142.241 65.924V67.2216H141.926ZM144.122 67.2643C143.924 67.2643 143.754 67.2207 143.61 67.1335C143.468 67.0453 143.358 66.9225 143.281 66.765C143.204 66.6066 143.166 66.4224 143.166 66.2123C143.166 66.0023 143.204 65.8172 143.281 65.657C143.358 65.4959 143.466 65.3704 143.604 65.2805C143.742 65.1898 143.904 65.1444 144.09 65.1444C144.196 65.1444 144.302 65.1622 144.406 65.1978C144.51 65.2334 144.605 65.2912 144.69 65.3713C144.776 65.4505 144.844 65.5555 144.895 65.6864C144.945 65.8172 144.971 65.9783 144.971 66.1696V66.3031H143.39V66.0308H144.65C144.65 65.9151 144.627 65.8118 144.581 65.7211C144.535 65.6303 144.47 65.5587 144.386 65.5061C144.302 65.4536 144.203 65.4274 144.09 65.4274C143.964 65.4274 143.855 65.4585 143.764 65.5208C143.673 65.5822 143.603 65.6623 143.554 65.7611C143.505 65.8599 143.481 65.9658 143.481 66.0788V66.2604C143.481 66.4152 143.508 66.5465 143.561 66.6542C143.615 66.761 143.69 66.8424 143.787 66.8985C143.883 66.9537 143.994 66.9813 144.122 66.9813C144.204 66.9813 144.279 66.9697 144.346 66.9466C144.414 66.9225 144.472 66.8869 144.521 66.8398C144.57 66.7917 144.608 66.7321 144.634 66.6609L144.939 66.7463C144.907 66.8496 144.853 66.9403 144.777 67.0186C144.701 67.0961 144.608 67.1566 144.497 67.2002C144.385 67.2429 144.26 67.2643 144.122 67.2643ZM145.45 67.2216V65.1711H145.754V65.4915H145.781C145.824 65.382 145.893 65.297 145.988 65.2365C146.083 65.1751 146.197 65.1444 146.331 65.1444C146.466 65.1444 146.579 65.1751 146.669 65.2365C146.759 65.297 146.83 65.382 146.881 65.4915H146.902C146.955 65.3856 147.034 65.3015 147.139 65.2392C147.244 65.176 147.37 65.1444 147.516 65.1444C147.7 65.1444 147.85 65.2018 147.966 65.3166C148.083 65.4305 148.141 65.608 148.141 65.8492V67.2216H147.826V65.8492C147.826 65.6979 147.785 65.5898 147.702 65.5248C147.619 65.4599 147.522 65.4274 147.41 65.4274C147.265 65.4274 147.154 65.471 147.075 65.5582C146.995 65.6445 146.956 65.754 146.956 65.8866V67.2216H146.635V65.8172C146.635 65.7006 146.597 65.6067 146.522 65.5355C146.446 65.4634 146.349 65.4274 146.229 65.4274C146.148 65.4274 146.071 65.4492 146 65.4928C145.93 65.5364 145.873 65.5969 145.829 65.6743C145.786 65.7509 145.765 65.8394 145.765 65.94V67.2216H145.45ZM149.577 67.2643C149.379 67.2643 149.209 67.2207 149.066 67.1335C148.923 67.0453 148.813 66.9225 148.736 66.765C148.659 66.6066 148.621 66.4224 148.621 66.2123C148.621 66.0023 148.659 65.8172 148.736 65.657C148.813 65.4959 148.921 65.3704 149.059 65.2805C149.198 65.1898 149.36 65.1444 149.545 65.1444C149.652 65.1444 149.757 65.1622 149.861 65.1978C149.965 65.2334 150.06 65.2912 150.146 65.3713C150.231 65.4505 150.299 65.5555 150.35 65.6864C150.401 65.8172 150.426 65.9783 150.426 66.1696V66.3031H148.845V66.0308H150.106C150.106 65.9151 150.082 65.8118 150.036 65.7211C149.991 65.6303 149.926 65.5587 149.841 65.5061C149.758 65.4536 149.659 65.4274 149.545 65.4274C149.419 65.4274 149.311 65.4585 149.219 65.5208C149.128 65.5822 149.058 65.6623 149.01 65.7611C148.961 65.8599 148.936 65.9658 148.936 66.0788V66.2604C148.936 66.4152 148.963 66.5465 149.016 66.6542C149.07 66.761 149.146 66.8424 149.242 66.8985C149.338 66.9537 149.45 66.9813 149.577 66.9813C149.66 66.9813 149.734 66.9697 149.801 66.9466C149.869 66.9225 149.927 66.8869 149.976 66.8398C150.025 66.7917 150.063 66.7321 150.089 66.6609L150.394 66.7463C150.362 66.8496 150.308 66.9403 150.232 67.0186C150.157 67.0961 150.063 67.1566 149.952 67.2002C149.841 67.2429 149.716 67.2643 149.577 67.2643ZM151.22 64.4876V67.2216H150.905V64.4876H151.22ZM152 67.9905C151.947 67.9905 151.899 67.986 151.857 67.9771C151.815 67.9691 151.787 67.9611 151.771 67.9531L151.851 67.6754C151.927 67.695 151.995 67.7021 152.054 67.6968C152.112 67.6915 152.164 67.6652 152.21 67.618C152.256 67.5718 152.298 67.4966 152.337 67.3924L152.395 67.2322L151.637 65.1711H151.979L152.545 66.8051H152.566L153.132 65.1711H153.474L152.604 67.5206C152.564 67.6265 152.516 67.7142 152.458 67.7836C152.4 67.8539 152.333 67.9059 152.256 67.9398C152.181 67.9736 152.095 67.9905 152 67.9905ZM156.399 65.6303L156.116 65.7104C156.099 65.6632 156.072 65.6174 156.038 65.5729C156.004 65.5275 155.958 65.4901 155.899 65.4608C155.84 65.4314 155.765 65.4167 155.673 65.4167C155.548 65.4167 155.443 65.4456 155.36 65.5035C155.277 65.5604 155.235 65.633 155.235 65.7211C155.235 65.7994 155.264 65.8612 155.321 65.9066C155.378 65.952 155.467 65.9898 155.588 66.0201L155.892 66.0949C156.076 66.1394 156.212 66.2074 156.302 66.2991C156.392 66.3899 156.437 66.5069 156.437 66.6502C156.437 66.7677 156.403 66.8727 156.335 66.9652C156.269 67.0578 156.175 67.1308 156.055 67.1842C155.935 67.2376 155.795 67.2643 155.636 67.2643C155.427 67.2643 155.254 67.2189 155.117 67.1281C154.98 67.0373 154.893 66.9047 154.856 66.7303L155.155 66.6555C155.184 66.7659 155.238 66.8487 155.317 66.9038C155.397 66.959 155.501 66.9866 155.631 66.9866C155.777 66.9866 155.894 66.9555 155.98 66.8932C156.068 66.83 156.111 66.7543 156.111 66.6662C156.111 66.595 156.086 66.5354 156.036 66.4873C155.987 66.4384 155.91 66.4019 155.807 66.3779L155.465 66.2978C155.277 66.2533 155.139 66.1843 155.051 66.0909C154.964 65.9965 154.92 65.8786 154.92 65.7371C154.92 65.6214 154.953 65.5191 155.018 65.4301C155.084 65.3411 155.173 65.2712 155.286 65.2205C155.4 65.1697 155.529 65.1444 155.673 65.1444C155.876 65.1444 156.035 65.1889 156.151 65.2779C156.268 65.3669 156.351 65.4843 156.399 65.6303ZM157.744 67.2643C157.559 67.2643 157.397 67.2202 157.257 67.1321C157.118 67.044 157.009 66.9207 156.931 66.7623C156.854 66.6039 156.815 66.4188 156.815 66.207C156.815 65.9934 156.854 65.807 156.931 65.6477C157.009 65.4883 157.118 65.3646 157.257 65.2765C157.397 65.1884 157.559 65.1444 157.744 65.1444C157.929 65.1444 158.091 65.1884 158.23 65.2765C158.37 65.3646 158.478 65.4883 158.556 65.6477C158.634 65.807 158.673 65.9934 158.673 66.207C158.673 66.4188 158.634 66.6039 158.556 66.7623C158.478 66.9207 158.37 67.044 158.23 67.1321C158.091 67.2202 157.929 67.2643 157.744 67.2643ZM157.744 66.9813C157.885 66.9813 158 66.9452 158.091 66.8731C158.182 66.801 158.249 66.7063 158.293 66.5888C158.336 66.4713 158.358 66.344 158.358 66.207C158.358 66.0699 158.336 65.9422 158.293 65.8239C158.249 65.7055 158.182 65.6098 158.091 65.5368C158 65.4639 157.885 65.4274 157.744 65.4274C157.603 65.4274 157.488 65.4639 157.397 65.5368C157.306 65.6098 157.239 65.7055 157.195 65.8239C157.152 65.9422 157.13 66.0699 157.13 66.207C157.13 66.344 157.152 66.4713 157.195 66.5888C157.239 66.7063 157.306 66.801 157.397 66.8731C157.488 66.9452 157.603 66.9813 157.744 66.9813ZM160.067 65.1711V65.4381H158.962V65.1711H160.067ZM159.293 67.2216V64.8881C159.293 64.7706 159.321 64.6727 159.376 64.5944C159.431 64.5161 159.503 64.4573 159.591 64.4182C159.679 64.379 159.772 64.3594 159.87 64.3594C159.947 64.3594 160.01 64.3657 160.059 64.3781C160.108 64.3906 160.145 64.4021 160.169 64.4128L160.078 64.6852C160.062 64.6798 160.04 64.6731 160.011 64.6651C159.984 64.6571 159.947 64.6531 159.902 64.6531C159.798 64.6531 159.722 64.6794 159.676 64.7319C159.631 64.7844 159.608 64.8614 159.608 64.9628V67.2216H159.293ZM161.401 65.1711V65.4381H160.338V65.1711H161.401ZM160.648 64.6798H160.963V66.6342C160.963 66.7232 160.976 66.7899 161.001 66.8344C161.028 66.878 161.062 66.9074 161.103 66.9225C161.145 66.9368 161.189 66.9439 161.235 66.9439C161.27 66.9439 161.298 66.9421 161.32 66.9385C161.343 66.9341 161.36 66.9305 161.374 66.9279L161.438 67.2109C161.417 67.2189 161.387 67.2269 161.348 67.2349C161.31 67.2438 161.262 67.2483 161.203 67.2483C161.114 67.2483 161.027 67.2291 160.941 67.1909C160.857 67.1526 160.786 67.0943 160.73 67.016C160.675 66.9377 160.648 66.8389 160.648 66.7196V64.6798ZM163.535 67.2696C163.405 67.2696 163.287 67.2451 163.181 67.1962C163.075 67.1464 162.991 67.0747 162.929 66.9813C162.867 66.8869 162.836 66.773 162.836 66.6395C162.836 66.522 162.859 66.4268 162.905 66.3538C162.951 66.28 163.013 66.2221 163.091 66.1803C163.168 66.1385 163.253 66.1073 163.347 66.0868C163.441 66.0655 163.536 66.0486 163.631 66.0361C163.756 66.0201 163.857 66.0081 163.934 66.0001C164.013 65.9912 164.07 65.9765 164.105 65.956C164.142 65.9356 164.16 65.9 164.16 65.8492V65.8385C164.16 65.7068 164.124 65.6045 164.052 65.5315C163.981 65.4585 163.872 65.422 163.727 65.422C163.577 65.422 163.459 65.455 163.374 65.5208C163.288 65.5867 163.228 65.657 163.193 65.7318L162.894 65.625C162.948 65.5004 163.019 65.4034 163.108 65.3339C163.198 65.2636 163.296 65.2147 163.402 65.1871C163.508 65.1586 163.613 65.1444 163.717 65.1444C163.783 65.1444 163.858 65.1524 163.944 65.1684C164.03 65.1835 164.113 65.2151 164.193 65.2632C164.274 65.3112 164.341 65.3838 164.395 65.4808C164.448 65.5778 164.475 65.7077 164.475 65.8706V67.2216H164.16V66.9439H164.144C164.122 66.9884 164.087 67.036 164.037 67.0867C163.987 67.1375 163.921 67.1806 163.838 67.2162C163.755 67.2518 163.654 67.2696 163.535 67.2696ZM163.583 66.9866C163.708 66.9866 163.813 66.9621 163.898 66.9132C163.985 66.8642 164.05 66.801 164.093 66.7236C164.138 66.6462 164.16 66.5648 164.16 66.4793V66.191C164.147 66.207 164.117 66.2217 164.072 66.235C164.027 66.2475 163.976 66.2586 163.917 66.2684C163.859 66.2773 163.803 66.2853 163.747 66.2924C163.693 66.2987 163.649 66.304 163.615 66.3085C163.533 66.3191 163.457 66.3365 163.386 66.3605C163.315 66.3837 163.258 66.4188 163.215 66.466C163.172 66.5123 163.151 66.5754 163.151 66.6555C163.151 66.765 163.191 66.8478 163.272 66.9038C163.354 66.959 163.458 66.9866 163.583 66.9866ZM165.365 65.9881V67.2216H165.05V65.1711H165.354V65.4915H165.381C165.429 65.3873 165.502 65.3037 165.6 65.2405C165.698 65.1764 165.824 65.1444 165.979 65.1444C166.118 65.1444 166.239 65.1729 166.344 65.2298C166.448 65.2859 166.529 65.3713 166.586 65.4861C166.644 65.6 166.673 65.7442 166.673 65.9186V67.2216H166.358V65.94C166.358 65.7789 166.316 65.6534 166.233 65.5635C166.149 65.4728 166.034 65.4274 165.888 65.4274C165.788 65.4274 165.698 65.4492 165.619 65.4928C165.54 65.5364 165.478 65.6 165.433 65.6837C165.388 65.7674 165.365 65.8688 165.365 65.9881ZM168.023 67.2643C167.852 67.2643 167.702 67.2211 167.571 67.1348C167.44 67.0476 167.338 66.9248 167.264 66.7663C167.19 66.607 167.153 66.4188 167.153 66.2017C167.153 65.9863 167.19 65.7994 167.264 65.641C167.338 65.4826 167.44 65.3602 167.572 65.2739C167.704 65.1875 167.856 65.1444 168.029 65.1444C168.162 65.1444 168.268 65.1666 168.345 65.2111C168.423 65.2547 168.483 65.3046 168.524 65.3606C168.566 65.4158 168.598 65.4612 168.621 65.4968H168.648V64.4876H168.963V67.2216H168.659V66.9065H168.621C168.598 66.9439 168.565 66.9911 168.522 67.048C168.48 67.1041 168.419 67.1544 168.34 67.1989C168.26 67.2425 168.155 67.2643 168.023 67.2643ZM168.066 66.9813C168.192 66.9813 168.299 66.9483 168.386 66.8825C168.474 66.8157 168.54 66.7236 168.585 66.6061C168.631 66.4878 168.653 66.3512 168.653 66.1963C168.653 66.0432 168.631 65.9093 168.587 65.7945C168.542 65.6788 168.476 65.5889 168.389 65.5248C168.302 65.4599 168.194 65.4274 168.066 65.4274C167.932 65.4274 167.821 65.4616 167.732 65.5302C167.644 65.5978 167.578 65.6899 167.533 65.8065C167.49 65.9222 167.468 66.0521 167.468 66.1963C167.468 66.3423 167.49 66.4749 167.535 66.5941C167.58 66.7125 167.647 66.8068 167.735 66.8771C167.824 66.9466 167.934 66.9813 168.066 66.9813ZM113.64 72.2216V70.1711H113.955V72.2216H113.64ZM113.8 69.8293C113.738 69.8293 113.686 69.8084 113.641 69.7666C113.597 69.7248 113.576 69.6745 113.576 69.6157C113.576 69.557 113.597 69.5067 113.641 69.4649C113.686 69.4231 113.738 69.4021 113.8 69.4021C113.861 69.4021 113.914 69.4231 113.957 69.4649C114.002 69.5067 114.024 69.557 114.024 69.6157C114.024 69.6745 114.002 69.7248 113.957 69.7666C113.914 69.8084 113.861 69.8293 113.8 69.8293ZM114.847 70.9881V72.2216H114.532V70.1711H114.836V70.4915H114.863C114.911 70.3873 114.984 70.3037 115.082 70.2405C115.18 70.1764 115.306 70.1444 115.461 70.1444C115.6 70.1444 115.721 70.1729 115.825 70.2298C115.929 70.2859 116.01 70.3713 116.068 70.4861C116.126 70.6 116.155 70.7442 116.155 70.9186V72.2216H115.84V70.94C115.84 70.7789 115.798 70.6534 115.715 70.5635C115.631 70.4728 115.516 70.4274 115.37 70.4274C115.27 70.4274 115.18 70.4492 115.1 70.4928C115.022 70.5364 114.96 70.6 114.915 70.6837C114.869 70.7674 114.847 70.8688 114.847 70.9881ZM117.564 72.2643C117.372 72.2643 117.206 72.2189 117.067 72.1281C116.928 72.0373 116.822 71.9123 116.747 71.753C116.672 71.5937 116.635 71.4117 116.635 71.207C116.635 70.9987 116.673 70.815 116.749 70.6557C116.827 70.4955 116.935 70.3704 117.072 70.2805C117.211 70.1898 117.373 70.1444 117.558 70.1444C117.703 70.1444 117.833 70.1711 117.948 70.2245C118.064 70.2779 118.159 70.3526 118.233 70.4487C118.306 70.5449 118.352 70.657 118.37 70.7852H118.055C118.031 70.6917 117.978 70.6089 117.895 70.5368C117.813 70.4639 117.703 70.4274 117.564 70.4274C117.441 70.4274 117.333 70.4594 117.241 70.5235C117.149 70.5867 117.077 70.6761 117.026 70.7918C116.975 70.9066 116.95 71.0415 116.95 71.1963C116.95 71.3547 116.975 71.4927 117.024 71.6102C117.075 71.7276 117.146 71.8188 117.238 71.8838C117.331 71.9488 117.439 71.9813 117.564 71.9813C117.646 71.9813 117.72 71.967 117.787 71.9385C117.853 71.9101 117.91 71.8691 117.956 71.8157C118.003 71.7623 118.035 71.6983 118.055 71.6235H118.37C118.352 71.7445 118.308 71.8536 118.238 71.9506C118.168 72.0467 118.076 72.1232 117.962 72.1802C117.848 72.2362 117.715 72.2643 117.564 72.2643ZM118.831 72.2216V70.1711H119.135V70.4808H119.156C119.194 70.3793 119.261 70.297 119.359 70.2338C119.457 70.1706 119.568 70.139 119.69 70.139C119.713 70.139 119.742 70.1395 119.777 70.1404C119.812 70.1413 119.838 70.1426 119.856 70.1444V70.4648C119.845 70.4621 119.821 70.4581 119.782 70.4527C119.745 70.4465 119.705 70.4434 119.664 70.4434C119.564 70.4434 119.475 70.4643 119.397 70.5061C119.319 70.5471 119.258 70.604 119.212 70.677C119.168 70.7491 119.146 70.8314 119.146 70.924V72.2216H118.831ZM121.027 72.2643C120.829 72.2643 120.659 72.2207 120.515 72.1335C120.373 72.0453 120.263 71.9225 120.186 71.765C120.109 71.6066 120.071 71.4224 120.071 71.2123C120.071 71.0023 120.109 70.8172 120.186 70.657C120.263 70.4959 120.371 70.3704 120.509 70.2805C120.647 70.1898 120.809 70.1444 120.995 70.1444C121.101 70.1444 121.207 70.1622 121.311 70.1978C121.415 70.2334 121.51 70.2912 121.595 70.3713C121.681 70.4505 121.749 70.5555 121.8 70.6864C121.85 70.8172 121.876 70.9783 121.876 71.1696V71.3031H120.295V71.0308H121.555C121.555 70.9151 121.532 70.8118 121.486 70.7211C121.44 70.6303 121.375 70.5587 121.291 70.5061C121.207 70.4536 121.108 70.4274 120.995 70.4274C120.869 70.4274 120.761 70.4585 120.669 70.5208C120.578 70.5822 120.508 70.6623 120.459 70.7611C120.41 70.8599 120.386 70.9658 120.386 71.0788V71.2604C120.386 71.4152 120.413 71.5465 120.466 71.6542C120.52 71.761 120.595 71.8424 120.692 71.8985C120.788 71.9537 120.899 71.9813 121.027 71.9813C121.109 71.9813 121.184 71.9697 121.251 71.9466C121.319 71.9225 121.377 71.8869 121.426 71.8398C121.475 71.7917 121.513 71.7321 121.539 71.6609L121.844 71.7463C121.812 71.8496 121.758 71.9403 121.682 72.0186C121.606 72.0961 121.513 72.1566 121.402 72.2002C121.29 72.2429 121.165 72.2643 121.027 72.2643ZM123.129 72.2643C122.958 72.2643 122.807 72.2211 122.677 72.1348C122.546 72.0476 122.443 71.9248 122.37 71.7663C122.296 71.607 122.259 71.4188 122.259 71.2017C122.259 70.9863 122.296 70.7994 122.37 70.641C122.443 70.4826 122.546 70.3602 122.678 70.2739C122.81 70.1875 122.962 70.1444 123.135 70.1444C123.268 70.1444 123.373 70.1666 123.451 70.2111C123.529 70.2547 123.589 70.3046 123.63 70.3606C123.672 70.4158 123.704 70.4612 123.727 70.4968H123.754V69.4876H124.069V72.2216H123.765V71.9065H123.727C123.704 71.9439 123.671 71.9911 123.628 72.048C123.586 72.1041 123.525 72.1544 123.446 72.1989C123.366 72.2425 123.261 72.2643 123.129 72.2643ZM123.172 71.9813C123.298 71.9813 123.405 71.9483 123.492 71.8825C123.579 71.8157 123.646 71.7236 123.691 71.6061C123.737 71.4878 123.759 71.3512 123.759 71.1963C123.759 71.0432 123.737 70.9093 123.693 70.7945C123.648 70.6788 123.582 70.5889 123.495 70.5248C123.408 70.4599 123.3 70.4274 123.172 70.4274C123.038 70.4274 122.927 70.4616 122.838 70.5302C122.75 70.5978 122.684 70.6899 122.639 70.8065C122.596 70.9222 122.574 71.0521 122.574 71.1963C122.574 71.3423 122.596 71.4749 122.641 71.5941C122.686 71.7125 122.753 71.8068 122.841 71.8771C122.93 71.9466 123.04 71.9813 123.172 71.9813ZM124.69 72.2216V70.1711H125.005V72.2216H124.69ZM124.85 69.8293C124.789 69.8293 124.736 69.8084 124.691 69.7666C124.647 69.7248 124.626 69.6745 124.626 69.6157C124.626 69.557 124.647 69.5067 124.691 69.4649C124.736 69.4231 124.789 69.4021 124.85 69.4021C124.911 69.4021 124.964 69.4231 125.007 69.4649C125.052 69.5067 125.074 69.557 125.074 69.6157C125.074 69.6745 125.052 69.7248 125.007 69.7666C124.964 69.8084 124.911 69.8293 124.85 69.8293ZM125.625 72.2216V69.4876H125.94V70.4968H125.966C125.989 70.4612 126.021 70.4158 126.062 70.3606C126.104 70.3046 126.164 70.2547 126.241 70.2111C126.32 70.1666 126.425 70.1444 126.559 70.1444C126.732 70.1444 126.884 70.1875 127.016 70.2739C127.147 70.3602 127.25 70.4826 127.324 70.641C127.398 70.7994 127.435 70.9863 127.435 71.2017C127.435 71.4188 127.398 71.607 127.324 71.7663C127.25 71.9248 127.148 72.0476 127.017 72.1348C126.886 72.2211 126.735 72.2643 126.564 72.2643C126.433 72.2643 126.327 72.2425 126.248 72.1989C126.169 72.1544 126.108 72.1041 126.065 72.048C126.022 71.9911 125.989 71.9439 125.966 71.9065H125.929V72.2216H125.625ZM125.934 71.1963C125.934 71.3512 125.957 71.4878 126.002 71.6061C126.048 71.7236 126.114 71.8157 126.201 71.8825C126.288 71.9483 126.395 71.9813 126.522 71.9813C126.653 71.9813 126.763 71.9466 126.851 71.8771C126.94 71.8068 127.007 71.7125 127.052 71.5941C127.097 71.4749 127.12 71.3423 127.12 71.1963C127.12 71.0521 127.097 70.9222 127.053 70.8065C127.009 70.6899 126.943 70.5978 126.854 70.5302C126.766 70.4616 126.655 70.4274 126.522 70.4274C126.393 70.4274 126.286 70.4599 126.199 70.5248C126.111 70.5889 126.045 70.6788 126.001 70.7945C125.956 70.9093 125.934 71.0432 125.934 71.1963ZM128.232 69.4876V72.2216H127.917V69.4876H128.232ZM129.012 72.9905C128.958 72.9905 128.911 72.986 128.869 72.9771C128.827 72.9691 128.798 72.9611 128.782 72.9531L128.862 72.6754C128.939 72.695 129.006 72.7021 129.065 72.6968C129.124 72.6915 129.176 72.6652 129.221 72.618C129.267 72.5718 129.31 72.4966 129.348 72.3924L129.407 72.2322L128.649 70.1711H128.99L129.556 71.8051H129.578L130.144 70.1711H130.485L129.615 72.5206C129.576 72.6265 129.527 72.7142 129.47 72.7836C129.412 72.8539 129.344 72.9059 129.268 72.9398C129.192 72.9736 129.107 72.9905 129.012 72.9905ZM132.872 70.1711V70.4381H131.766V70.1711H132.872ZM132.097 72.2216V69.8881C132.097 69.7706 132.125 69.6727 132.18 69.5944C132.235 69.5161 132.307 69.4573 132.395 69.4182C132.483 69.379 132.576 69.3594 132.674 69.3594C132.751 69.3594 132.815 69.3657 132.864 69.3781C132.913 69.3906 132.949 69.4021 132.973 69.4128L132.882 69.6852C132.866 69.6798 132.844 69.6731 132.816 69.6651C132.788 69.6571 132.751 69.6531 132.706 69.6531C132.602 69.6531 132.527 69.6794 132.48 69.7319C132.435 69.7844 132.412 69.8614 132.412 69.9628V72.2216H132.097ZM133.628 69.4876V72.2216H133.313V69.4876H133.628ZM135.497 71.3832V70.1711H135.813V72.2216H135.497V71.8745H135.476C135.428 71.9786 135.353 72.0671 135.252 72.1401C135.15 72.2122 135.022 72.2483 134.867 72.2483C134.739 72.2483 134.625 72.2202 134.526 72.1642C134.426 72.1072 134.348 72.0218 134.291 71.9078C134.234 71.793 134.205 71.6484 134.205 71.474V70.1711H134.52V71.4526C134.52 71.6021 134.562 71.7214 134.646 71.8104C134.73 71.8994 134.838 71.9439 134.969 71.9439C135.047 71.9439 135.127 71.9239 135.208 71.8838C135.29 71.8438 135.358 71.7824 135.413 71.6996C135.469 71.6168 135.497 71.5114 135.497 71.3832ZM137.303 70.1711V70.4381H136.197V70.1711H137.303ZM136.528 72.2216V69.8881C136.528 69.7706 136.556 69.6727 136.611 69.5944C136.666 69.5161 136.738 69.4573 136.826 69.4182C136.914 69.379 137.007 69.3594 137.105 69.3594C137.183 69.3594 137.246 69.3657 137.295 69.3781C137.344 69.3906 137.38 69.4021 137.404 69.4128L137.313 69.6852C137.297 69.6798 137.275 69.6731 137.247 69.6651C137.219 69.6571 137.183 69.6531 137.137 69.6531C137.033 69.6531 136.958 69.6794 136.912 69.7319C136.866 69.7844 136.843 69.8614 136.843 69.9628V72.2216H136.528ZM138.657 70.1711V70.4381H137.552V70.1711H138.657ZM137.883 72.2216V69.8881C137.883 69.7706 137.911 69.6727 137.966 69.5944C138.021 69.5161 138.093 69.4573 138.181 69.4182C138.269 69.379 138.362 69.3594 138.46 69.3594C138.537 69.3594 138.6 69.3657 138.649 69.3781C138.698 69.3906 138.735 69.4021 138.759 69.4128L138.668 69.6852C138.652 69.6798 138.63 69.6731 138.601 69.6651C138.574 69.6571 138.537 69.6531 138.492 69.6531C138.388 69.6531 138.312 69.6794 138.266 69.7319C138.221 69.7844 138.198 69.8614 138.198 69.9628V72.2216H137.883ZM139.302 72.9905C139.248 72.9905 139.201 72.986 139.159 72.9771C139.117 72.9691 139.088 72.9611 139.072 72.9531L139.152 72.6754C139.229 72.695 139.296 72.7021 139.355 72.6968C139.414 72.6915 139.466 72.6652 139.511 72.618C139.558 72.5718 139.6 72.4966 139.638 72.3924L139.697 72.2322L138.939 70.1711H139.28L139.846 71.8051H139.868L140.434 70.1711H140.776L139.905 72.5206C139.866 72.6265 139.817 72.7142 139.76 72.7836C139.702 72.8539 139.635 72.9059 139.558 72.9398C139.482 72.9736 139.397 72.9905 139.302 72.9905ZM142.249 70.1711H142.564V72.3711C142.564 72.4974 142.542 72.6069 142.498 72.6995C142.456 72.792 142.391 72.8637 142.303 72.9144C142.217 72.9651 142.108 72.9905 141.976 72.9905C141.966 72.9905 141.955 72.9905 141.944 72.9905C141.934 72.9905 141.923 72.9905 141.912 72.9905V72.6968C141.923 72.6968 141.933 72.6968 141.942 72.6968C141.951 72.6968 141.96 72.6968 141.971 72.6968C142.067 72.6968 142.137 72.6683 142.182 72.6114C142.226 72.5553 142.249 72.4752 142.249 72.3711V70.1711ZM142.404 69.8293C142.342 69.8293 142.289 69.8084 142.245 69.7666C142.201 69.7248 142.179 69.6745 142.179 69.6157C142.179 69.557 142.201 69.5067 142.245 69.4649C142.289 69.4231 142.342 69.4021 142.404 69.4021C142.465 69.4021 142.517 69.4231 142.561 69.4649C142.606 69.5067 142.628 69.557 142.628 69.6157C142.628 69.6745 142.606 69.7248 142.561 69.7666C142.517 69.8084 142.465 69.8293 142.404 69.8293ZM143.744 72.2696C143.614 72.2696 143.496 72.2451 143.39 72.1962C143.284 72.1464 143.2 72.0747 143.138 71.9813C143.076 71.8869 143.045 71.773 143.045 71.6395C143.045 71.522 143.068 71.4268 143.114 71.3538C143.16 71.28 143.222 71.2221 143.3 71.1803C143.377 71.1385 143.462 71.1073 143.556 71.0868C143.65 71.0655 143.745 71.0486 143.84 71.0361C143.965 71.0201 144.066 71.0081 144.143 71.0001C144.222 70.9912 144.279 70.9765 144.314 70.956C144.351 70.9356 144.369 70.9 144.369 70.8492V70.8385C144.369 70.7068 144.333 70.6045 144.261 70.5315C144.19 70.4585 144.081 70.422 143.936 70.422C143.786 70.422 143.668 70.455 143.583 70.5208C143.497 70.5867 143.437 70.657 143.402 70.7318L143.103 70.625C143.157 70.5004 143.228 70.4034 143.317 70.3339C143.407 70.2636 143.505 70.2147 143.611 70.1871C143.717 70.1586 143.822 70.1444 143.926 70.1444C143.992 70.1444 144.067 70.1524 144.153 70.1684C144.239 70.1835 144.322 70.2151 144.402 70.2632C144.483 70.3112 144.55 70.3838 144.604 70.4808C144.657 70.5778 144.684 70.7077 144.684 70.8706V72.2216H144.369V71.9439H144.353C144.332 71.9884 144.296 72.036 144.246 72.0867C144.196 72.1375 144.13 72.1806 144.047 72.2162C143.964 72.2518 143.863 72.2696 143.744 72.2696ZM143.792 71.9866C143.917 71.9866 144.022 71.9621 144.107 71.9132C144.194 71.8642 144.259 71.801 144.302 71.7236C144.347 71.6462 144.369 71.5648 144.369 71.4793V71.191C144.356 71.207 144.326 71.2217 144.281 71.235C144.236 71.2475 144.185 71.2586 144.126 71.2684C144.068 71.2773 144.012 71.2853 143.956 71.2924C143.902 71.2987 143.858 71.304 143.824 71.3085C143.742 71.3191 143.666 71.3365 143.595 71.3605C143.524 71.3837 143.467 71.4188 143.424 71.466C143.381 71.5123 143.36 71.5754 143.36 71.6555C143.36 71.765 143.4 71.8478 143.481 71.9038C143.563 71.959 143.667 71.9866 143.792 71.9866ZM145.259 72.9905V70.1711H145.563V70.4968H145.601C145.624 70.4612 145.656 70.4158 145.697 70.3606C145.739 70.3046 145.798 70.2547 145.876 70.2111C145.954 70.1666 146.06 70.1444 146.193 70.1444C146.366 70.1444 146.518 70.1875 146.65 70.2739C146.782 70.3602 146.885 70.4826 146.958 70.641C147.032 70.7994 147.069 70.9863 147.069 71.2017C147.069 71.4188 147.032 71.607 146.958 71.7663C146.885 71.9248 146.782 72.0476 146.651 72.1348C146.521 72.2211 146.37 72.2643 146.199 72.2643C146.067 72.2643 145.962 72.2425 145.882 72.1989C145.803 72.1544 145.742 72.1041 145.7 72.048C145.657 71.9911 145.624 71.9439 145.601 71.9065H145.574V72.9905H145.259ZM145.569 71.1963C145.569 71.3512 145.591 71.4878 145.637 71.6061C145.682 71.7236 145.748 71.8157 145.836 71.8825C145.923 71.9483 146.03 71.9813 146.156 71.9813C146.288 71.9813 146.398 71.9466 146.486 71.8771C146.575 71.8068 146.642 71.7125 146.686 71.5941C146.731 71.4749 146.754 71.3423 146.754 71.1963C146.754 71.0521 146.732 70.9222 146.687 70.8065C146.644 70.6899 146.577 70.5978 146.488 70.5302C146.4 70.4616 146.29 70.4274 146.156 70.4274C146.028 70.4274 145.92 70.4599 145.833 70.5248C145.746 70.5889 145.68 70.6788 145.635 70.7945C145.591 70.9093 145.569 71.0432 145.569 71.1963ZM148.153 72.2696C148.023 72.2696 147.905 72.2451 147.799 72.1962C147.693 72.1464 147.609 72.0747 147.547 71.9813C147.485 71.8869 147.454 71.773 147.454 71.6395C147.454 71.522 147.477 71.4268 147.523 71.3538C147.569 71.28 147.631 71.2221 147.709 71.1803C147.786 71.1385 147.871 71.1073 147.965 71.0868C148.059 71.0655 148.154 71.0486 148.249 71.0361C148.374 71.0201 148.475 71.0081 148.552 71.0001C148.631 70.9912 148.688 70.9765 148.723 70.956C148.76 70.9356 148.778 70.9 148.778 70.8492V70.8385C148.778 70.7068 148.742 70.6045 148.67 70.5315C148.599 70.4585 148.49 70.422 148.345 70.422C148.195 70.422 148.077 70.455 147.992 70.5208C147.906 70.5867 147.846 70.657 147.811 70.7318L147.512 70.625C147.566 70.5004 147.637 70.4034 147.726 70.3339C147.816 70.2636 147.914 70.2147 148.02 70.1871C148.126 70.1586 148.231 70.1444 148.335 70.1444C148.401 70.1444 148.476 70.1524 148.562 70.1684C148.648 70.1835 148.731 70.2151 148.811 70.2632C148.892 70.3112 148.959 70.3838 149.013 70.4808C149.066 70.5778 149.093 70.7077 149.093 70.8706V72.2216H148.778V71.9439H148.762C148.741 71.9884 148.705 72.036 148.655 72.0867C148.605 72.1375 148.539 72.1806 148.456 72.2162C148.373 72.2518 148.272 72.2696 148.153 72.2696ZM148.201 71.9866C148.326 71.9866 148.431 71.9621 148.516 71.9132C148.603 71.8642 148.668 71.801 148.711 71.7236C148.756 71.6462 148.778 71.5648 148.778 71.4793V71.191C148.765 71.207 148.735 71.2217 148.69 71.235C148.645 71.2475 148.594 71.2586 148.535 71.2684C148.477 71.2773 148.421 71.2853 148.365 71.2924C148.311 71.2987 148.267 71.304 148.233 71.3085C148.151 71.3191 148.075 71.3365 148.004 71.3605C147.933 71.3837 147.876 71.4188 147.833 71.466C147.79 71.5123 147.769 71.5754 147.769 71.6555C147.769 71.765 147.809 71.8478 147.89 71.9038C147.972 71.959 148.076 71.9866 148.201 71.9866ZM149.983 70.9881V72.2216H149.668V70.1711H149.972V70.4915H149.999C150.047 70.3873 150.12 70.3037 150.218 70.2405C150.316 70.1764 150.442 70.1444 150.597 70.1444C150.736 70.1444 150.857 70.1729 150.962 70.2298C151.066 70.2859 151.147 70.3713 151.205 70.4861C151.262 70.6 151.291 70.7442 151.291 70.9186V72.2216H150.976V70.94C150.976 70.7789 150.934 70.6534 150.851 70.5635C150.767 70.4728 150.652 70.4274 150.506 70.4274C150.406 70.4274 150.316 70.4492 150.237 70.4928C150.158 70.5364 150.097 70.6 150.051 70.6837C150.006 70.7674 149.983 70.8688 149.983 70.9881ZM152.727 72.2643C152.529 72.2643 152.359 72.2207 152.215 72.1335C152.073 72.0453 151.963 71.9225 151.886 71.765C151.809 71.6066 151.771 71.4224 151.771 71.2123C151.771 71.0023 151.809 70.8172 151.886 70.657C151.963 70.4959 152.071 70.3704 152.209 70.2805C152.348 70.1898 152.51 70.1444 152.695 70.1444C152.801 70.1444 152.907 70.1622 153.011 70.1978C153.115 70.2334 153.21 70.2912 153.295 70.3713C153.381 70.4505 153.449 70.5555 153.5 70.6864C153.55 70.8172 153.576 70.9783 153.576 71.1696V71.3031H151.995V71.0308H153.255C153.255 70.9151 153.232 70.8118 153.186 70.7211C153.141 70.6303 153.076 70.5587 152.991 70.5061C152.907 70.4536 152.809 70.4274 152.695 70.4274C152.569 70.4274 152.461 70.4585 152.369 70.5208C152.278 70.5822 152.208 70.6623 152.159 70.7611C152.11 70.8599 152.086 70.9658 152.086 71.0788V71.2604C152.086 71.4152 152.113 71.5465 152.166 71.6542C152.22 71.761 152.296 71.8424 152.392 71.8985C152.488 71.9537 152.599 71.9813 152.727 71.9813C152.809 71.9813 152.884 71.9697 152.951 71.9466C153.019 71.9225 153.077 71.8869 153.126 71.8398C153.175 71.7917 153.213 71.7321 153.239 71.6609L153.544 71.7463C153.512 71.8496 153.458 71.9403 153.382 72.0186C153.307 72.0961 153.213 72.1566 153.102 72.2002C152.991 72.2429 152.866 72.2643 152.727 72.2643ZM155.507 70.6303L155.224 70.7104C155.207 70.6632 155.18 70.6174 155.146 70.5729C155.112 70.5275 155.066 70.4901 155.007 70.4608C154.948 70.4314 154.873 70.4167 154.781 70.4167C154.656 70.4167 154.551 70.4456 154.467 70.5035C154.385 70.5604 154.343 70.633 154.343 70.7211C154.343 70.7994 154.372 70.8612 154.429 70.9066C154.486 70.952 154.575 70.9898 154.696 71.0201L155 71.0949C155.183 71.1394 155.32 71.2074 155.41 71.2991C155.5 71.3899 155.545 71.5069 155.545 71.6502C155.545 71.7677 155.511 71.8727 155.443 71.9652C155.377 72.0578 155.283 72.1308 155.163 72.1842C155.043 72.2376 154.903 72.2643 154.744 72.2643C154.535 72.2643 154.362 72.2189 154.225 72.1281C154.087 72.0373 154.001 71.9047 153.964 71.7303L154.263 71.6555C154.292 71.7659 154.346 71.8487 154.425 71.9038C154.505 71.959 154.609 71.9866 154.738 71.9866C154.885 71.9866 155.002 71.9555 155.088 71.8932C155.175 71.83 155.219 71.7543 155.219 71.6662C155.219 71.595 155.194 71.5354 155.144 71.4873C155.094 71.4384 155.018 71.4019 154.915 71.3779L154.573 71.2978C154.385 71.2533 154.247 71.1843 154.159 71.0909C154.072 70.9965 154.028 70.8786 154.028 70.7371C154.028 70.6214 154.061 70.5191 154.126 70.4301C154.192 70.3411 154.281 70.2712 154.394 70.2205C154.508 70.1697 154.637 70.1444 154.781 70.1444C154.984 70.1444 155.143 70.1889 155.259 70.2779C155.376 70.3669 155.458 70.4843 155.507 70.6303ZM156.879 72.2643C156.681 72.2643 156.511 72.2207 156.367 72.1335C156.225 72.0453 156.115 71.9225 156.038 71.765C155.961 71.6066 155.923 71.4224 155.923 71.2123C155.923 71.0023 155.961 70.8172 156.038 70.657C156.115 70.4959 156.223 70.3704 156.361 70.2805C156.5 70.1898 156.662 70.1444 156.847 70.1444C156.953 70.1444 157.059 70.1622 157.163 70.1978C157.267 70.2334 157.362 70.2912 157.447 70.3713C157.533 70.4505 157.601 70.5555 157.652 70.6864C157.702 70.8172 157.728 70.9783 157.728 71.1696V71.3031H156.147V71.0308H157.407C157.407 70.9151 157.384 70.8118 157.338 70.7211C157.293 70.6303 157.228 70.5587 157.143 70.5061C157.059 70.4536 156.961 70.4274 156.847 70.4274C156.721 70.4274 156.613 70.4585 156.521 70.5208C156.43 70.5822 156.36 70.6623 156.311 70.7611C156.262 70.8599 156.238 70.9658 156.238 71.0788V71.2604C156.238 71.4152 156.265 71.5465 156.318 71.6542C156.372 71.761 156.448 71.8424 156.544 71.8985C156.64 71.9537 156.751 71.9813 156.879 71.9813C156.961 71.9813 157.036 71.9697 157.103 71.9466C157.171 71.9225 157.229 71.8869 157.278 71.8398C157.327 71.7917 157.365 71.7321 157.391 71.6609L157.696 71.7463C157.664 71.8496 157.61 71.9403 157.534 72.0186C157.459 72.0961 157.365 72.1566 157.254 72.2002C157.143 72.2429 157.018 72.2643 156.879 72.2643ZM159.264 72.2216V70.1711H159.569V70.4915H159.595C159.638 70.382 159.707 70.297 159.802 70.2365C159.897 70.1751 160.012 70.1444 160.145 70.1444C160.281 70.1444 160.393 70.1751 160.483 70.2365C160.574 70.297 160.645 70.382 160.695 70.4915H160.717C160.769 70.3856 160.848 70.3015 160.953 70.2392C161.058 70.176 161.184 70.1444 161.331 70.1444C161.514 70.1444 161.664 70.2018 161.781 70.3166C161.897 70.4305 161.956 70.608 161.956 70.8492V72.2216H161.64V70.8492C161.64 70.6979 161.599 70.5898 161.516 70.5248C161.434 70.4599 161.336 70.4274 161.224 70.4274C161.08 70.4274 160.968 70.471 160.889 70.5582C160.81 70.6445 160.77 70.754 160.77 70.8866V72.2216H160.45V70.8172C160.45 70.7006 160.412 70.6067 160.336 70.5355C160.261 70.4634 160.163 70.4274 160.044 70.4274C159.962 70.4274 159.885 70.4492 159.814 70.4928C159.744 70.5364 159.687 70.5969 159.643 70.6743C159.601 70.7509 159.579 70.8394 159.579 70.94V72.2216H159.264ZM162.532 72.2216V70.1711H162.847V72.2216H162.532ZM162.692 69.8293C162.63 69.8293 162.577 69.8084 162.533 69.7666C162.489 69.7248 162.467 69.6745 162.467 69.6157C162.467 69.557 162.489 69.5067 162.533 69.4649C162.577 69.4231 162.63 69.4021 162.692 69.4021C162.753 69.4021 162.806 69.4231 162.849 69.4649C162.894 69.5067 162.916 69.557 162.916 69.6157C162.916 69.6745 162.894 69.7248 162.849 69.7666C162.806 69.8084 162.753 69.8293 162.692 69.8293ZM163.739 69.4876V72.2216H163.424V69.4876H163.739ZM164.609 71.474L164.604 71.0842H164.668L165.565 70.1711H165.955L164.999 71.1376H164.973L164.609 71.474ZM164.316 72.2216V69.4876H164.631V72.2216H164.316ZM165.619 72.2216L164.818 71.207L165.042 70.9881L166.019 72.2216H165.619ZM167.461 72.2216V69.4876H167.776V70.4968H167.802C167.825 70.4612 167.857 70.4158 167.898 70.3606C167.94 70.3046 168 70.2547 168.077 70.2111C168.156 70.1666 168.262 70.1444 168.395 70.1444C168.568 70.1444 168.72 70.1875 168.852 70.2739C168.983 70.3602 169.086 70.4826 169.16 70.641C169.234 70.7994 169.271 70.9863 169.271 71.2017C169.271 71.4188 169.234 71.607 169.16 71.7663C169.086 71.9248 168.984 72.0476 168.853 72.1348C168.722 72.2211 168.571 72.2643 168.4 72.2643C168.269 72.2643 168.163 72.2425 168.084 72.1989C168.005 72.1544 167.944 72.1041 167.901 72.048C167.858 71.9911 167.825 71.9439 167.802 71.9065H167.765V72.2216H167.461ZM167.77 71.1963C167.77 71.3512 167.793 71.4878 167.838 71.6061C167.884 71.7236 167.95 71.8157 168.037 71.8825C168.124 71.9483 168.231 71.9813 168.358 71.9813C168.489 71.9813 168.599 71.9466 168.687 71.8771C168.776 71.8068 168.843 71.7125 168.888 71.5941C168.933 71.4749 168.956 71.3423 168.956 71.1963C168.956 71.0521 168.933 70.9222 168.889 70.8065C168.845 70.6899 168.779 70.5978 168.69 70.5302C168.602 70.4616 168.491 70.4274 168.358 70.4274C168.229 70.4274 168.122 70.4599 168.035 70.5248C167.947 70.5889 167.881 70.6788 167.837 70.7945C167.793 70.9093 167.77 71.0432 167.77 71.1963ZM169.753 72.2216V70.1711H170.057V70.4808H170.078C170.116 70.3793 170.183 70.297 170.281 70.2338C170.379 70.1706 170.49 70.139 170.612 70.139C170.636 70.139 170.664 70.1395 170.699 70.1404C170.734 70.1413 170.76 70.1426 170.778 70.1444V70.4648C170.767 70.4621 170.743 70.4581 170.704 70.4527C170.667 70.4465 170.627 70.4434 170.586 70.4434C170.486 70.4434 170.397 70.4643 170.319 70.5061C170.241 70.5471 170.18 70.604 170.134 70.677C170.09 70.7491 170.068 70.8314 170.068 70.924V72.2216H169.753ZM171.949 72.2643C171.751 72.2643 171.581 72.2207 171.437 72.1335C171.295 72.0453 171.185 71.9225 171.108 71.765C171.031 71.6066 170.993 71.4224 170.993 71.2123C170.993 71.0023 171.031 70.8172 171.108 70.657C171.185 70.4959 171.293 70.3704 171.431 70.2805C171.57 70.1898 171.731 70.1444 171.917 70.1444C172.023 70.1444 172.129 70.1622 172.233 70.1978C172.337 70.2334 172.432 70.2912 172.517 70.3713C172.603 70.4505 172.671 70.5555 172.722 70.6864C172.772 70.8172 172.798 70.9783 172.798 71.1696V71.3031H171.217V71.0308H172.477C172.477 70.9151 172.454 70.8118 172.408 70.7211C172.362 70.6303 172.298 70.5587 172.213 70.5061C172.129 70.4536 172.031 70.4274 171.917 70.4274C171.791 70.4274 171.683 70.4585 171.591 70.5208C171.5 70.5822 171.43 70.6623 171.381 70.7611C171.332 70.8599 171.308 70.9658 171.308 71.0788V71.2604C171.308 71.4152 171.335 71.5465 171.388 71.6542C171.442 71.761 171.517 71.8424 171.614 71.8985C171.71 71.9537 171.821 71.9813 171.949 71.9813C172.031 71.9813 172.106 71.9697 172.173 71.9466C172.241 71.9225 172.299 71.8869 172.348 71.8398C172.397 71.7917 172.435 71.7321 172.461 71.6609L172.766 71.7463C172.734 71.8496 172.68 71.9403 172.604 72.0186C172.528 72.0961 172.435 72.1566 172.324 72.2002C172.213 72.2429 172.087 72.2643 171.949 72.2643ZM173.88 72.2696C173.75 72.2696 173.632 72.2451 173.527 72.1962C173.421 72.1464 173.337 72.0747 173.274 71.9813C173.212 71.8869 173.181 71.773 173.181 71.6395C173.181 71.522 173.204 71.4268 173.25 71.3538C173.297 71.28 173.358 71.2221 173.436 71.1803C173.513 71.1385 173.599 71.1073 173.692 71.0868C173.786 71.0655 173.881 71.0486 173.976 71.0361C174.101 71.0201 174.202 71.0081 174.279 71.0001C174.358 70.9912 174.415 70.9765 174.45 70.956C174.487 70.9356 174.505 70.9 174.505 70.8492V70.8385C174.505 70.7068 174.469 70.6045 174.397 70.5315C174.326 70.4585 174.218 70.422 174.073 70.422C173.922 70.422 173.804 70.455 173.719 70.5208C173.633 70.5867 173.573 70.657 173.539 70.7318L173.24 70.625C173.293 70.5004 173.364 70.4034 173.453 70.3339C173.543 70.2636 173.641 70.2147 173.747 70.1871C173.854 70.1586 173.959 70.1444 174.062 70.1444C174.128 70.1444 174.203 70.1524 174.289 70.1684C174.375 70.1835 174.458 70.2151 174.538 70.2632C174.619 70.3112 174.687 70.3838 174.74 70.4808C174.793 70.5778 174.82 70.7077 174.82 70.8706V72.2216H174.505V71.9439H174.489C174.468 71.9884 174.432 72.036 174.382 72.0867C174.332 72.1375 174.266 72.1806 174.183 72.2162C174.101 72.2518 174 72.2696 173.88 72.2696ZM173.928 71.9866C174.053 71.9866 174.158 71.9621 174.243 71.9132C174.33 71.8642 174.395 71.801 174.438 71.7236C174.483 71.6462 174.505 71.5648 174.505 71.4793V71.191C174.492 71.207 174.462 71.2217 174.417 71.235C174.372 71.2475 174.321 71.2586 174.262 71.2684C174.204 71.2773 174.148 71.2853 174.093 71.2924C174.038 71.2987 173.994 71.304 173.96 71.3085C173.879 71.3191 173.802 71.3365 173.731 71.3605C173.661 71.3837 173.604 71.4188 173.56 71.466C173.517 71.5123 173.496 71.5754 173.496 71.6555C173.496 71.765 173.536 71.8478 173.617 71.9038C173.699 71.959 173.803 71.9866 173.928 71.9866ZM176.169 72.2643C175.999 72.2643 175.848 72.2211 175.717 72.1348C175.586 72.0476 175.484 71.9248 175.41 71.7663C175.336 71.607 175.299 71.4188 175.299 71.2017C175.299 70.9863 175.336 70.7994 175.41 70.641C175.484 70.4826 175.587 70.3602 175.718 70.2739C175.85 70.1875 176.002 70.1444 176.175 70.1444C176.308 70.1444 176.414 70.1666 176.491 70.2111C176.569 70.2547 176.629 70.3046 176.67 70.3606C176.712 70.4158 176.744 70.4612 176.767 70.4968H176.794V69.4876H177.109V72.2216H176.805V71.9065H176.767C176.744 71.9439 176.711 71.9911 176.669 72.048C176.626 72.1041 176.565 72.1544 176.486 72.1989C176.407 72.2425 176.301 72.2643 176.169 72.2643ZM176.212 71.9813C176.339 71.9813 176.445 71.9483 176.533 71.8825C176.62 71.8157 176.686 71.7236 176.731 71.6061C176.777 71.4878 176.8 71.3512 176.8 71.1963C176.8 71.0432 176.777 70.9093 176.733 70.7945C176.688 70.6788 176.622 70.5889 176.535 70.5248C176.448 70.4599 176.34 70.4274 176.212 70.4274C176.079 70.4274 175.967 70.4616 175.878 70.5302C175.79 70.5978 175.724 70.6899 175.68 70.8065C175.636 70.9222 175.614 71.0521 175.614 71.1963C175.614 71.3423 175.636 71.4749 175.681 71.5941C175.726 71.7125 175.793 71.8068 175.881 71.8771C175.97 71.9466 176.08 71.9813 176.212 71.9813Z"
        fill="#949494" />
      <path
        d="M77.0125 85.7523C77.0125 82.984 79.2565 80.74 82.0247 80.74H122.75C125.518 80.74 127.762 82.984 127.762 85.7523V135.875H77.0125V85.7523Z"
        fill="#E6E6E6" />
      <rect x="77.0123" y="127.731" width="50.7495" height="28.1942" rx="5.0123" fill="#D1D1D1" />
      <path
        d="M133.871 85.7521C133.871 82.9839 136.115 80.7398 138.883 80.7398H179.608C182.376 80.7398 184.62 82.9839 184.62 85.7521V135.875H133.871V85.7521Z"
        fill="#E6E6E6" />
      <rect x="133.87" y="127.73" width="50.7495" height="28.1942" rx="5.0123" fill="#D1D1D1" />
    </g>
  </g>
  <path
    d="M40.3082 28.5703V27.9091H44.2482V28.5703H42.6598V33H41.8942V28.5703H40.3082ZM45.6508 33.0845C45.4089 33.0845 45.1901 33.0398 44.9946 32.9503C44.799 32.8591 44.6441 32.7274 44.5297 32.555C44.4171 32.3827 44.3607 32.1714 44.3607 31.9212C44.3607 31.7057 44.4021 31.5284 44.485 31.3892C44.5679 31.25 44.6797 31.1398 44.8206 31.0586C44.9614 30.9774 45.1189 30.9161 45.2929 30.8746C45.4669 30.8332 45.6442 30.8017 45.8248 30.7802C46.0535 30.7537 46.2391 30.7321 46.3817 30.7156C46.5242 30.6973 46.6278 30.6683 46.6924 30.6286C46.757 30.5888 46.7893 30.5241 46.7893 30.4347V30.4173C46.7893 30.2002 46.728 30.032 46.6054 29.9126C46.4844 29.7933 46.3038 29.7337 46.0635 29.7337C45.8132 29.7337 45.616 29.7892 45.4719 29.9002C45.3293 30.0096 45.2307 30.1314 45.176 30.2656L44.4775 30.1065C44.5604 29.8745 44.6814 29.6873 44.8405 29.5447C45.0012 29.4006 45.186 29.2962 45.3948 29.2315C45.6036 29.1652 45.8232 29.1321 46.0535 29.1321C46.206 29.1321 46.3676 29.1503 46.5383 29.1868C46.7106 29.2216 46.8714 29.2862 47.0205 29.3807C47.1713 29.4751 47.2948 29.6102 47.3909 29.7859C47.487 29.9599 47.5351 30.1861 47.5351 30.4645V33H46.8092V32.478H46.7794C46.7313 32.5741 46.6592 32.6686 46.5631 32.7614C46.467 32.8542 46.3435 32.9312 46.1927 32.9925C46.0419 33.0539 45.8613 33.0845 45.6508 33.0845ZM45.8124 32.4879C46.0179 32.4879 46.1936 32.4473 46.3394 32.3661C46.4869 32.2849 46.5988 32.1789 46.675 32.0479C46.7529 31.9154 46.7918 31.7737 46.7918 31.6229V31.1307C46.7653 31.1572 46.7139 31.1821 46.6377 31.2053C46.5631 31.2268 46.4778 31.2459 46.3817 31.2624C46.2855 31.2773 46.1919 31.2914 46.1008 31.3047C46.0096 31.3163 45.9334 31.3262 45.8721 31.3345C45.7279 31.3527 45.5961 31.3834 45.4768 31.4265C45.3592 31.4696 45.2647 31.5317 45.1934 31.6129C45.1238 31.6925 45.089 31.7985 45.089 31.9311C45.089 32.1151 45.157 32.2543 45.2929 32.3487C45.4288 32.4415 45.6019 32.4879 45.8124 32.4879ZM50.1259 34.5114C49.8226 34.5114 49.5616 34.4716 49.3429 34.392C49.1258 34.3125 48.9484 34.2073 48.8109 34.0763C48.6734 33.9454 48.5706 33.8021 48.5027 33.6463L49.1415 33.3828C49.1863 33.4557 49.2459 33.5328 49.3205 33.614C49.3967 33.6969 49.4995 33.7673 49.6287 33.8253C49.7596 33.8833 49.9279 33.9123 50.1333 33.9123C50.4151 33.9123 50.6479 33.8435 50.8319 33.706C51.0158 33.5701 51.1078 33.353 51.1078 33.0547V32.304H51.0605C51.0158 32.3852 50.9512 32.4755 50.8667 32.5749C50.7838 32.6744 50.6694 32.7605 50.5236 32.8335C50.3778 32.9064 50.188 32.9428 49.9544 32.9428C49.6528 32.9428 49.381 32.8724 49.139 32.7315C48.8987 32.589 48.7082 32.3794 48.5673 32.1026C48.4281 31.8242 48.3585 31.482 48.3585 31.076C48.3585 30.67 48.4273 30.322 48.5648 30.032C48.704 29.742 48.8946 29.5199 49.1365 29.3658C49.3785 29.21 49.6528 29.1321 49.9593 29.1321C50.1963 29.1321 50.3877 29.1719 50.5336 29.2514C50.6794 29.3293 50.7929 29.4205 50.8741 29.5249C50.957 29.6293 51.0208 29.7212 51.0655 29.8008H51.1202V29.1818H51.8485V33.0845C51.8485 33.4126 51.7723 33.6819 51.6198 33.8924C51.4674 34.1029 51.2611 34.2586 51.0009 34.3597C50.7424 34.4608 50.4507 34.5114 50.1259 34.5114ZM50.1184 32.3263C50.3322 32.3263 50.5128 32.2766 50.6603 32.1772C50.8095 32.0761 50.9222 31.9319 50.9984 31.7447C51.0763 31.5558 51.1152 31.3295 51.1152 31.0661C51.1152 30.8092 51.0771 30.583 51.0009 30.3874C50.9247 30.1919 50.8128 30.0394 50.6653 29.93C50.5178 29.819 50.3355 29.7635 50.1184 29.7635C49.8947 29.7635 49.7083 29.8215 49.5591 29.9375C49.41 30.0518 49.2973 30.2076 49.2211 30.4048C49.1465 30.602 49.1092 30.8224 49.1092 31.0661C49.1092 31.3163 49.1473 31.5359 49.2235 31.7248C49.2998 31.9137 49.4125 32.0612 49.5616 32.1673C49.7124 32.2733 49.898 32.3263 50.1184 32.3263ZM55.7065 30.114L55.0328 30.2333C55.0047 30.1471 54.9599 30.0651 54.8986 29.9872C54.839 29.9093 54.7578 29.8455 54.655 29.7958C54.5523 29.7461 54.4238 29.7212 54.2697 29.7212C54.0592 29.7212 53.8836 29.7685 53.7427 29.8629C53.6019 29.9557 53.5314 30.0759 53.5314 30.2234C53.5314 30.351 53.5787 30.4537 53.6731 30.5316C53.7676 30.6095 53.92 30.6733 54.1305 30.723L54.737 30.8622C55.0884 30.9434 55.3502 31.0685 55.5225 31.2376C55.6949 31.4066 55.7811 31.6262 55.7811 31.8963C55.7811 32.125 55.7148 32.3288 55.5822 32.5078C55.4513 32.6851 55.2682 32.8243 55.0328 32.9254C54.7992 33.0265 54.5282 33.0771 54.22 33.0771C53.7924 33.0771 53.4436 32.9859 53.1735 32.8036C52.9033 32.6197 52.7376 32.3587 52.6763 32.0206L53.3947 31.9112C53.4395 32.0985 53.5314 32.2402 53.6706 32.3363C53.8098 32.4308 53.9913 32.478 54.215 32.478C54.4586 32.478 54.6533 32.4274 54.7992 32.3263C54.945 32.2236 55.0179 32.0985 55.0179 31.951C55.0179 31.8317 54.9732 31.7314 54.8837 31.6502C54.7959 31.569 54.6608 31.5077 54.4785 31.4663L53.8322 31.3246C53.4759 31.2434 53.2124 31.1141 53.0417 30.9368C52.8727 30.7595 52.7882 30.5349 52.7882 30.2631C52.7882 30.0378 52.8511 29.8406 52.9771 29.6715C53.103 29.5025 53.277 29.3707 53.4991 29.2763C53.7212 29.1802 53.9756 29.1321 54.2622 29.1321C54.6749 29.1321 54.9997 29.2216 55.2367 29.4006C55.4737 29.5779 55.6303 29.8157 55.7065 30.114Z"
    fill="#191919" />
  <path
    d="M202.343 56.5646H201.567C201.537 56.3989 201.482 56.2531 201.401 56.1271C201.319 56.0012 201.22 55.8943 201.102 55.8065C200.985 55.7186 200.853 55.6523 200.707 55.6076C200.563 55.5629 200.41 55.5405 200.247 55.5405C199.954 55.5405 199.691 55.6142 199.459 55.7617C199.229 55.9092 199.047 56.1255 198.912 56.4105C198.78 56.6955 198.714 57.0436 198.714 57.4545C198.714 57.8688 198.78 58.2185 198.912 58.5036C199.047 58.7886 199.23 59.004 199.462 59.1499C199.694 59.2957 199.955 59.3686 200.245 59.3686C200.406 59.3686 200.558 59.3471 200.702 59.304C200.848 59.2592 200.98 59.1938 201.097 59.1076C201.215 59.0214 201.315 58.9162 201.396 58.7919C201.479 58.666 201.536 58.5218 201.567 58.3594L202.343 58.3619C202.301 58.6121 202.221 58.8424 202.102 59.0529C201.984 59.2617 201.832 59.4424 201.647 59.5948C201.463 59.7456 201.252 59.8625 201.015 59.9453C200.778 60.0282 200.52 60.0696 200.24 60.0696C199.799 60.0696 199.406 59.9652 199.062 59.7564C198.717 59.5459 198.445 59.2451 198.246 58.854C198.049 58.4629 197.95 57.9964 197.95 57.4545C197.95 56.911 198.05 56.4445 198.249 56.055C198.448 55.6639 198.719 55.364 199.064 55.1552C199.409 54.9447 199.801 54.8395 200.24 54.8395C200.51 54.8395 200.762 54.8784 200.996 54.9563C201.231 55.0326 201.442 55.1452 201.629 55.2944C201.817 55.4419 201.972 55.6225 202.094 55.8363C202.217 56.0484 202.3 56.2912 202.343 56.5646ZM204.313 60.0845C204.071 60.0845 203.853 60.0398 203.657 59.9503C203.462 59.8591 203.307 59.7274 203.192 59.555C203.08 59.3827 203.023 59.1714 203.023 58.9212C203.023 58.7057 203.065 58.5284 203.148 58.3892C203.23 58.25 203.342 58.1398 203.483 58.0586C203.624 57.9774 203.781 57.9161 203.955 57.8746C204.129 57.8332 204.307 57.8017 204.487 57.7802C204.716 57.7537 204.902 57.7321 205.044 57.7156C205.187 57.6973 205.29 57.6683 205.355 57.6286C205.42 57.5888 205.452 57.5241 205.452 57.4347V57.4173C205.452 57.2002 205.391 57.032 205.268 56.9126C205.147 56.7933 204.966 56.7337 204.726 56.7337C204.476 56.7337 204.279 56.7892 204.134 56.9002C203.992 57.0096 203.893 57.1314 203.839 57.2656L203.14 57.1065C203.223 56.8745 203.344 56.6873 203.503 56.5447C203.664 56.4006 203.849 56.2962 204.057 56.2315C204.266 56.1652 204.486 56.1321 204.716 56.1321C204.869 56.1321 205.03 56.1503 205.201 56.1868C205.373 56.2216 205.534 56.2862 205.683 56.3807C205.834 56.4751 205.957 56.6102 206.053 56.7859C206.15 56.9599 206.198 57.1861 206.198 57.4645V60H205.472V59.478H205.442C205.394 59.5741 205.322 59.6686 205.226 59.7614C205.13 59.8542 205.006 59.9312 204.855 59.9925C204.705 60.0539 204.524 60.0845 204.313 60.0845ZM204.475 59.4879C204.681 59.4879 204.856 59.4473 205.002 59.3661C205.149 59.2849 205.261 59.1789 205.338 59.0479C205.415 58.9154 205.454 58.7737 205.454 58.6229V58.1307C205.428 58.1572 205.377 58.1821 205.3 58.2053C205.226 58.2268 205.14 58.2459 205.044 58.2624C204.948 58.2773 204.855 58.2914 204.763 58.3047C204.672 58.3163 204.596 58.3262 204.535 58.3345C204.39 58.3527 204.259 58.3834 204.139 58.4265C204.022 58.4696 203.927 58.5317 203.856 58.6129C203.786 58.6925 203.752 58.7985 203.752 58.9311C203.752 59.1151 203.82 59.2543 203.955 59.3487C204.091 59.4415 204.265 59.4879 204.475 59.4879ZM208.97 56.1818V56.7784H206.884V56.1818H208.97ZM207.444 55.267H208.187V58.8789C208.187 59.0231 208.208 59.1316 208.252 59.2045C208.295 59.2758 208.35 59.3247 208.418 59.3512C208.488 59.3761 208.563 59.3885 208.644 59.3885C208.704 59.3885 208.756 59.3844 208.801 59.3761C208.846 59.3678 208.88 59.3612 208.905 59.3562L209.04 59.9702C208.996 59.9867 208.935 60.0033 208.856 60.0199C208.776 60.0381 208.677 60.0481 208.557 60.0497C208.362 60.053 208.179 60.0182 208.01 59.9453C207.841 59.8724 207.705 59.7597 207.6 59.6072C207.496 59.4548 207.444 59.2634 207.444 59.033V55.267ZM211.397 60.0771C211.021 60.0771 210.697 59.9967 210.425 59.8359C210.155 59.6735 209.946 59.4457 209.798 59.1523C209.653 58.8574 209.58 58.5118 209.58 58.1158C209.58 57.7247 209.653 57.38 209.798 57.0817C209.946 56.7834 210.151 56.5505 210.415 56.3832C210.68 56.2158 210.99 56.1321 211.345 56.1321C211.56 56.1321 211.769 56.1677 211.971 56.239C212.173 56.3103 212.355 56.4221 212.515 56.5746C212.676 56.727 212.803 56.9251 212.896 57.1687C212.988 57.4106 213.035 57.7048 213.035 58.0511V58.3146H210V57.7578H212.307C212.307 57.5623 212.267 57.3891 212.187 57.2383C212.108 57.0858 211.996 56.9657 211.852 56.8778C211.709 56.79 211.542 56.7461 211.349 56.7461C211.141 56.7461 210.958 56.7975 210.803 56.9002C210.648 57.0013 210.529 57.1339 210.445 57.2979C210.362 57.4603 210.32 57.6368 210.32 57.8274V58.2624C210.32 58.5176 210.365 58.7347 210.455 58.9137C210.546 59.0927 210.673 59.2294 210.835 59.3239C210.997 59.4167 211.187 59.4631 211.404 59.4631C211.545 59.4631 211.673 59.4432 211.789 59.4034C211.905 59.362 212.006 59.3007 212.09 59.2195C212.175 59.1383 212.239 59.038 212.284 58.9187L212.988 59.0455C212.931 59.2526 212.83 59.4341 212.684 59.5898C212.54 59.744 212.359 59.8641 212.14 59.9503C211.923 60.0348 211.675 60.0771 211.397 60.0771ZM215.46 61.5114C215.157 61.5114 214.896 61.4716 214.677 61.392C214.46 61.3125 214.283 61.2073 214.145 61.0763C214.008 60.9454 213.905 60.8021 213.837 60.6463L214.476 60.3828C214.521 60.4557 214.58 60.5328 214.655 60.614C214.731 60.6969 214.834 60.7673 214.963 60.8253C215.094 60.8833 215.262 60.9123 215.468 60.9123C215.75 60.9123 215.982 60.8435 216.166 60.706C216.35 60.5701 216.442 60.353 216.442 60.0547V59.304H216.395C216.35 59.3852 216.286 59.4755 216.201 59.5749C216.118 59.6744 216.004 59.7605 215.858 59.8335C215.712 59.9064 215.523 59.9428 215.289 59.9428C214.987 59.9428 214.715 59.8724 214.473 59.7315C214.233 59.589 214.043 59.3794 213.902 59.1026C213.763 58.8242 213.693 58.482 213.693 58.076C213.693 57.67 213.762 57.322 213.899 57.032C214.038 56.742 214.229 56.5199 214.471 56.3658C214.713 56.21 214.987 56.1321 215.294 56.1321C215.531 56.1321 215.722 56.1719 215.868 56.2514C216.014 56.3293 216.127 56.4205 216.209 56.5249C216.291 56.6293 216.355 56.7212 216.4 56.8008H216.455V56.1818H217.183V60.0845C217.183 60.4126 217.107 60.6819 216.954 60.8924C216.802 61.1029 216.596 61.2586 216.335 61.3597C216.077 61.4608 215.785 61.5114 215.46 61.5114ZM215.453 59.3263C215.667 59.3263 215.847 59.2766 215.995 59.1772C216.144 59.0761 216.257 58.9319 216.333 58.7447C216.411 58.5558 216.45 58.3295 216.45 58.0661C216.45 57.8092 216.412 57.583 216.335 57.3874C216.259 57.1919 216.147 57.0394 216 56.93C215.852 56.819 215.67 56.7635 215.453 56.7635C215.229 56.7635 215.043 56.8215 214.894 56.9375C214.744 57.0518 214.632 57.2076 214.556 57.4048C214.481 57.602 214.444 57.8224 214.444 58.0661C214.444 58.3163 214.482 58.5359 214.558 58.7248C214.634 58.9137 214.747 59.0612 214.896 59.1673C215.047 59.2733 215.232 59.3263 215.453 59.3263ZM219.788 60.0771C219.43 60.0771 219.118 59.995 218.851 59.831C218.584 59.6669 218.377 59.4374 218.23 59.1424C218.082 58.8474 218.008 58.5027 218.008 58.1083C218.008 57.7122 218.082 57.3659 218.23 57.0692C218.377 56.7726 218.584 56.5423 218.851 56.3782C219.118 56.2141 219.43 56.1321 219.788 56.1321C220.146 56.1321 220.458 56.2141 220.725 56.3782C220.992 56.5423 221.199 56.7726 221.347 57.0692C221.494 57.3659 221.568 57.7122 221.568 58.1083C221.568 58.5027 221.494 58.8474 221.347 59.1424C221.199 59.4374 220.992 59.6669 220.725 59.831C220.458 59.995 220.146 60.0771 219.788 60.0771ZM219.791 59.4531C220.023 59.4531 220.215 59.3918 220.367 59.2692C220.52 59.1465 220.632 58.9833 220.705 58.7795C220.78 58.5756 220.817 58.3511 220.817 58.1058C220.817 57.8622 220.78 57.6385 220.705 57.4347C220.632 57.2292 220.52 57.0643 220.367 56.94C220.215 56.8157 220.023 56.7536 219.791 56.7536C219.557 56.7536 219.363 56.8157 219.209 56.94C219.056 57.0643 218.943 57.2292 218.868 57.4347C218.795 57.6385 218.759 57.8622 218.759 58.1058C218.759 58.3511 218.795 58.5756 218.868 58.7795C218.943 58.9833 219.056 59.1465 219.209 59.2692C219.363 59.3918 219.557 59.4531 219.791 59.4531ZM222.398 60V56.1818H223.116V56.7884H223.156C223.225 56.5829 223.348 56.4213 223.524 56.3036C223.701 56.1843 223.901 56.1246 224.125 56.1246C224.172 56.1246 224.226 56.1263 224.289 56.1296C224.354 56.1329 224.404 56.1371 224.441 56.142V56.853C224.411 56.8447 224.358 56.8356 224.282 56.8256C224.206 56.814 224.129 56.8082 224.053 56.8082C223.877 56.8082 223.721 56.8455 223.583 56.9201C223.447 56.993 223.34 57.0949 223.26 57.2259C223.181 57.3551 223.141 57.5026 223.141 57.6683V60H222.398ZM225.67 61.4318C225.559 61.4318 225.458 61.4227 225.367 61.4045C225.276 61.3879 225.208 61.3697 225.163 61.3498L225.342 60.7408C225.478 60.7772 225.599 60.793 225.705 60.788C225.811 60.783 225.905 60.7433 225.986 60.6687C226.069 60.5941 226.142 60.4723 226.205 60.3033L226.297 60.0497L224.9 56.1818H225.695L226.662 59.1449H226.702L227.669 56.1818H228.467L226.893 60.5096C226.82 60.7085 226.727 60.8767 226.615 61.0142C226.502 61.1534 226.368 61.2578 226.212 61.3274C226.056 61.397 225.876 61.4318 225.67 61.4318Z"
    fill="#191919" />
  <path
    d="M202.788 71.5646H202.012C201.982 71.3989 201.927 71.2531 201.846 71.1271C201.764 71.0012 201.665 70.8943 201.547 70.8065C201.43 70.7186 201.298 70.6523 201.152 70.6076C201.008 70.5629 200.855 70.5405 200.692 70.5405C200.399 70.5405 200.136 70.6142 199.904 70.7617C199.674 70.9092 199.491 71.1255 199.357 71.4105C199.225 71.6955 199.158 72.0436 199.158 72.4545C199.158 72.8688 199.225 73.2185 199.357 73.5036C199.491 73.7886 199.675 74.004 199.907 74.1499C200.139 74.2957 200.4 74.3686 200.69 74.3686C200.85 74.3686 201.003 74.3471 201.147 74.304C201.293 74.2592 201.425 74.1938 201.542 74.1076C201.66 74.0214 201.759 73.9162 201.841 73.7919C201.923 73.666 201.981 73.5218 202.012 73.3594L202.788 73.3619C202.746 73.6121 202.666 73.8424 202.547 74.0529C202.429 74.2617 202.277 74.4424 202.092 74.5948C201.908 74.7456 201.697 74.8625 201.46 74.9453C201.223 75.0282 200.965 75.0696 200.685 75.0696C200.244 75.0696 199.851 74.9652 199.506 74.7564C199.162 74.5459 198.89 74.2451 198.691 73.854C198.494 73.4629 198.395 72.9964 198.395 72.4545C198.395 71.911 198.495 71.4445 198.694 71.055C198.892 70.6639 199.164 70.364 199.509 70.1552C199.854 69.9447 200.246 69.8395 200.685 69.8395C200.955 69.8395 201.207 69.8784 201.44 69.9563C201.676 70.0326 201.887 70.1452 202.074 70.2944C202.261 70.4419 202.416 70.6225 202.539 70.8363C202.662 71.0484 202.745 71.2912 202.788 71.5646ZM204.758 75.0845C204.516 75.0845 204.298 75.0398 204.102 74.9503C203.906 74.8591 203.752 74.7274 203.637 74.555C203.524 74.3827 203.468 74.1714 203.468 73.9212C203.468 73.7057 203.51 73.5284 203.592 73.3892C203.675 73.25 203.787 73.1398 203.928 73.0586C204.069 72.9774 204.226 72.9161 204.4 72.8746C204.574 72.8332 204.752 72.8017 204.932 72.7802C205.161 72.7537 205.347 72.7321 205.489 72.7156C205.632 72.6973 205.735 72.6683 205.8 72.6286C205.864 72.5888 205.897 72.5241 205.897 72.4347V72.4173C205.897 72.2002 205.835 72.032 205.713 71.9126C205.592 71.7933 205.411 71.7337 205.171 71.7337C204.921 71.7337 204.723 71.7892 204.579 71.9002C204.437 72.0096 204.338 72.1314 204.283 72.2656L203.585 72.1065C203.668 71.8745 203.789 71.6873 203.948 71.5447C204.109 71.4006 204.293 71.2962 204.502 71.2315C204.711 71.1652 204.931 71.1321 205.161 71.1321C205.313 71.1321 205.475 71.1503 205.646 71.1868C205.818 71.2216 205.979 71.2862 206.128 71.3807C206.279 71.4751 206.402 71.6102 206.498 71.7859C206.594 71.9599 206.642 72.1861 206.642 72.4645V75H205.917V74.478H205.887C205.839 74.5741 205.767 74.6686 205.671 74.7614C205.574 74.8542 205.451 74.9312 205.3 74.9925C205.149 75.0539 204.969 75.0845 204.758 75.0845ZM204.92 74.4879C205.125 74.4879 205.301 74.4473 205.447 74.3661C205.594 74.2849 205.706 74.1789 205.782 74.0479C205.86 73.9154 205.899 73.7737 205.899 73.6229V73.1307C205.873 73.1572 205.821 73.1821 205.745 73.2053C205.671 73.2268 205.585 73.2459 205.489 73.2624C205.393 73.2773 205.299 73.2914 205.208 73.3047C205.117 73.3163 205.041 73.3262 204.979 73.3345C204.835 73.3527 204.704 73.3834 204.584 73.4265C204.467 73.4696 204.372 73.5317 204.301 73.6129C204.231 73.6925 204.196 73.7985 204.196 73.9311C204.196 74.1151 204.264 74.2543 204.4 74.3487C204.536 74.4415 204.709 74.4879 204.92 74.4879ZM209.415 71.1818V71.7784H207.329V71.1818H209.415ZM207.888 70.267H208.632V73.8789C208.632 74.0231 208.653 74.1316 208.696 74.2045C208.739 74.2758 208.795 74.3247 208.863 74.3512C208.933 74.3761 209.008 74.3885 209.089 74.3885C209.149 74.3885 209.201 74.3844 209.246 74.3761C209.29 74.3678 209.325 74.3612 209.35 74.3562L209.484 74.9702C209.441 74.9867 209.38 75.0033 209.3 75.0199C209.221 75.0381 209.121 75.0481 209.002 75.0497C208.807 75.053 208.624 75.0182 208.455 74.9453C208.286 74.8724 208.15 74.7597 208.045 74.6072C207.941 74.4548 207.888 74.2634 207.888 74.033V70.267ZM211.842 75.0771C211.465 75.0771 211.141 74.9967 210.87 74.8359C210.599 74.6735 210.391 74.4457 210.243 74.1523C210.097 73.8574 210.024 73.5118 210.024 73.1158C210.024 72.7247 210.097 72.38 210.243 72.0817C210.391 71.7834 210.596 71.5505 210.86 71.3832C211.125 71.2158 211.435 71.1321 211.789 71.1321C212.005 71.1321 212.214 71.1677 212.416 71.239C212.618 71.3103 212.799 71.4221 212.96 71.5746C213.121 71.727 213.248 71.9251 213.34 72.1687C213.433 72.4106 213.48 72.7048 213.48 73.0511V73.3146H210.445V72.7578H212.751C212.751 72.5623 212.712 72.3891 212.632 72.2383C212.552 72.0858 212.441 71.9657 212.296 71.8778C212.154 71.79 211.987 71.7461 211.794 71.7461C211.585 71.7461 211.403 71.7975 211.247 71.9002C211.093 72.0013 210.974 72.1339 210.889 72.2979C210.807 72.4603 210.765 72.6368 210.765 72.8274V73.2624C210.765 73.5176 210.81 73.7347 210.899 73.9137C210.991 74.0927 211.117 74.2294 211.28 74.3239C211.442 74.4167 211.632 74.4631 211.849 74.4631C211.99 74.4631 212.118 74.4432 212.234 74.4034C212.35 74.362 212.451 74.3007 212.535 74.2195C212.62 74.1383 212.684 74.038 212.729 73.9187L213.432 74.0455C213.376 74.2526 213.275 74.4341 213.129 74.5898C212.985 74.744 212.804 74.8641 212.585 74.9503C212.368 75.0348 212.12 75.0771 211.842 75.0771ZM215.905 76.5114C215.602 76.5114 215.341 76.4716 215.122 76.392C214.905 76.3125 214.728 76.2073 214.59 76.0763C214.453 75.9454 214.35 75.8021 214.282 75.6463L214.921 75.3828C214.966 75.4557 215.025 75.5328 215.1 75.614C215.176 75.6969 215.279 75.7673 215.408 75.8253C215.539 75.8833 215.707 75.9123 215.913 75.9123C216.194 75.9123 216.427 75.8435 216.611 75.706C216.795 75.5701 216.887 75.353 216.887 75.0547V74.304H216.84C216.795 74.3852 216.73 74.4755 216.646 74.5749C216.563 74.6744 216.449 74.7605 216.303 74.8335C216.157 74.9064 215.967 74.9428 215.734 74.9428C215.432 74.9428 215.16 74.8724 214.918 74.7315C214.678 74.589 214.487 74.3794 214.347 74.1026C214.207 73.8242 214.138 73.482 214.138 73.076C214.138 72.67 214.207 72.322 214.344 72.032C214.483 71.742 214.674 71.5199 214.916 71.3658C215.158 71.21 215.432 71.1321 215.739 71.1321C215.976 71.1321 216.167 71.1719 216.313 71.2514C216.459 71.3293 216.572 71.4205 216.653 71.5249C216.736 71.6293 216.8 71.7212 216.845 71.8008H216.9V71.1818H217.628V75.0845C217.628 75.4126 217.552 75.6819 217.399 75.8924C217.247 76.1029 217.04 76.2586 216.78 76.3597C216.522 76.4608 216.23 76.5114 215.905 76.5114ZM215.898 74.3263C216.112 74.3263 216.292 74.2766 216.44 74.1772C216.589 74.0761 216.701 73.9319 216.778 73.7447C216.856 73.5558 216.895 73.3295 216.895 73.0661C216.895 72.8092 216.856 72.583 216.78 72.3874C216.704 72.1919 216.592 72.0394 216.445 71.93C216.297 71.819 216.115 71.7635 215.898 71.7635C215.674 71.7635 215.488 71.8215 215.338 71.9375C215.189 72.0518 215.077 72.2076 215 72.4048C214.926 72.602 214.888 72.8224 214.888 73.0661C214.888 73.3163 214.927 73.5359 215.003 73.7248C215.079 73.9137 215.192 74.0612 215.341 74.1673C215.492 74.2733 215.677 74.3263 215.898 74.3263ZM220.233 75.0771C219.875 75.0771 219.563 74.995 219.296 74.831C219.029 74.6669 218.822 74.4374 218.674 74.1424C218.527 73.8474 218.453 73.5027 218.453 73.1083C218.453 72.7122 218.527 72.3659 218.674 72.0692C218.822 71.7726 219.029 71.5423 219.296 71.3782C219.563 71.2141 219.875 71.1321 220.233 71.1321C220.591 71.1321 220.903 71.2141 221.17 71.3782C221.437 71.5423 221.644 71.7726 221.792 72.0692C221.939 72.3659 222.013 72.7122 222.013 73.1083C222.013 73.5027 221.939 73.8474 221.792 74.1424C221.644 74.4374 221.437 74.6669 221.17 74.831C220.903 74.995 220.591 75.0771 220.233 75.0771ZM220.235 74.4531C220.467 74.4531 220.66 74.3918 220.812 74.2692C220.965 74.1465 221.077 73.9833 221.15 73.7795C221.225 73.5756 221.262 73.3511 221.262 73.1058C221.262 72.8622 221.225 72.6385 221.15 72.4347C221.077 72.2292 220.965 72.0643 220.812 71.94C220.66 71.8157 220.467 71.7536 220.235 71.7536C220.002 71.7536 219.808 71.8157 219.654 71.94C219.501 72.0643 219.388 72.2292 219.313 72.4347C219.24 72.6385 219.204 72.8622 219.204 73.1058C219.204 73.3511 219.24 73.5756 219.313 73.7795C219.388 73.9833 219.501 74.1465 219.654 74.2692C219.808 74.3918 220.002 74.4531 220.235 74.4531ZM222.842 75V71.1818H223.561V71.7884H223.601C223.67 71.5829 223.793 71.4213 223.968 71.3036C224.146 71.1843 224.346 71.1246 224.57 71.1246C224.616 71.1246 224.671 71.1263 224.734 71.1296C224.799 71.1329 224.849 71.1371 224.886 71.142V71.853C224.856 71.8447 224.803 71.8356 224.727 71.8256C224.65 71.814 224.574 71.8082 224.498 71.8082C224.322 71.8082 224.166 71.8455 224.028 71.9201C223.892 71.993 223.785 72.0949 223.705 72.2259C223.625 72.3551 223.586 72.5026 223.586 72.6683V75H222.842ZM226.115 76.4318C226.004 76.4318 225.903 76.4227 225.812 76.4045C225.721 76.3879 225.653 76.3697 225.608 76.3498L225.787 75.7408C225.923 75.7772 226.044 75.793 226.15 75.788C226.256 75.783 226.349 75.7433 226.431 75.6687C226.514 75.5941 226.586 75.4723 226.649 75.3033L226.741 75.0497L225.344 71.1818H226.14L227.107 74.1449H227.147L228.114 71.1818H228.911L227.338 75.5096C227.265 75.7085 227.172 75.8767 227.06 76.0142C226.947 76.1534 226.813 76.2578 226.657 76.3274C226.501 76.397 226.32 76.4318 226.115 76.4318ZM199.929 83.0746C199.621 83.0746 199.346 82.9959 199.104 82.8384C198.863 82.6793 198.674 82.4531 198.537 82.1598C198.401 81.8648 198.333 81.511 198.333 81.0984C198.333 80.6857 198.402 80.3327 198.539 80.0394C198.679 79.7461 198.869 79.5215 199.111 79.3658C199.353 79.21 199.627 79.1321 199.934 79.1321C200.171 79.1321 200.362 79.1719 200.506 79.2514C200.652 79.3293 200.764 79.4205 200.844 79.5249C200.925 79.6293 200.988 79.7212 201.033 79.8008H201.077V77.9091H201.821V83H201.095V82.4059H201.033C200.988 82.4871 200.923 82.5799 200.839 82.6843C200.756 82.7887 200.642 82.8799 200.496 82.9577C200.35 83.0356 200.161 83.0746 199.929 83.0746ZM200.093 82.4407C200.307 82.4407 200.487 82.3844 200.635 82.2717C200.784 82.1573 200.897 81.9991 200.973 81.7969C201.051 81.5947 201.09 81.3594 201.09 81.0909C201.09 80.8258 201.052 80.5938 200.975 80.3949C200.899 80.196 200.787 80.0411 200.64 79.93C200.492 79.819 200.31 79.7635 200.093 79.7635C199.869 79.7635 199.683 79.8215 199.534 79.9375C199.385 80.0535 199.272 80.2118 199.196 80.4123C199.121 80.6128 199.084 80.839 199.084 81.0909C199.084 81.3461 199.122 81.5756 199.198 81.7795C199.274 81.9833 199.387 82.1449 199.536 82.2642C199.687 82.3819 199.873 82.4407 200.093 82.4407ZM204.527 83.0771C204.151 83.0771 203.827 82.9967 203.555 82.8359C203.285 82.6735 203.076 82.4457 202.929 82.1523C202.783 81.8574 202.71 81.5118 202.71 81.1158C202.71 80.7247 202.783 80.38 202.929 80.0817C203.076 79.7834 203.282 79.5505 203.545 79.3832C203.81 79.2158 204.12 79.1321 204.475 79.1321C204.69 79.1321 204.899 79.1677 205.101 79.239C205.303 79.3103 205.485 79.4221 205.646 79.5746C205.806 79.727 205.933 79.9251 206.026 80.1687C206.119 80.4106 206.165 80.7048 206.165 81.0511V81.3146H203.13V80.7578H205.437C205.437 80.5623 205.397 80.3891 205.318 80.2383C205.238 80.0858 205.126 79.9657 204.982 79.8778C204.839 79.79 204.672 79.7461 204.48 79.7461C204.271 79.7461 204.089 79.7975 203.933 79.9002C203.779 80.0013 203.66 80.1339 203.575 80.2979C203.492 80.4603 203.451 80.6368 203.451 80.8274V81.2624C203.451 81.5176 203.495 81.7347 203.585 81.9137C203.676 82.0927 203.803 82.2294 203.965 82.3239C204.128 82.4167 204.317 82.4631 204.535 82.4631C204.675 82.4631 204.804 82.4432 204.92 82.4034C205.036 82.362 205.136 82.3007 205.221 82.2195C205.305 82.1383 205.37 82.038 205.415 81.9187L206.118 82.0455C206.062 82.2526 205.961 82.4341 205.815 82.5898C205.671 82.744 205.489 82.8641 205.27 82.9503C205.053 83.0348 204.805 83.0771 204.527 83.0771ZM209.851 80.114L209.177 80.2333C209.149 80.1471 209.104 80.0651 209.043 79.9872C208.983 79.9093 208.902 79.8455 208.8 79.7958C208.697 79.7461 208.568 79.7212 208.414 79.7212C208.204 79.7212 208.028 79.7685 207.887 79.8629C207.746 79.9557 207.676 80.0759 207.676 80.2234C207.676 80.351 207.723 80.4537 207.818 80.5316C207.912 80.6095 208.065 80.6733 208.275 80.723L208.882 80.8622C209.233 80.9434 209.495 81.0685 209.667 81.2376C209.839 81.4066 209.926 81.6262 209.926 81.8963C209.926 82.125 209.859 82.3288 209.727 82.5078C209.596 82.6851 209.413 82.8243 209.177 82.9254C208.944 83.0265 208.673 83.0771 208.365 83.0771C207.937 83.0771 207.588 82.9859 207.318 82.8036C207.048 82.6197 206.882 82.3587 206.821 82.0206L207.539 81.9112C207.584 82.0985 207.676 82.2402 207.815 82.3363C207.954 82.4308 208.136 82.478 208.36 82.478C208.603 82.478 208.798 82.4274 208.944 82.3263C209.09 82.2236 209.162 82.0985 209.162 81.951C209.162 81.8317 209.118 81.7314 209.028 81.6502C208.94 81.569 208.805 81.5077 208.623 81.4663L207.977 81.3246C207.62 81.2434 207.357 81.1141 207.186 80.9368C207.017 80.7595 206.933 80.5349 206.933 80.2631C206.933 80.0378 206.996 79.8406 207.122 79.6715C207.248 79.5025 207.422 79.3707 207.644 79.2763C207.866 79.1802 208.12 79.1321 208.407 79.1321C208.819 79.1321 209.144 79.2216 209.381 79.4006C209.618 79.5779 209.775 79.8157 209.851 80.114ZM212.351 83.0771C211.982 83.0771 211.663 82.9934 211.397 82.826C211.131 82.657 210.928 82.4241 210.785 82.1275C210.643 81.8308 210.571 81.4911 210.571 81.1083C210.571 80.7205 210.644 80.3783 210.79 80.0817C210.936 79.7834 211.141 79.5505 211.407 79.3832C211.672 79.2158 211.984 79.1321 212.344 79.1321C212.634 79.1321 212.892 79.186 213.119 79.2937C213.346 79.3997 213.529 79.5489 213.669 79.7411C213.809 79.9334 213.893 80.1579 213.92 80.4148H213.196C213.157 80.2358 213.065 80.0817 212.923 79.9524C212.782 79.8232 212.593 79.7585 212.356 79.7585C212.149 79.7585 211.967 79.8132 211.812 79.9226C211.658 80.0303 211.537 80.1844 211.451 80.3849C211.365 80.5838 211.322 80.8191 211.322 81.0909C211.322 81.3693 211.364 81.6096 211.449 81.8118C211.533 82.014 211.653 82.1706 211.807 82.2816C211.963 82.3926 212.146 82.4482 212.356 82.4482C212.497 82.4482 212.625 82.4225 212.739 82.3711C212.855 82.3181 212.952 82.2427 213.03 82.1449C213.109 82.0471 213.165 81.9295 213.196 81.7919H213.92C213.893 82.0388 213.813 82.2592 213.679 82.4531C213.544 82.647 213.364 82.7995 213.139 82.9105C212.915 83.0215 212.653 83.0771 212.351 83.0771ZM214.714 83V79.1818H215.433V79.7884H215.473C215.542 79.5829 215.665 79.4213 215.841 79.3036C216.018 79.1843 216.218 79.1246 216.442 79.1246C216.489 79.1246 216.543 79.1263 216.606 79.1296C216.671 79.1329 216.721 79.1371 216.758 79.142V79.853C216.728 79.8447 216.675 79.8356 216.599 79.8256C216.522 79.814 216.446 79.8082 216.37 79.8082C216.194 79.8082 216.038 79.8455 215.9 79.9201C215.764 79.993 215.657 80.0949 215.577 80.2259C215.498 80.3551 215.458 80.5026 215.458 80.6683V83H214.714ZM217.401 83V79.1818H218.144V83H217.401ZM217.776 78.5927C217.647 78.5927 217.536 78.5496 217.443 78.4634C217.352 78.3756 217.307 78.2712 217.307 78.1502C217.307 78.0276 217.352 77.9232 217.443 77.837C217.536 77.7492 217.647 77.7053 217.776 77.7053C217.906 77.7053 218.016 77.7492 218.107 77.837C218.2 77.9232 218.246 78.0276 218.246 78.1502C218.246 78.2712 218.2 78.3756 218.107 78.4634C218.016 78.5496 217.906 78.5927 217.776 78.5927ZM219.144 84.4318V79.1818H219.87V79.8008H219.932C219.975 79.7212 220.037 79.6293 220.119 79.5249C220.2 79.4205 220.312 79.3293 220.457 79.2514C220.601 79.1719 220.791 79.1321 221.028 79.1321C221.337 79.1321 221.612 79.21 221.854 79.3658C222.096 79.5215 222.285 79.7461 222.423 80.0394C222.562 80.3327 222.632 80.6857 222.632 81.0984C222.632 81.511 222.563 81.8648 222.425 82.1598C222.288 82.4531 222.099 82.6793 221.859 82.8384C221.618 82.9959 221.344 83.0746 221.036 83.0746C220.804 83.0746 220.614 83.0356 220.467 82.9577C220.321 82.8799 220.206 82.7887 220.124 82.6843C220.041 82.5799 219.977 82.4871 219.932 82.4059H219.887V84.4318H219.144ZM219.873 81.0909C219.873 81.3594 219.911 81.5947 219.989 81.7969C220.067 81.9991 220.18 82.1573 220.327 82.2717C220.475 82.3844 220.656 82.4407 220.869 82.4407C221.091 82.4407 221.277 82.3819 221.426 82.2642C221.575 82.1449 221.688 81.9833 221.764 81.7795C221.842 81.5756 221.881 81.3461 221.881 81.0909C221.881 80.839 221.843 80.6128 221.767 80.4123C221.692 80.2118 221.579 80.0535 221.429 79.9375C221.279 79.8215 221.093 79.7635 220.869 79.7635C220.654 79.7635 220.472 79.819 220.322 79.93C220.175 80.0411 220.063 80.196 219.987 80.3949C219.911 80.5938 219.873 80.8258 219.873 81.0909ZM225.247 79.1818V79.7784H223.161V79.1818H225.247ZM223.721 78.267H224.464V81.8789C224.464 82.0231 224.485 82.1316 224.528 82.2045C224.571 82.2758 224.627 82.3247 224.695 82.3512C224.765 82.3761 224.84 82.3885 224.921 82.3885C224.981 82.3885 225.033 82.3844 225.078 82.3761C225.123 82.3678 225.157 82.3612 225.182 82.3562L225.316 82.9702C225.273 82.9867 225.212 83.0033 225.132 83.0199C225.053 83.0381 224.953 83.0481 224.834 83.0497C224.639 83.053 224.456 83.0182 224.287 82.9453C224.118 82.8724 223.982 82.7597 223.877 82.6072C223.773 82.4548 223.721 82.2634 223.721 82.033V78.267ZM226.069 83V79.1818H226.812V83H226.069ZM226.444 78.5927C226.315 78.5927 226.204 78.5496 226.111 78.4634C226.02 78.3756 225.975 78.2712 225.975 78.1502C225.975 78.0276 226.02 77.9232 226.111 77.837C226.204 77.7492 226.315 77.7053 226.444 77.7053C226.574 77.7053 226.684 77.7492 226.775 77.837C226.868 77.9232 226.914 78.0276 226.914 78.1502C226.914 78.2712 226.868 78.3756 226.775 78.4634C226.684 78.5496 226.574 78.5927 226.444 78.5927ZM229.42 83.0771C229.062 83.0771 228.75 82.995 228.483 82.831C228.216 82.6669 228.009 82.4374 227.862 82.1424C227.714 81.8474 227.641 81.5027 227.641 81.1083C227.641 80.7122 227.714 80.3659 227.862 80.0692C228.009 79.7726 228.216 79.5423 228.483 79.3782C228.75 79.2141 229.062 79.1321 229.42 79.1321C229.778 79.1321 230.091 79.2141 230.358 79.3782C230.624 79.5423 230.832 79.7726 230.979 80.0692C231.127 80.3659 231.2 80.7122 231.2 81.1083C231.2 81.5027 231.127 81.8474 230.979 82.1424C230.832 82.4374 230.624 82.6669 230.358 82.831C230.091 82.995 229.778 83.0771 229.42 83.0771ZM229.423 82.4531C229.655 82.4531 229.847 82.3918 230 82.2692C230.152 82.1465 230.265 81.9833 230.338 81.7795C230.412 81.5756 230.45 81.3511 230.45 81.1058C230.45 80.8622 230.412 80.6385 230.338 80.4347C230.265 80.2292 230.152 80.0643 230 79.94C229.847 79.8157 229.655 79.7536 229.423 79.7536C229.189 79.7536 228.995 79.8157 228.841 79.94C228.689 80.0643 228.575 80.2292 228.501 80.4347C228.428 80.6385 228.391 80.8622 228.391 81.1058C228.391 81.3511 228.428 81.5756 228.501 81.7795C228.575 81.9833 228.689 82.1465 228.841 82.2692C228.995 82.3918 229.189 82.4531 229.423 82.4531ZM232.773 80.733V83H232.03V79.1818H232.743V79.8033H232.791C232.878 79.6011 233.016 79.4387 233.203 79.3161C233.392 79.1934 233.63 79.1321 233.917 79.1321C234.177 79.1321 234.405 79.1868 234.6 79.2962C234.796 79.4039 234.947 79.5646 235.055 79.7784C235.163 79.9922 235.217 80.2565 235.217 80.5714V83H234.473V80.6609C234.473 80.3841 234.401 80.1679 234.257 80.0121C234.113 79.8546 233.915 79.7759 233.663 79.7759C233.491 79.7759 233.337 79.8132 233.203 79.8878C233.071 79.9624 232.965 80.0717 232.888 80.2159C232.811 80.3584 232.773 80.5308 232.773 80.733Z"
    fill="#191919" />
  <path
    d="M139.963 58C139.963 58.5727 140.427 59.037 141 59.037C141.573 59.037 142.037 58.5727 142.037 58C142.037 57.4273 141.573 56.963 141 56.963C140.427 56.963 139.963 57.4273 139.963 58ZM141 58.1944L193 58.1944L193 57.8056L141 57.8056L141 58.1944Z"
    fill="#191919" />
  <path
    d="M79.4078 30.7222C79.4078 31.2949 79.8721 31.7592 80.4448 31.7592C81.0176 31.7592 81.4819 31.2949 81.4819 30.7222C81.4819 30.1494 81.0176 29.6851 80.4448 29.6851C79.8721 29.6851 79.4078 30.1494 79.4078 30.7222ZM60.4448 30.9166H80.4448V30.5277H60.4448V30.9166Z"
    fill="#191919" />
  <path
    d="M172.963 75C172.963 75.5727 173.427 76.037 174 76.037C174.573 76.037 175.037 75.5727 175.037 75C175.037 74.4273 174.573 73.963 174 73.963C173.427 73.963 172.963 74.4273 172.963 75ZM174 75.1944L193 75.1944L193 74.8056L174 74.8056L174 75.1944Z"
    fill="#191919" />
  <defs>
    <clipPath id="clip0_126_17">
      <path
        d="M72.0001 19.5089C72.0001 14.3185 76.2078 10.1108 81.3982 10.1108H180.078C185.268 10.1108 189.476 14.3185 189.476 19.5089V154.734H72.0001V19.5089Z"
        fill="white" />
    </clipPath>
    <clipPath id="clip1_126_17">
      <path
        d="M72.0001 25.1477C72.0001 19.6113 76.4883 15.1231 82.0247 15.1231H179.451C184.988 15.1231 189.476 19.6113 189.476 25.1477V154.734H72.0001V25.1477Z"
        fill="white" />
    </clipPath>
  </defs>
</svg>
  