<svg width="261" height="164" viewBox="0 0 261 164" xmlns="http://www.w3.org/2000/svg">
  <g clip-path="url(#clip0_126_17)">
    <path
      d="M72.0001 19.5089C72.0001 14.3185 76.2078 10.1108 81.3982 10.1108H180.078C185.268 10.1108 189.476 14.3185 189.476 19.5089V154.734H72.0001V19.5089Z"
      fill="#F5F5F5" />
    <g clip-path="url(#clip1_126_17)">
      <path
        d="M72.0001 25.1477C72.0001 19.6113 76.4883 15.1231 82.0247 15.1231H179.451C184.988 15.1231 189.476 19.6113 189.476 25.1477V154.734H72.0001V25.1477Z"
        fill="#F5F5F5" />
      <rect x="77.0125" y="25.1477" width="15.6634" height="11.2777" rx="5.63883" fill="#E6E6E6" />
      <rect x="95.1819" y="25.1477" width="19.7359" height="11.2777" rx="5.63883" fill="#BDBDBD" />
      <rect x="117.424" y="25.1477" width="23.4951" height="11.2777" rx="5.63883" fill="#E6E6E6" />
      <rect x="143.425" y="25.1477" width="16.9165" height="11.2777" rx="5.63883" fill="#E6E6E6" />
      <rect x="162.848" y="25.1477" width="22.8686" height="11.2777" rx="5.63883" fill="#E6E6E6" />
      <rect x="188.223" y="25.1477" width="44.4841" height="11.2777" rx="5.63883" fill="#E6E6E6" />
      <path
        d="M77.4085 59.9684V55.4118H78.3719V57.2919H80.3276V55.4118H81.2887V59.9684H80.3276V58.0862H78.3719V59.9684H77.4085ZM86.2703 57.6901C86.2703 58.187 86.1761 58.6098 85.9878 58.9583C85.8009 59.3069 85.5458 59.5732 85.2224 59.7571C84.9005 59.9395 84.5386 60.0307 84.1366 60.0307C83.7317 60.0307 83.3683 59.9388 83.0464 59.7549C82.7246 59.5709 82.4702 59.3047 82.2833 58.9561C82.0964 58.6075 82.0029 58.1855 82.0029 57.6901C82.0029 57.1932 82.0964 56.7705 82.2833 56.4219C82.4702 56.0734 82.7246 55.8078 83.0464 55.6254C83.3683 55.4415 83.7317 55.3495 84.1366 55.3495C84.5386 55.3495 84.9005 55.4415 85.2224 55.6254C85.5458 55.8078 85.8009 56.0734 85.9878 56.4219C86.1761 56.7705 86.2703 57.1932 86.2703 57.6901ZM85.2936 57.6901C85.2936 57.3683 85.2454 57.0968 85.149 56.8758C85.054 56.6548 84.9198 56.4872 84.7463 56.373C84.5727 56.2588 84.3695 56.2017 84.1366 56.2017C83.9038 56.2017 83.7006 56.2588 83.527 56.373C83.3535 56.4872 83.2185 56.6548 83.1221 56.8758C83.0271 57.0968 82.9797 57.3683 82.9797 57.6901C82.9797 58.012 83.0271 58.2834 83.1221 58.5044C83.2185 58.7255 83.3535 58.8931 83.527 59.0073C83.7006 59.1215 83.9038 59.1786 84.1366 59.1786C84.3695 59.1786 84.5727 59.1215 84.7463 59.0073C84.9198 58.8931 85.054 58.7255 85.149 58.5044C85.2454 58.2834 85.2936 58.012 85.2936 57.6901ZM86.984 59.9684V55.4118H87.9474V57.4209H88.0074L89.6472 55.4118H90.8019L89.111 57.4521L90.822 59.9684H89.6695L88.4213 58.0951L87.9474 58.6735V59.9684H86.984ZM91.3037 59.9684V55.4118H92.267V57.4209H92.3271L93.9669 55.4118H95.1216L93.4307 57.4521L95.1416 59.9684H93.9891L92.741 58.0951L92.267 58.6735V59.9684H91.3037ZM96.4087 59.9684H95.3764L96.9494 55.4118H98.1909L99.7617 59.9684H98.7293L97.5879 56.4531H97.5523L96.4087 59.9684ZM96.3442 58.1774H98.7827V58.9294H96.3442V58.1774ZM101.274 55.4118V59.9684H100.31V55.4118H101.274ZM103.681 59.9684H102.066V55.4118H103.695C104.153 55.4118 104.548 55.503 104.878 55.6855C105.209 55.8664 105.464 56.1268 105.642 56.4664C105.821 56.8061 105.911 57.2125 105.911 57.6857C105.911 58.1603 105.821 58.5682 105.642 58.9094C105.464 59.2505 105.208 59.5123 104.874 59.6948C104.542 59.8772 104.144 59.9684 103.681 59.9684ZM103.03 59.143H103.641C103.926 59.143 104.166 59.0926 104.36 58.9917C104.556 58.8894 104.703 58.7314 104.801 58.5178C104.9 58.3027 104.95 58.0253 104.95 57.6857C104.95 57.349 104.9 57.0738 104.801 56.8602C104.703 56.6466 104.557 56.4894 104.362 56.3886C104.168 56.2877 103.928 56.2373 103.644 56.2373H103.03V59.143ZM110.812 57.6901C110.812 58.187 110.718 58.6098 110.529 58.9583C110.342 59.3069 110.087 59.5732 109.764 59.7571C109.442 59.9395 109.08 60.0307 108.678 60.0307C108.273 60.0307 107.91 59.9388 107.588 59.7549C107.266 59.5709 107.012 59.3047 106.825 58.9561C106.638 58.6075 106.544 58.1855 106.544 57.6901C106.544 57.1932 106.638 56.7705 106.825 56.4219C107.012 56.0734 107.266 55.8078 107.588 55.6254C107.91 55.4415 108.273 55.3495 108.678 55.3495C109.08 55.3495 109.442 55.4415 109.764 55.6254C110.087 55.8078 110.342 56.0734 110.529 56.4219C110.718 56.7705 110.812 57.1932 110.812 57.6901ZM109.835 57.6901C109.835 57.3683 109.787 57.0968 109.69 56.8758C109.595 56.6548 109.461 56.4872 109.288 56.373C109.114 56.2588 108.911 56.2017 108.678 56.2017C108.445 56.2017 108.242 56.2588 108.068 56.373C107.895 56.4872 107.76 56.6548 107.663 56.8758C107.569 57.0968 107.521 57.3683 107.521 57.6901C107.521 58.012 107.569 58.2834 107.663 58.5044C107.76 58.7255 107.895 58.8931 108.068 59.0073C108.242 59.1215 108.445 59.1786 108.678 59.1786C108.911 59.1786 109.114 59.1215 109.288 59.0073C109.461 58.8931 109.595 58.7255 109.69 58.5044C109.787 58.2834 109.835 58.012 109.835 57.6901ZM112.802 56.2061V55.4118H116.544V56.2061H115.149V59.9684H114.197V56.2061H112.802ZM121.14 57.6901C121.14 58.187 121.046 58.6098 120.857 58.9583C120.67 59.3069 120.415 59.5732 120.092 59.7571C119.77 59.9395 119.408 60.0307 119.006 60.0307C118.601 60.0307 118.238 59.9388 117.916 59.7549C117.594 59.5709 117.34 59.3047 117.153 58.9561C116.966 58.6075 116.872 58.1855 116.872 57.6901C116.872 57.1932 116.966 56.7705 117.153 56.4219C117.34 56.0734 117.594 55.8078 117.916 55.6254C118.238 55.4415 118.601 55.3495 119.006 55.3495C119.408 55.3495 119.77 55.4415 120.092 55.6254C120.415 55.8078 120.67 56.0734 120.857 56.4219C121.046 56.7705 121.14 57.1932 121.14 57.6901ZM120.163 57.6901C120.163 57.3683 120.115 57.0968 120.018 56.8758C119.924 56.6548 119.789 56.4872 119.616 56.373C119.442 56.2588 119.239 56.2017 119.006 56.2017C118.773 56.2017 118.57 56.2588 118.396 56.373C118.223 56.4872 118.088 56.6548 117.992 56.8758C117.897 57.0968 117.849 57.3683 117.849 57.6901C117.849 58.012 117.897 58.2834 117.992 58.5044C118.088 58.7255 118.223 58.8931 118.396 59.0073C118.57 59.1215 118.773 59.1786 119.006 59.1786C119.239 59.1786 119.442 59.1215 119.616 59.0073C119.789 58.8931 119.924 58.7255 120.018 58.5044C120.115 58.2834 120.163 58.012 120.163 57.6901ZM122.382 59.9684H121.35L122.923 55.4118H124.164L125.735 59.9684H124.702L123.561 56.4531H123.525L122.382 59.9684ZM122.317 58.1774H124.756V58.9294H122.317V58.1774ZM128.651 56.7223C128.633 56.5428 128.557 56.4034 128.422 56.304C128.287 56.2046 128.104 56.1549 127.872 56.1549C127.715 56.1549 127.582 56.1772 127.474 56.2217C127.366 56.2647 127.283 56.3248 127.225 56.4019C127.169 56.479 127.14 56.5665 127.14 56.6644C127.137 56.746 127.155 56.8172 127.192 56.878C127.23 56.9388 127.283 56.9915 127.35 57.036C127.416 57.079 127.493 57.1168 127.581 57.1495C127.668 57.1806 127.762 57.2073 127.861 57.2296L128.271 57.3275C128.469 57.372 128.652 57.4313 128.818 57.5055C128.984 57.5796 129.128 57.6708 129.25 57.7791C129.371 57.8874 129.465 58.015 129.532 58.1618C129.6 58.3087 129.635 58.477 129.637 58.6669C129.635 58.9457 129.564 59.1875 129.423 59.3922C129.284 59.5954 129.082 59.7534 128.818 59.8661C128.555 59.9773 128.239 60.033 127.868 60.033C127.5 60.033 127.18 59.9766 126.907 59.8639C126.635 59.7511 126.423 59.5843 126.27 59.3633C126.119 59.1408 126.04 58.8656 126.032 58.5378H126.965C126.975 58.6906 127.019 58.8182 127.096 58.9205C127.175 59.0214 127.279 59.0978 127.41 59.1497C127.542 59.2001 127.691 59.2253 127.857 59.2253C128.02 59.2253 128.162 59.2016 128.282 59.1541C128.403 59.1067 128.498 59.0407 128.564 58.9561C128.631 58.8716 128.664 58.7744 128.664 58.6646C128.664 58.5623 128.634 58.4763 128.573 58.4066C128.514 58.3368 128.426 58.2775 128.311 58.2286C128.197 58.1796 128.056 58.1351 127.89 58.0951L127.394 57.9705C127.01 57.877 126.707 57.7309 126.484 57.5322C126.262 57.3334 126.151 57.0657 126.153 56.729C126.151 56.4531 126.224 56.212 126.373 56.0059C126.523 55.7997 126.728 55.6388 126.989 55.5231C127.25 55.4074 127.547 55.3495 127.879 55.3495C128.217 55.3495 128.512 55.4074 128.765 55.5231C129.018 55.6388 129.216 55.7997 129.356 56.0059C129.497 56.212 129.57 56.4508 129.574 56.7223H128.651ZM130.111 56.2061V55.4118H133.854V56.2061H132.459V59.9684H131.506V56.2061H130.111ZM136.942 56.7223C136.924 56.5428 136.848 56.4034 136.713 56.304C136.578 56.2046 136.394 56.1549 136.163 56.1549C136.006 56.1549 135.873 56.1772 135.765 56.2217C135.656 56.2647 135.573 56.3248 135.516 56.4019C135.459 56.479 135.431 56.5665 135.431 56.6644C135.428 56.746 135.445 56.8172 135.482 56.878C135.521 56.9388 135.573 56.9915 135.64 57.036C135.707 57.079 135.784 57.1168 135.872 57.1495C135.959 57.1806 136.053 57.2073 136.152 57.2296L136.561 57.3275C136.76 57.372 136.942 57.4313 137.109 57.5055C137.275 57.5796 137.419 57.6708 137.54 57.7791C137.662 57.8874 137.756 58.015 137.823 58.1618C137.891 58.3087 137.926 58.477 137.927 58.6669C137.926 58.9457 137.855 59.1875 137.714 59.3922C137.574 59.5954 137.373 59.7534 137.109 59.8661C136.846 59.9773 136.529 60.033 136.159 60.033C135.791 60.033 135.47 59.9766 135.197 59.8639C134.926 59.7511 134.714 59.5843 134.561 59.3633C134.41 59.1408 134.33 58.8656 134.323 58.5378H135.255C135.266 58.6906 135.309 58.8182 135.387 58.9205C135.465 59.0214 135.57 59.0978 135.7 59.1497C135.832 59.2001 135.981 59.2253 136.147 59.2253C136.311 59.2253 136.452 59.2016 136.572 59.1541C136.694 59.1067 136.788 59.0407 136.855 58.9561C136.922 58.8716 136.955 58.7744 136.955 58.6646C136.955 58.5623 136.925 58.4763 136.864 58.4066C136.805 58.3368 136.717 58.2775 136.601 58.2286C136.487 58.1796 136.347 58.1351 136.181 58.0951L135.685 57.9705C135.3 57.877 134.997 57.7309 134.775 57.5322C134.552 57.3334 134.442 57.0657 134.443 56.729C134.442 56.4531 134.515 56.212 134.663 56.0059C134.813 55.7997 135.019 55.6388 135.28 55.5231C135.541 55.4074 135.837 55.3495 136.17 55.3495C136.508 55.3495 136.803 55.4074 137.055 55.5231C137.309 55.6388 137.506 55.7997 137.647 56.0059C137.788 56.212 137.861 56.4508 137.865 56.7223H136.942Z"
        fill="#949494" />
      <path
        d="M115.092 65.6303L114.809 65.7104C114.791 65.6632 114.765 65.6174 114.73 65.5729C114.697 65.5275 114.65 65.4901 114.591 65.4608C114.533 65.4314 114.458 65.4167 114.366 65.4167C114.24 65.4167 114.136 65.4456 114.052 65.5035C113.969 65.5604 113.928 65.633 113.928 65.7211C113.928 65.7994 113.956 65.8612 114.013 65.9066C114.07 65.952 114.159 65.9898 114.28 66.0201L114.585 66.0949C114.768 66.1394 114.905 66.2074 114.995 66.2991C115.085 66.3899 115.129 66.5069 115.129 66.6502C115.129 66.7677 115.096 66.8727 115.028 66.9652C114.961 67.0578 114.868 67.1308 114.748 67.1842C114.628 67.2376 114.488 67.2643 114.329 67.2643C114.119 67.2643 113.946 67.2189 113.809 67.1281C113.672 67.0373 113.585 66.9047 113.549 66.7303L113.848 66.6555C113.876 66.7659 113.93 66.8487 114.009 66.9038C114.09 66.959 114.194 66.9866 114.323 66.9866C114.47 66.9866 114.587 66.9555 114.673 66.8932C114.76 66.83 114.804 66.7543 114.804 66.6662C114.804 66.595 114.779 66.5354 114.729 66.4873C114.679 66.4384 114.603 66.4019 114.499 66.3779L114.158 66.2978C113.97 66.2533 113.832 66.1843 113.744 66.0909C113.657 65.9965 113.613 65.8786 113.613 65.7371C113.613 65.6214 113.645 65.5191 113.71 65.4301C113.776 65.3411 113.866 65.2712 113.979 65.2205C114.093 65.1697 114.222 65.1444 114.366 65.1444C114.569 65.1444 114.728 65.1889 114.844 65.2779C114.96 65.3669 115.043 65.4843 115.092 65.6303ZM116.463 67.2643C116.266 67.2643 116.095 67.2207 115.952 67.1335C115.81 67.0453 115.7 66.9225 115.622 66.765C115.546 66.6066 115.508 66.4224 115.508 66.2123C115.508 66.0023 115.546 65.8172 115.622 65.657C115.7 65.4959 115.808 65.3704 115.945 65.2805C116.084 65.1898 116.246 65.1444 116.431 65.1444C116.538 65.1444 116.644 65.1622 116.748 65.1978C116.852 65.2334 116.947 65.2912 117.032 65.3713C117.118 65.4505 117.186 65.5555 117.236 65.6864C117.287 65.8172 117.312 65.9783 117.312 66.1696V66.3031H115.732V66.0308H116.992C116.992 65.9151 116.969 65.8118 116.923 65.7211C116.877 65.6303 116.812 65.5587 116.728 65.5061C116.644 65.4536 116.545 65.4274 116.431 65.4274C116.306 65.4274 116.197 65.4585 116.106 65.5208C116.015 65.5822 115.945 65.6623 115.896 65.7611C115.847 65.8599 115.823 65.9658 115.823 66.0788V66.2604C115.823 66.4152 115.849 66.5465 115.903 66.6542C115.957 66.761 116.032 66.8424 116.128 66.8985C116.224 66.9537 116.336 66.9813 116.463 66.9813C116.546 66.9813 116.621 66.9697 116.688 66.9466C116.755 66.9225 116.814 66.8869 116.863 66.8398C116.912 66.7917 116.949 66.7321 116.976 66.6609L117.28 66.7463C117.248 66.8496 117.195 66.9403 117.119 67.0186C117.043 67.0961 116.95 67.1566 116.839 67.2002C116.727 67.2429 116.602 67.2643 116.463 67.2643ZM117.792 67.2216V65.1711H118.096V65.4808H118.117C118.155 65.3793 118.222 65.297 118.32 65.2338C118.418 65.1706 118.529 65.139 118.651 65.139C118.675 65.139 118.703 65.1395 118.738 65.1404C118.773 65.1413 118.799 65.1426 118.817 65.1444V65.4648C118.806 65.4621 118.782 65.4581 118.744 65.4527C118.706 65.4465 118.667 65.4434 118.625 65.4434C118.525 65.4434 118.436 65.4643 118.358 65.5061C118.28 65.5471 118.219 65.604 118.173 65.677C118.129 65.7491 118.107 65.8314 118.107 65.924V67.2216H117.792ZM120.929 65.1711L120.171 67.2216H119.851L119.093 65.1711H119.434L120 66.8051H120.022L120.588 65.1711H120.929ZM122.132 67.2643C121.934 67.2643 121.764 67.2207 121.62 67.1335C121.478 67.0453 121.368 66.9225 121.291 66.765C121.214 66.6066 121.176 66.4224 121.176 66.2123C121.176 66.0023 121.214 65.8172 121.291 65.657C121.368 65.4959 121.476 65.3704 121.614 65.2805C121.752 65.1898 121.914 65.1444 122.1 65.1444C122.206 65.1444 122.312 65.1622 122.416 65.1978C122.52 65.2334 122.615 65.2912 122.7 65.3713C122.786 65.4505 122.854 65.5555 122.905 65.6864C122.955 65.8172 122.981 65.9783 122.981 66.1696V66.3031H121.4V66.0308H122.66C122.66 65.9151 122.637 65.8118 122.591 65.7211C122.545 65.6303 122.48 65.5587 122.396 65.5061C122.312 65.4536 122.213 65.4274 122.1 65.4274C121.974 65.4274 121.866 65.4585 121.774 65.5208C121.683 65.5822 121.613 65.6623 121.564 65.7611C121.515 65.8599 121.491 65.9658 121.491 66.0788V66.2604C121.491 66.4152 121.518 66.5465 121.571 66.6542C121.625 66.761 121.7 66.8424 121.797 66.8985C121.893 66.9537 122.004 66.9813 122.132 66.9813C122.214 66.9813 122.289 66.9697 122.356 66.9466C122.424 66.9225 122.482 66.8869 122.531 66.8398C122.58 66.7917 122.618 66.7321 122.644 66.6609L122.949 66.7463C122.917 66.8496 122.863 66.9403 122.787 67.0186C122.711 67.0961 122.618 67.1566 122.507 67.2002C122.395 67.2429 122.27 67.2643 122.132 67.2643ZM124.234 67.2643C124.063 67.2643 123.912 67.2211 123.782 67.1348C123.651 67.0476 123.548 66.9248 123.475 66.7663C123.401 66.607 123.364 66.4188 123.364 66.2017C123.364 65.9863 123.401 65.7994 123.475 65.641C123.548 65.4826 123.651 65.3602 123.783 65.2739C123.915 65.1875 124.067 65.1444 124.24 65.1444C124.373 65.1444 124.478 65.1666 124.556 65.2111C124.634 65.2547 124.694 65.3046 124.735 65.3606C124.777 65.4158 124.809 65.4612 124.832 65.4968H124.859V64.4876H125.174V67.2216H124.87V66.9065H124.832C124.809 66.9439 124.776 66.9911 124.733 67.048C124.691 67.1041 124.63 67.1544 124.551 67.1989C124.471 67.2425 124.366 67.2643 124.234 67.2643ZM124.277 66.9813C124.403 66.9813 124.51 66.9483 124.597 66.8825C124.684 66.8157 124.751 66.7236 124.796 66.6061C124.842 66.4878 124.864 66.3512 124.864 66.1963C124.864 66.0432 124.842 65.9093 124.798 65.7945C124.753 65.6788 124.687 65.5889 124.6 65.5248C124.513 65.4599 124.405 65.4274 124.277 65.4274C124.143 65.4274 124.032 65.4616 123.943 65.5302C123.855 65.5978 123.789 65.6899 123.744 65.8065C123.701 65.9222 123.679 66.0521 123.679 66.1963C123.679 66.3423 123.701 66.4749 123.746 66.5941C123.791 66.7125 123.858 66.8068 123.946 66.8771C124.035 66.9466 124.145 66.9813 124.277 66.9813ZM127.317 67.2216L126.692 65.1711H127.023L127.466 66.741H127.487L127.925 65.1711H128.262L128.694 66.7356H128.716L129.159 65.1711H129.49L128.865 67.2216H128.555L128.107 65.6463H128.075L127.626 67.2216H127.317ZM129.906 67.2216V65.1711H130.221V67.2216H129.906ZM130.067 64.8293C130.005 64.8293 129.952 64.8084 129.908 64.7666C129.864 64.7248 129.842 64.6745 129.842 64.6157C129.842 64.557 129.864 64.5067 129.908 64.4649C129.952 64.4231 130.005 64.4021 130.067 64.4021C130.128 64.4021 130.18 64.4231 130.224 64.4649C130.269 64.5067 130.291 64.557 130.291 64.6157C130.291 64.6745 130.269 64.7248 130.224 64.7666C130.18 64.8084 130.128 64.8293 130.067 64.8293ZM131.69 65.1711V65.4381H130.628V65.1711H131.69ZM130.937 64.6798H131.252V66.6342C131.252 66.7232 131.265 66.7899 131.291 66.8344C131.318 66.878 131.352 66.9074 131.393 66.9225C131.434 66.9368 131.478 66.9439 131.525 66.9439C131.559 66.9439 131.588 66.9421 131.61 66.9385C131.632 66.9341 131.65 66.9305 131.664 66.9279L131.728 67.2109C131.706 67.2189 131.676 67.2269 131.638 67.2349C131.6 67.2438 131.551 67.2483 131.493 67.2483C131.404 67.2483 131.316 67.2291 131.231 67.1909C131.146 67.1526 131.076 67.0943 131.02 67.016C130.965 66.9377 130.937 66.8389 130.937 66.7196V64.6798ZM132.523 65.9881V67.2216H132.208V64.4876H132.523V65.4915H132.55C132.598 65.3856 132.67 65.3015 132.766 65.2392C132.863 65.176 132.992 65.1444 133.153 65.1444C133.293 65.1444 133.415 65.1724 133.52 65.2285C133.625 65.2837 133.707 65.3686 133.765 65.4835C133.823 65.5974 133.853 65.7424 133.853 65.9186V67.2216H133.538V65.94C133.538 65.7771 133.496 65.6512 133.411 65.5622C133.327 65.4723 133.211 65.4274 133.063 65.4274C132.959 65.4274 132.867 65.4492 132.785 65.4928C132.704 65.5364 132.64 65.6 132.593 65.6837C132.546 65.7674 132.523 65.8688 132.523 65.9881ZM136.939 65.6303L136.656 65.7104C136.638 65.6632 136.612 65.6174 136.577 65.5729C136.543 65.5275 136.497 65.4901 136.438 65.4608C136.38 65.4314 136.304 65.4167 136.213 65.4167C136.087 65.4167 135.983 65.4456 135.899 65.5035C135.816 65.5604 135.775 65.633 135.775 65.7211C135.775 65.7994 135.803 65.8612 135.86 65.9066C135.917 65.952 136.006 65.9898 136.127 66.0201L136.432 66.0949C136.615 66.1394 136.752 66.2074 136.841 66.2991C136.931 66.3899 136.976 66.5069 136.976 66.6502C136.976 66.7677 136.942 66.8727 136.875 66.9652C136.808 67.0578 136.715 67.1308 136.594 67.1842C136.474 67.2376 136.335 67.2643 136.175 67.2643C135.966 67.2643 135.793 67.2189 135.656 67.1281C135.519 67.0373 135.432 66.9047 135.396 66.7303L135.695 66.6555C135.723 66.7659 135.777 66.8487 135.856 66.9038C135.936 66.959 136.041 66.9866 136.17 66.9866C136.317 66.9866 136.433 66.9555 136.52 66.8932C136.607 66.83 136.651 66.7543 136.651 66.6662C136.651 66.595 136.626 66.5354 136.576 66.4873C136.526 66.4384 136.449 66.4019 136.346 66.3779L136.004 66.2978C135.817 66.2533 135.679 66.1843 135.591 66.0909C135.503 65.9965 135.46 65.8786 135.46 65.7371C135.46 65.6214 135.492 65.5191 135.557 65.4301C135.623 65.3411 135.713 65.2712 135.826 65.2205C135.939 65.1697 136.069 65.1444 136.213 65.1444C136.416 65.1444 136.575 65.1889 136.691 65.2779C136.807 65.3669 136.89 65.4843 136.939 65.6303ZM138.743 66.3832V65.1711H139.058V67.2216H138.743V66.8745H138.721C138.673 66.9786 138.599 67.0671 138.497 67.1401C138.396 67.2122 138.268 67.2483 138.113 67.2483C137.984 67.2483 137.871 67.2202 137.771 67.1642C137.671 67.1072 137.593 67.0218 137.536 66.9078C137.479 66.793 137.451 66.6484 137.451 66.474V65.1711H137.766V66.4526C137.766 66.6021 137.807 66.7214 137.891 66.8104C137.976 66.8994 138.083 66.9439 138.214 66.9439C138.292 66.9439 138.372 66.9239 138.453 66.8838C138.535 66.8438 138.603 66.7824 138.659 66.6996C138.715 66.6168 138.743 66.5114 138.743 66.3832ZM139.635 67.9905V65.1711H139.939V65.4968H139.977C140 65.4612 140.032 65.4158 140.073 65.3606C140.115 65.3046 140.174 65.2547 140.252 65.2111C140.33 65.1666 140.436 65.1444 140.569 65.1444C140.742 65.1444 140.894 65.1875 141.026 65.2739C141.158 65.3602 141.26 65.4826 141.334 65.641C141.408 65.7994 141.445 65.9863 141.445 66.2017C141.445 66.4188 141.408 66.607 141.334 66.7663C141.26 66.9248 141.158 67.0476 141.027 67.1348C140.896 67.2211 140.746 67.2643 140.575 67.2643C140.443 67.2643 140.337 67.2425 140.258 67.1989C140.179 67.1544 140.118 67.1041 140.075 67.048C140.033 66.9911 140 66.9439 139.977 66.9065H139.95V67.9905H139.635ZM139.945 66.1963C139.945 66.3512 139.967 66.4878 140.013 66.6061C140.058 66.7236 140.124 66.8157 140.212 66.8825C140.299 66.9483 140.406 66.9813 140.532 66.9813C140.664 66.9813 140.774 66.9466 140.862 66.8771C140.951 66.8068 141.017 66.7125 141.062 66.5941C141.107 66.4749 141.13 66.3423 141.13 66.1963C141.13 66.0521 141.108 65.9222 141.063 65.8065C141.02 65.6899 140.953 65.5978 140.864 65.5302C140.776 65.4616 140.665 65.4274 140.532 65.4274C140.404 65.4274 140.296 65.4599 140.209 65.5248C140.122 65.5889 140.056 65.6788 140.011 65.7945C139.967 65.9093 139.945 66.0432 139.945 66.1963ZM141.926 67.2216V65.1711H142.23V65.4808H142.251C142.289 65.3793 142.356 65.297 142.454 65.2338C142.552 65.1706 142.662 65.139 142.785 65.139C142.808 65.139 142.837 65.1395 142.872 65.1404C142.907 65.1413 142.933 65.1426 142.951 65.1444V65.4648C142.94 65.4621 142.916 65.4581 142.877 65.4527C142.84 65.4465 142.8 65.4434 142.759 65.4434C142.659 65.4434 142.57 65.4643 142.492 65.5061C142.414 65.5471 142.353 65.604 142.307 65.677C142.263 65.7491 142.241 65.8314 142.241 65.924V67.2216H141.926ZM144.122 67.2643C143.924 67.2643 143.754 67.2207 143.61 67.1335C143.468 67.0453 143.358 66.9225 143.281 66.765C143.204 66.6066 143.166 66.4224 143.166 66.2123C143.166 66.0023 143.204 65.8172 143.281 65.657C143.358 65.4959 143.466 65.3704 143.604 65.2805C143.742 65.1898 143.904 65.1444 144.09 65.1444C144.196 65.1444 144.302 65.1622 144.406 65.1978C144.51 65.2334 144.605 65.2912 144.69 65.3713C144.776 65.4505 144.844 65.5555 144.895 65.6864C144.945 65.8172 144.971 65.9783 144.971 66.1696V66.3031H143.39V66.0308H144.65C144.65 65.9151 144.627 65.8118 144.581 65.7211C144.535 65.6303 144.47 65.5587 144.386 65.5061C144.302 65.4536 144.203 65.4274 144.09 65.4274C143.964 65.4274 143.855 65.4585 143.764 65.5208C143.673 65.5822 143.603 65.6623 143.554 65.7611C143.505 65.8599 143.481 65.9658 143.481 66.0788V66.2604C143.481 66.4152 143.508 66.5465 143.561 66.6542C143.615 66.761 143.69 66.8424 143.787 66.8985C143.883 66.9537 143.994 66.9813 144.122 66.9813C144.204 66.9813 144.279 66.9697 144.346 66.9466C144.414 66.9225 144.472 66.8869 144.521 66.8398C144.57 66.7917 144.608 66.7321 144.634 66.6609L144.939 66.7463C144.907 66.8496 144.853 66.9403 144.777 67.0186C144.701 67.0961 144.608 67.1566 144.497 67.2002C144.385 67.2429 144.26 67.2643 144.122 67.2643ZM145.45 67.2216V65.1711H145.754V65.4915H145.781C145.824 65.382 145.893 65.297 145.988 65.2365C146.083 65.1751 146.197 65.1444 146.331 65.1444C146.466 65.1444 146.579 65.1751 146.669 65.2365C146.759 65.297 146.83 65.382 146.881 65.4915H146.902C146.955 65.3856 147.034 65.3015 147.139 65.2392C147.244 65.176 147.37 65.1444 147.516 65.1444C147.7 65.1444 147.85 65.2018 147.966 65.3166C148.083 65.4305 148.141 65.608 148.141 65.8492V67.2216H147.826V65.8492C147.826 65.6979 147.785 65.5898 147.702 65.5248C147.619 65.4599 147.522 65.4274 147.41 65.4274C147.265 65.4274 147.154 65.471 147.075 65.5582C146.995 65.6445 146.956 65.754 146.956 65.8866V67.2216H146.635V65.8172C146.635 65.7006 146.597 65.6067 146.522 65.5355C146.446 65.4634 146.349 65.4274 146.229 65.4274C146.148 65.4274 146.071 65.4492 146 65.4928C145.93 65.5364 145.873 65.5969 145.829 65.6743C145.786 65.7509 145.765 65.8394 145.765 65.94V67.2216H145.45ZM149.577 67.2643C149.379 67.2643 149.209 67.2207 149.066 67.1335C148.923 67.0453 148.813 66.9225 148.736 66.765C148.659 66.6066 148.621 66.4224 148.621 66.2123C148.621 66.0023 148.659 65.8172 148.736 65.657C148.813 65.4959 148.921 65.3704 149.059 65.2805C149.198 65.1898 149.36 65.1444 149.545 65.1444C149.652 65.1444 149.757 65.1622 149.861 65.1978C149.965 65.2334 150.06 65.2912 150.146 65.3713C150.231 65.4505 150.299 65.5555 150.35 65.6864C150.401 65.8172 150.426 65.9783 150.426 66.1696V66.3031H148.845V66.0308H150.106C150.106 65.9151 150.082 65.8118 150.036 65.7211C149.991 65.6303 149.926 65.5587 149.841 65.5061C149.758 65.4536 149.659 65.4274 149.545 65.4274C149.419 65.4274 149.311 65.4585 149.219 65.5208C149.128 65.5822 149.058 65.6623 149.01 65.7611C148.961 65.8599 148.936 65.9658 148.936 66.0788V66.2604C148.936 66.4152 148.963 66.5465 149.016 66.6542C149.07 66.761 149.146 66.8424 149.242 66.8985C149.338 66.9537 149.45 66.9813 149.577 66.9813C149.66 66.9813 149.734 66.9697 149.801 66.9466C149.869 66.9225 149.927 66.8869 149.976 66.8398C150.025 66.7917 150.063 66.7321 150.089 66.6609L150.394 66.7463C150.362 66.8496 150.308 66.9403 150.232 67.0186C150.157 67.0961 150.063 67.1566 149.952 67.2002C149.841 67.2429 149.716 67.2643 149.577 67.2643ZM151.22 64.4876V67.2216H150.905V64.4876H151.22ZM152 67.9905C151.947 67.9905 151.899 67.986 151.857 67.9771C151.815 67.9691 151.787 67.9611 151.771 67.9531L151.851 67.6754C151.927 67.695 151.995 67.7021 152.054 67.6968C152.112 67.6915 152.164 67.6652 152.21 67.618C152.256 67.5718 152.298 67.4966 152.337 67.3924L152.395 67.2322L151.637 65.1711H151.979L152.545 66.8051H152.566L153.132 65.1711H153.474L152.604 67.5206C152.564 67.6265 152.516 67.7142 152.458 67.7836C152.4 67.8539 152.333 67.9059 152.256 67.9398C152.181 67.9736 152.095 67.9905 152 67.9905ZM156.399 65.6303L156.116 65.7104C156.099 65.6632 156.072 65.6174 156.038 65.5729C156.004 65.5275 155.958 65.4901 155.899 65.4608C155.84 65.4314 155.765 65.4167 155.673 65.4167C155.548 65.4167 155.443 65.4456 155.36 65.5035C155.277 65.5604 155.235 65.633 155.235 65.7211C155.235 65.7994 155.264 65.8612 155.321 65.9066C155.378 65.952 155.467 65.9898 155.588 66.0201L155.892 66.0949C156.076 66.1394 156.212 66.2074 156.302 66.2991C156.392 66.3899 156.437 66.5069 156.437 66.6502C156.437 66.7677 156.403 66.8727 156.335 66.9652C156.269 67.0578 156.175 67.1308 156.055 67.1842C155.935 67.2376 155.795 67.2643 155.636 67.2643C155.427 67.2643 155.254 67.2189 155.117 67.1281C154.98 67.0373 154.893 66.9047 154.856 66.7303L155.155 66.6555C155.184 66.7659 155.238 66.8487 155.317 66.9038C155.397 66.959 155.501 66.9866 155.631 66.9866C155.777 66.9866 155.894 66.9555 155.98 66.8932C156.068 66.83 156.111 66.7543 156.111 66.6662C156.111 66.595 156.086 66.5354 156.036 66.4873C155.987 66.4384 155.91 66.4019 155.807 66.3779L155.465 66.2978C155.277 66.2533 155.139 66.1843 155.051 66.0909C154.964 65.9965 154.92 65.8786 154.92 65.7371C154.92 65.6214 154.953 65.5191 155.018 65.4301C155.084 65.3411 155.173 65.2712 155.286 65.2205C155.4 65.1697 155.529 65.1444 155.673 65.1444C155.876 65.1444 156.035 65.1889 156.151 65.2779C156.268 65.3669 156.351 65.4843 156.399 65.6303ZM157.744 67.2643C157.559 67.2643 157.397 67.2202 157.257 67.1321C157.118 67.044 157.009 66.9207 156.931 66.7623C156.854 66.6039 156.815 66.4188 156.815 66.207C156.815 65.9934 156.854 65.807 156.931 65.6477C157.009 65.4883 157.118 65.3646 157.257 65.2765C157.397 65.1884 157.559 65.1444 157.744 65.1444C157.929 65.1444 158.091 65.1884 158.23 65.2765C158.37 65.3646 158.478 65.4883 158.556 65.6477C158.634 65.807 158.673 65.9934 158.673 66.207C158.673 66.4188 158.634 66.6039 158.556 66.7623C158.478 66.9207 158.37 67.044 158.23 67.1321C158.091 67.2202 157.929 67.2643 157.744 67.2643ZM157.744 66.9813C157.885 66.9813 158 66.9452 158.091 66.8731C158.182 66.801 158.249 66.7063 158.293 66.5888C158.336 66.4713 158.358 66.344 158.358 66.207C158.358 66.0699 158.336 65.9422 158.293 65.8239C158.249 65.7055 158.182 65.6098 158.091 65.5368C158 65.4639 157.885 65.4274 157.744 65.4274C157.603 65.4274 157.488 65.4639 157.397 65.5368C157.306 65.6098 157.239 65.7055 157.195 65.8239C157.152 65.9422 157.13 66.0699 157.13 66.207C157.13 66.344 157.152 66.4713 157.195 66.5888C157.239 66.7063 157.306 66.801 157.397 66.8731C157.488 66.9452 157.603 66.9813 157.744 66.9813ZM160.067 65.1711V65.4381H158.962V65.1711H160.067ZM159.293 67.2216V64.8881C159.293 64.7706 159.321 64.6727 159.376 64.5944C159.431 64.5161 159.503 64.4573 159.591 64.4182C159.679 64.379 159.772 64.3594 159.87 64.3594C159.947 64.3594 160.01 64.3657 160.059 64.3781C160.108 64.3906 160.145 64.4021 160.169 64.4128L160.078 64.6852C160.062 64.6798 160.04 64.6731 160.011 64.6651C159.984 64.6571 159.947 64.6531 159.902 64.6531C159.798 64.6531 159.722 64.6794 159.676 64.7319C159.631 64.7844 159.608 64.8614 159.608 64.9628V67.2216H159.293ZM161.401 65.1711V65.4381H160.338V65.1711H161.401ZM160.648 64.6798H160.963V66.6342C160.963 66.7232 160.976 66.7899 161.001 66.8344C161.028 66.878 161.062 66.9074 161.103 66.9225C161.145 66.9368 161.189 66.9439 161.235 66.9439C161.27 66.9439 161.298 66.9421 161.32 66.9385C161.343 66.9341 161.36 66.9305 161.374 66.9279L161.438 67.2109C161.417 67.2189 161.387 67.2269 161.348 67.2349C161.31 67.2438 161.262 67.2483 161.203 67.2483C161.114 67.2483 161.027 67.2291 160.941 67.1909C160.857 67.1526 160.786 67.0943 160.73 67.016C160.675 66.9377 160.648 66.8389 160.648 66.7196V64.6798ZM163.535 67.2696C163.405 67.2696 163.287 67.2451 163.181 67.1962C163.075 67.1464 162.991 67.0747 162.929 66.9813C162.867 66.8869 162.836 66.773 162.836 66.6395C162.836 66.522 162.859 66.4268 162.905 66.3538C162.951 66.28 163.013 66.2221 163.091 66.1803C163.168 66.1385 163.253 66.1073 163.347 66.0868C163.441 66.0655 163.536 66.0486 163.631 66.0361C163.756 66.0201 163.857 66.0081 163.934 66.0001C164.013 65.9912 164.07 65.9765 164.105 65.956C164.142 65.9356 164.16 65.9 164.16 65.8492V65.8385C164.16 65.7068 164.124 65.6045 164.052 65.5315C163.981 65.4585 163.872 65.422 163.727 65.422C163.577 65.422 163.459 65.455 163.374 65.5208C163.288 65.5867 163.228 65.657 163.193 65.7318L162.894 65.625C162.948 65.5004 163.019 65.4034 163.108 65.3339C163.198 65.2636 163.296 65.2147 163.402 65.1871C163.508 65.1586 163.613 65.1444 163.717 65.1444C163.783 65.1444 163.858 65.1524 163.944 65.1684C164.03 65.1835 164.113 65.2151 164.193 65.2632C164.274 65.3112 164.341 65.3838 164.395 65.4808C164.448 65.5778 164.475 65.7077 164.475 65.8706V67.2216H164.16V66.9439H164.144C164.122 66.9884 164.087 67.036 164.037 67.0867C163.987 67.1375 163.921 67.1806 163.838 67.2162C163.755 67.2518 163.654 67.2696 163.535 67.2696ZM163.583 66.9866C163.708 66.9866 163.813 66.9621 163.898 66.9132C163.985 66.8642 164.05 66.801 164.093 66.7236C164.138 66.6462 164.16 66.5648 164.16 66.4793V66.191C164.147 66.207 164.117 66.2217 164.072 66.235C164.027 66.2475 163.976 66.2586 163.917 66.2684C163.859 66.2773 163.803 66.2853 163.747 66.2924C163.693 66.2987 163.649 66.304 163.615 66.3085C163.533 66.3191 163.457 66.3365 163.386 66.3605C163.315 66.3837 163.258 66.4188 163.215 66.466C163.172 66.5123 163.151 66.5754 163.151 66.6555C163.151 66.765 163.191 66.8478 163.272 66.9038C163.354 66.959 163.458 66.9866 163.583 66.9866ZM165.365 65.9881V67.2216H165.05V65.1711H165.354V65.4915H165.381C165.429 65.3873 165.502 65.3037 165.6 65.2405C165.698 65.1764 165.824 65.1444 165.979 65.1444C166.118 65.1444 166.239 65.1729 166.344 65.2298C166.448 65.2859 166.529 65.3713 166.586 65.4861C166.644 65.6 166.673 65.7442 166.673 65.9186V67.2216H166.358V65.94C166.358 65.7789 166.316 65.6534 166.233 65.5635C166.149 65.4728 166.034 65.4274 165.888 65.4274C165.788 65.4274 165.698 65.4492 165.619 65.4928C165.54 65.5364 165.478 65.6 165.433 65.6837C165.388 65.7674 165.365 65.8688 165.365 65.9881ZM168.023 67.2643C167.852 67.2643 167.702 67.2211 167.571 67.1348C167.44 67.0476 167.338 66.9248 167.264 66.7663C167.19 66.607 167.153 66.4188 167.153 66.2017C167.153 65.9863 167.19 65.7994 167.264 65.641C167.338 65.4826 167.44 65.3602 167.572 65.2739C167.704 65.1875 167.856 65.1444 168.029 65.1444C168.162 65.1444 168.268 65.1666 168.345 65.2111C168.423 65.2547 168.483 65.3046 168.524 65.3606C168.566 65.4158 168.598 65.4612 168.621 65.4968H168.648V64.4876H168.963V67.2216H168.659V66.9065H168.621C168.598 66.9439 168.565 66.9911 168.522 67.048C168.48 67.1041 168.419 67.1544 168.34 67.1989C168.26 67.2425 168.155 67.2643 168.023 67.2643ZM168.066 66.9813C168.192 66.9813 168.299 66.9483 168.386 66.8825C168.474 66.8157 168.54 66.7236 168.585 66.6061C168.631 66.4878 168.653 66.3512 168.653 66.1963C168.653 66.0432 168.631 65.9093 168.587 65.7945C168.542 65.6788 168.476 65.5889 168.389 65.5248C168.302 65.4599 168.194 65.4274 168.066 65.4274C167.932 65.4274 167.821 65.4616 167.732 65.5302C167.644 65.5978 167.578 65.6899 167.533 65.8065C167.49 65.9222 167.468 66.0521 167.468 66.1963C167.468 66.3423 167.49 66.4749 167.535 66.5941C167.58 66.7125 167.647 66.8068 167.735 66.8771C167.824 66.9466 167.934 66.9813 168.066 66.9813ZM113.64 72.2216V70.1711H113.955V72.2216H113.64ZM113.8 69.8293C113.738 69.8293 113.686 69.8084 113.641 69.7666C113.597 69.7248 113.576 69.6745 113.576 69.6157C113.576 69.557 113.597 69.5067 113.641 69.4649C113.686 69.4231 113.738 69.4021 113.8 69.4021C113.861 69.4021 113.914 69.4231 113.957 69.4649C114.002 69.5067 114.024 69.557 114.024 69.6157C114.024 69.6745 114.002 69.7248 113.957 69.7666C113.914 69.8084 113.861 69.8293 113.8 69.8293ZM114.847 70.9881V72.2216H114.532V70.1711H114.836V70.4915H114.863C114.911 70.3873 114.984 70.3037 115.082 70.2405C115.18 70.1764 115.306 70.1444 115.461 70.1444C115.6 70.1444 115.721 70.1729 115.825 70.2298C115.929 70.2859 116.01 70.3713 116.068 70.4861C116.126 70.6 116.155 70.7442 116.155 70.9186V72.2216H115.84V70.94C115.84 70.7789 115.798 70.6534 115.715 70.5635C115.631 70.4728 115.516 70.4274 115.37 70.4274C115.27 70.4274 115.18 70.4492 115.1 70.4928C115.022 70.5364 114.96 70.6 114.915 70.6837C114.869 70.7674 114.847 70.8688 114.847 70.9881ZM117.564 72.2643C117.372 72.2643 117.206 72.2189 117.067 72.1281C116.928 72.0373 116.822 71.9123 116.747 71.753C116.672 71.5937 116.635 71.4117 116.635 71.207C116.635 70.9987 116.673 70.815 116.749 70.6557C116.827 70.4955 116.935 70.3704 117.072 70.2805C117.211 70.1898 117.373 70.1444 117.558 70.1444C117.703 70.1444 117.833 70.1711 117.948 70.2245C118.064 70.2779 118.159 70.3526 118.233 70.4487C118.306 70.5449 118.352 70.657 118.37 70.7852H118.055C118.031 70.6917 117.978 70.6089 117.895 70.5368C117.813 70.4639 117.703 70.4274 117.564 70.4274C117.441 70.4274 117.333 70.4594 117.241 70.5235C117.149 70.5867 117.077 70.6761 117.026 70.7918C116.975 70.9066 116.95 71.0415 116.95 71.1963C116.95 71.3547 116.975 71.4927 117.024 71.6102C117.075 71.7276 117.146 71.8188 117.238 71.8838C117.331 71.9488 117.439 71.9813 117.564 71.9813C117.646 71.9813 117.72 71.967 117.787 71.9385C117.853 71.9101 117.91 71.8691 117.956 71.8157C118.003 71.7623 118.035 71.6983 118.055 71.6235H118.37C118.352 71.7445 118.308 71.8536 118.238 71.9506C118.168 72.0467 118.076 72.1232 117.962 72.1802C117.848 72.2362 117.715 72.2643 117.564 72.2643ZM118.831 72.2216V70.1711H119.135V70.4808H119.156C119.194 70.3793 119.261 70.297 119.359 70.2338C119.457 70.1706 119.568 70.139 119.69 70.139C119.713 70.139 119.742 70.1395 119.777 70.1404C119.812 70.1413 119.838 70.1426 119.856 70.1444V70.4648C119.845 70.4621 119.821 70.4581 119.782 70.4527C119.745 70.4465 119.705 70.4434 119.664 70.4434C119.564 70.4434 119.475 70.4643 119.397 70.5061C119.319 70.5471 119.258 70.604 119.212 70.677C119.168 70.7491 119.146 70.8314 119.146 70.924V72.2216H118.831ZM121.027 72.2643C120.829 72.2643 120.659 72.2207 120.515 72.1335C120.373 72.0453 120.263 71.9225 120.186 71.765C120.109 71.6066 120.071 71.4224 120.071 71.2123C120.071 71.0023 120.109 70.8172 120.186 70.657C120.263 70.4959 120.371 70.3704 120.509 70.2805C120.647 70.1898 120.809 70.1444 120.995 70.1444C121.101 70.1444 121.207 70.1622 121.311 70.1978C121.415 70.2334 121.51 70.2912 121.595 70.3713C121.681 70.4505 121.749 70.5555 121.8 70.6864C121.85 70.8172 121.876 70.9783 121.876 71.1696V71.3031H120.295V71.0308H121.555C121.555 70.9151 121.532 70.8118 121.486 70.7211C121.44 70.6303 121.375 70.5587 121.291 70.5061C121.207 70.4536 121.108 70.4274 120.995 70.4274C120.869 70.4274 120.761 70.4585 120.669 70.5208C120.578 70.5822 120.508 70.6623 120.459 70.7611C120.41 70.8599 120.386 70.9658 120.386 71.0788V71.2604C120.386 71.4152 120.413 71.5465 120.466 71.6542C120.52 71.761 120.595 71.8424 120.692 71.8985C120.788 71.9537 120.899 71.9813 121.027 71.9813C121.109 71.9813 121.184 71.9697 121.251 71.9466C121.319 71.9225 121.377 71.8869 121.426 71.8398C121.475 71.7917 121.513 71.7321 121.539 71.6609L121.844 71.7463C121.812 71.8496 121.758 71.9403 121.682 72.0186C121.606 72.0961 121.513 72.1566 121.402 72.2002C121.29 72.2429 121.165 72.2643 121.027 72.2643ZM123.129 72.2643C122.958 72.2643 122.807 72.2211 122.677 72.1348C122.546 72.0476 122.443 71.9248 122.37 71.7663C122.296 71.607 122.259 71.4188 122.259 71.2017C122.259 70.9863 122.296 70.7994 122.37 70.641C122.443 70.4826 122.546 70.3602 122.678 70.2739C122.81 70.1875 122.962 70.1444 123.135 70.1444C123.268 70.1444 123.373 70.1666 123.451 70.2111C123.529 70.2547 123.589 70.3046 123.63 70.3606C123.672 70.4158 123.704 70.4612 123.727 70.4968H123.754V69.4876H124.069V72.2216H123.765V71.9065H123.727C123.704 71.9439 123.671 71.9911 123.628 72.048C123.586 72.1041 123.525 72.1544 123.446 72.1989C123.366 72.2425 123.261 72.2643 123.129 72.2643ZM123.172 71.9813C123.298 71.9813 123.405 71.9483 123.492 71.8825C123.579 71.8157 123.646 71.7236 123.691 71.6061C123.737 71.4878 123.759 71.3512 123.759 71.1963C123.759 71.0432 123.737 70.9093 123.693 70.7945C123.648 70.6788 123.582 70.5889 123.495 70.5248C123.408 70.4599 123.3 70.4274 123.172 70.4274C123.038 70.4274 122.927 70.4616 122.838 70.5302C122.75 70.5978 122.684 70.6899 122.639 70.8065C122.596 70.9222 122.574 71.0521 122.574 71.1963C122.574 71.3423 122.596 71.4749 122.641 71.5941C122.686 71.7125 122.753 71.8068 122.841 71.8771C122.93 71.9466 123.04 71.9813 123.172 71.9813ZM124.69 72.2216V70.1711H125.005V72.2216H124.69ZM124.85 69.8293C124.789 69.8293 124.736 69.8084 124.691 69.7666C124.647 69.7248 124.626 69.6745 124.626 69.6157C124.626 69.557 124.647 69.5067 124.691 69.4649C124.736 69.4231 124.789 69.4021 124.85 69.4021C124.911 69.4021 124.964 69.4231 125.007 69.4649C125.052 69.5067 125.074 69.557 125.074 69.6157C125.074 69.6745 125.052 69.7248 125.007 69.7666C124.964 69.8084 124.911 69.8293 124.85 69.8293ZM125.625 72.2216V69.4876H125.94V70.4968H125.966C125.989 70.4612 126.021 70.4158 126.062 70.3606C126.104 70.3046 126.164 70.2547 126.241 70.2111C126.32 70.1666 126.425 70.1444 126.559 70.1444C126.732 70.1444 126.884 70.1875 127.016 70.2739C127.147 70.3602 127.25 70.4826 127.324 70.641C127.398 70.7994 127.435 70.9863 127.435 71.2017C127.435 71.4188 127.398 71.607 127.324 71.7663C127.25 71.9248 127.148 72.0476 127.017 72.1348C126.886 72.2211 126.735 72.2643 126.564 72.2643C126.433 72.2643 126.327 72.2425 126.248 72.1989C126.169 72.1544 126.108 72.1041 126.065 72.048C126.022 71.9911 125.989 71.9439 125.966 71.9065H125.929V72.2216H125.625ZM125.934 71.1963C125.934 71.3512 125.957 71.4878 126.002 71.6061C126.048 71.7236 126.114 71.8157 126.201 71.8825C126.288 71.9483 126.395 71.9813 126.522 71.9813C126.653 71.9813 126.763 71.9466 126.851 71.8771C126.94 71.8068 127.007 71.7125 127.052 71.5941C127.097 71.4749 127.12 71.3423 127.12 71.1963C127.12 71.0521 127.097 70.9222 127.053 70.8065C127.009 70.6899 126.943 70.5978 126.854 70.5302C126.766 70.4616 126.655 70.4274 126.522 70.4274C126.393 70.4274 126.286 70.4599 126.199 70.5248C126.111 70.5889 126.045 70.6788 126.001 70.7945C125.956 70.9093 125.934 71.0432 125.934 71.1963ZM128.232 69.4876V72.2216H127.917V69.4876H128.232ZM129.012 72.9905C128.958 72.9905 128.911 72.986 128.869 72.9771C128.827 72.9691 128.798 72.9611 128.782 72.9531L128.862 72.6754C128.939 72.695 129.006 72.7021 129.065 72.6968C129.124 72.6915 129.176 72.6652 129.221 72.618C129.267 72.5718 129.31 72.4966 129.348 72.3924L129.407 72.2322L128.649 70.1711H128.99L129.556 71.8051H129.578L130.144 70.1711H130.485L129.615 72.5206C129.576 72.6265 129.527 72.7142 129.47 72.7836C129.412 72.8539 129.344 72.9059 129.268 72.9398C129.192 72.9736 129.107 72.9905 129.012 72.9905ZM132.872 70.1711V70.4381H131.766V70.1711H132.872ZM132.097 72.2216V69.8881C132.097 69.7706 132.125 69.6727 132.18 69.5944C132.235 69.5161 132.307 69.4573 132.395 69.4182C132.483 69.379 132.576 69.3594 132.674 69.3594C132.751 69.3594 132.815 69.3657 132.864 69.3781C132.913 69.3906 132.949 69.4021 132.973 69.4128L132.882 69.6852C132.866 69.6798 132.844 69.6731 132.816 69.6651C132.788 69.6571 132.751 69.6531 132.706 69.6531C132.602 69.6531 132.527 69.6794 132.48 69.7319C132.435 69.7844 132.412 69.8614 132.412 69.9628V72.2216H132.097ZM133.628 69.4876V72.2216H133.313V69.4876H133.628ZM135.497 71.3832V70.1711H135.813V72.2216H135.497V71.8745H135.476C135.428 71.9786 135.353 72.0671 135.252 72.1401C135.15 72.2122 135.022 72.2483 134.867 72.2483C134.739 72.2483 134.625 72.2202 134.526 72.1642C134.426 72.1072 134.348 72.0218 134.291 71.9078C134.234 71.793 134.205 71.6484 134.205 71.474V70.1711H134.52V71.4526C134.52 71.6021 134.562 71.7214 134.646 71.8104C134.73 71.8994 134.838 71.9439 134.969 71.9439C135.047 71.9439 135.127 71.9239 135.208 71.8838C135.29 71.8438 135.358 71.7824 135.413 71.6996C135.469 71.6168 135.497 71.5114 135.497 71.3832ZM137.303 70.1711V70.4381H136.197V70.1711H137.303ZM136.528 72.2216V69.8881C136.528 69.7706 136.556 69.6727 136.611 69.5944C136.666 69.5161 136.738 69.4573 136.826 69.4182C136.914 69.379 137.007 69.3594 137.105 69.3594C137.183 69.3594 137.246 69.3657 137.295 69.3781C137.344 69.3906 137.38 69.4021 137.404 69.4128L137.313 69.6852C137.297 69.6798 137.275 69.6731 137.247 69.6651C137.219 69.6571 137.183 69.6531 137.137 69.6531C137.033 69.6531 136.958 69.6794 136.912 69.7319C136.866 69.7844 136.843 69.8614 136.843 69.9628V72.2216H136.528ZM138.657 70.1711V70.4381H137.552V70.1711H138.657ZM137.883 72.2216V69.8881C137.883 69.7706 137.911 69.6727 137.966 69.5944C138.021 69.5161 138.093 69.4573 138.181 69.4182C138.269 69.379 138.362 69.3594 138.46 69.3594C138.537 69.3594 138.6 69.3657 138.649 69.3781C138.698 69.3906 138.735 69.4021 138.759 69.4128L138.668 69.6852C138.652 69.6798 138.63 69.6731 138.601 69.6651C138.574 69.6571 138.537 69.6531 138.492 69.6531C138.388 69.6531 138.312 69.6794 138.266 69.7319C138.221 69.7844 138.198 69.8614 138.198 69.9628V72.2216H137.883ZM139.302 72.9905C139.248 72.9905 139.201 72.986 139.159 72.9771C139.117 72.9691 139.088 72.9611 139.072 72.9531L139.152 72.6754C139.229 72.695 139.296 72.7021 139.355 72.6968C139.414 72.6915 139.466 72.6652 139.511 72.618C139.558 72.5718 139.6 72.4966 139.638 72.3924L139.697 72.2322L138.939 70.1711H139.28L139.846 71.8051H139.868L140.434 70.1711H140.776L139.905 72.5206C139.866 72.6265 139.817 72.7142 139.76 72.7836C139.702 72.8539 139.635 72.9059 139.558 72.9398C139.482 72.9736 139.397 72.9905 139.302 72.9905ZM142.249 70.1711H142.564V72.3711C142.564 72.4974 142.542 72.6069 142.498 72.6995C142.456 72.792 142.391 72.8637 142.303 72.9144C142.217 72.9651 142.108 72.9905 141.976 72.9905C141.966 72.9905 141.955 72.9905 141.944 72.9905C141.934 72.9905 141.923 72.9905 141.912 72.9905V72.6968C141.923 72.6968 141.933 72.6968 141.942 72.6968C141.951 72.6968 141.96 72.6968 141.971 72.6968C142.067 72.6968 142.137 72.6683 142.182 72.6114C142.226 72.5553 142.249 72.4752 142.249 72.3711V70.1711ZM142.404 69.8293C142.342 69.8293 142.289 69.8084 142.245 69.7666C142.201 69.7248 142.179 69.6745 142.179 69.6157C142.179 69.557 142.201 69.5067 142.245 69.4649C142.289 69.4231 142.342 69.4021 142.404 69.4021C142.465 69.4021 142.517 69.4231 142.561 69.4649C142.606 69.5067 142.628 69.557 142.628 69.6157C142.628 69.6745 142.606 69.7248 142.561 69.7666C142.517 69.8084 142.465 69.8293 142.404 69.8293ZM143.744 72.2696C143.614 72.2696 143.496 72.2451 143.39 72.1962C143.284 72.1464 143.2 72.0747 143.138 71.9813C143.076 71.8869 143.045 71.773 143.045 71.6395C143.045 71.522 143.068 71.4268 143.114 71.3538C143.16 71.28 143.222 71.2221 143.3 71.1803C143.377 71.1385 143.462 71.1073 143.556 71.0868C143.65 71.0655 143.745 71.0486 143.84 71.0361C143.965 71.0201 144.066 71.0081 144.143 71.0001C144.222 70.9912 144.279 70.9765 144.314 70.956C144.351 70.9356 144.369 70.9 144.369 70.8492V70.8385C144.369 70.7068 144.333 70.6045 144.261 70.5315C144.19 70.4585 144.081 70.422 143.936 70.422C143.786 70.422 143.668 70.455 143.583 70.5208C143.497 70.5867 143.437 70.657 143.402 70.7318L143.103 70.625C143.157 70.5004 143.228 70.4034 143.317 70.3339C143.407 70.2636 143.505 70.2147 143.611 70.1871C143.717 70.1586 143.822 70.1444 143.926 70.1444C143.992 70.1444 144.067 70.1524 144.153 70.1684C144.239 70.1835 144.322 70.2151 144.402 70.2632C144.483 70.3112 144.55 70.3838 144.604 70.4808C144.657 70.5778 144.684 70.7077 144.684 70.8706V72.2216H144.369V71.9439H144.353C144.332 71.9884 144.296 72.036 144.246 72.0867C144.196 72.1375 144.13 72.1806 144.047 72.2162C143.964 72.2518 143.863 72.2696 143.744 72.2696ZM143.792 71.9866C143.917 71.9866 144.022 71.9621 144.107 71.9132C144.194 71.8642 144.259 71.801 144.302 71.7236C144.347 71.6462 144.369 71.5648 144.369 71.4793V71.191C144.356 71.207 144.326 71.2217 144.281 71.235C144.236 71.2475 144.185 71.2586 144.126 71.2684C144.068 71.2773 144.012 71.2853 143.956 71.2924C143.902 71.2987 143.858 71.304 143.824 71.3085C143.742 71.3191 143.666 71.3365 143.595 71.3605C143.524 71.3837 143.467 71.4188 143.424 71.466C143.381 71.5123 143.36 71.5754 143.36 71.6555C143.36 71.765 143.4 71.8478 143.481 71.9038C143.563 71.959 143.667 71.9866 143.792 71.9866ZM145.259 72.9905V70.1711H145.563V70.4968H145.601C145.624 70.4612 145.656 70.4158 145.697 70.3606C145.739 70.3046 145.798 70.2547 145.876 70.2111C145.954 70.1666 146.06 70.1444 146.193 70.1444C146.366 70.1444 146.518 70.1875 146.65 70.2739C146.782 70.3602 146.885 70.4826 146.958 70.641C147.032 70.7994 147.069 70.9863 147.069 71.2017C147.069 71.4188 147.032 71.607 146.958 71.7663C146.885 71.9248 146.782 72.0476 146.651 72.1348C146.521 72.2211 146.37 72.2643 146.199 72.2643C146.067 72.2643 145.962 72.2425 145.882 72.1989C145.803 72.1544 145.742 72.1041 145.7 72.048C145.657 71.9911 145.624 71.9439 145.601 71.9065H145.574V72.9905H145.259ZM145.569 71.1963C145.569 71.3512 145.591 71.4878 145.637 71.6061C145.682 71.7236 145.748 71.8157 145.836 71.8825C145.923 71.9483 146.03 71.9813 146.156 71.9813C146.288 71.9813 146.398 71.9466 146.486 71.8771C146.575 71.8068 146.642 71.7125 146.686 71.5941C146.731 71.4749 146.754 71.3423 146.754 71.1963C146.754 71.0521 146.732 70.9222 146.687 70.8065C146.644 70.6899 146.577 70.5978 146.488 70.5302C146.4 70.4616 146.29 70.4274 146.156 70.4274C146.028 70.4274 145.92 70.4599 145.833 70.5248C145.746 70.5889 145.68 70.6788 145.635 70.7945C145.591 70.9093 145.569 71.0432 145.569 71.1963ZM148.153 72.2696C148.023 72.2696 147.905 72.2451 147.799 72.1962C147.693 72.1464 147.609 72.0747 147.547 71.9813C147.485 71.8869 147.454 71.773 147.454 71.6395C147.454 71.522 147.477 71.4268 147.523 71.3538C147.569 71.28 147.631 71.2221 147.709 71.1803C147.786 71.1385 147.871 71.1073 147.965 71.0868C148.059 71.0655 148.154 71.0486 148.249 71.0361C148.374 71.0201 148.475 71.0081 148.552 71.0001C148.631 70.9912 148.688 70.9765 148.723 70.956C148.76 70.9356 148.778 70.9 148.778 70.8492V70.8385C148.778 70.7068 148.742 70.6045 148.67 70.5315C148.599 70.4585 148.49 70.422 148.345 70.422C148.195 70.422 148.077 70.455 147.992 70.5208C147.906 70.5867 147.846 70.657 147.811 70.7318L147.512 70.625C147.566 70.5004 147.637 70.4034 147.726 70.3339C147.816 70.2636 147.914 70.2147 148.02 70.1871C148.126 70.1586 148.231 70.1444 148.335 70.1444C148.401 70.1444 148.476 70.1524 148.562 70.1684C148.648 70.1835 148.731 70.2151 148.811 70.2632C148.892 70.3112 148.959 70.3838 149.013 70.4808C149.066 70.5778 149.093 70.7077 149.093 70.8706V72.2216H148.778V71.9439H148.762C148.741 71.9884 148.705 72.036 148.655 72.0867C148.605 72.1375 148.539 72.1806 148.456 72.2162C148.373 72.2518 148.272 72.2696 148.153 72.2696ZM148.201 71.9866C148.326 71.9866 148.431 71.9621 148.516 71.9132C148.603 71.8642 148.668 71.801 148.711 71.7236C148.756 71.6462 148.778 71.5648 148.778 71.4793V71.191C148.765 71.207 148.735 71.2217 148.69 71.235C148.645 71.2475 148.594 71.2586 148.535 71.2684C148.477 71.2773 148.421 71.2853 148.365 71.2924C148.311 71.2987 148.267 71.304 148.233 71.3085C148.151 71.3191 148.075 71.3365 148.004 71.3605C147.933 71.3837 147.876 71.4188 147.833 71.466C147.79 71.5123 147.769 71.5754 147.769 71.6555C147.769 71.765 147.809 71.8478 147.89 71.9038C147.972 71.959 148.076 71.9866 148.201 71.9866ZM149.983 70.9881V72.2216H149.668V70.1711H149.972V70.4915H149.999C150.047 70.3873 150.12 70.3037 150.218 70.2405C150.316 70.1764 150.442 70.1444 150.597 70.1444C150.736 70.1444 150.857 70.1729 150.962 70.2298C151.066 70.2859 151.147 70.3713 151.205 70.4861C151.262 70.6 151.291 70.7442 151.291 70.9186V72.2216H150.976V70.94C150.976 70.7789 150.934 70.6534 150.851 70.5635C150.767 70.4728 150.652 70.4274 150.506 70.4274C150.406 70.4274 150.316 70.4492 150.237 70.4928C150.158 70.5364 150.097 70.6 150.051 70.6837C150.006 70.7674 149.983 70.8688 149.983 70.9881ZM152.727 72.2643C152.529 72.2643 152.359 72.2207 152.215 72.1335C152.073 72.0453 151.963 71.9225 151.886 71.765C151.809 71.6066 151.771 71.4224 151.771 71.2123C151.771 71.0023 151.809 70.8172 151.886 70.657C151.963 70.4959 152.071 70.3704 152.209 70.2805C152.348 70.1898 152.51 70.1444 152.695 70.1444C152.801 70.1444 152.907 70.1622 153.011 70.1978C153.115 70.2334 153.21 70.2912 153.295 70.3713C153.381 70.4505 153.449 70.5555 153.5 70.6864C153.55 70.8172 153.576 70.9783 153.576 71.1696V71.3031H151.995V71.0308H153.255C153.255 70.9151 153.232 70.8118 153.186 70.7211C153.141 70.6303 153.076 70.5587 152.991 70.5061C152.907 70.4536 152.809 70.4274 152.695 70.4274C152.569 70.4274 152.461 70.4585 152.369 70.5208C152.278 70.5822 152.208 70.6623 152.159 70.7611C152.11 70.8599 152.086 70.9658 152.086 71.0788V71.2604C152.086 71.4152 152.113 71.5465 152.166 71.6542C152.22 71.761 152.296 71.8424 152.392 71.8985C152.488 71.9537 152.599 71.9813 152.727 71.9813C152.809 71.9813 152.884 71.9697 152.951 71.9466C153.019 71.9225 153.077 71.8869 153.126 71.8398C153.175 71.7917 153.213 71.7321 153.239 71.6609L153.544 71.7463C153.512 71.8496 153.458 71.9403 153.382 72.0186C153.307 72.0961 153.213 72.1566 153.102 72.2002C152.991 72.2429 152.866 72.2643 152.727 72.2643ZM155.507 70.6303L155.224 70.7104C155.207 70.6632 155.18 70.6174 155.146 70.5729C155.112 70.5275 155.066 70.4901 155.007 70.4608C154.948 70.4314 154.873 70.4167 154.781 70.4167C154.656 70.4167 154.551 70.4456 154.467 70.5035C154.385 70.5604 154.343 70.633 154.343 70.7211C154.343 70.7994 154.372 70.8612 154.429 70.9066C154.486 70.952 154.575 70.9898 154.696 71.0201L155 71.0949C155.183 71.1394 155.32 71.2074 155.41 71.2991C155.5 71.3899 155.545 71.5069 155.545 71.6502C155.545 71.7677 155.511 71.8727 155.443 71.9652C155.377 72.0578 155.283 72.1308 155.163 72.1842C155.043 72.2376 154.903 72.2643 154.744 72.2643C154.535 72.2643 154.362 72.2189 154.225 72.1281C154.087 72.0373 154.001 71.9047 153.964 71.7303L154.263 71.6555C154.292 71.7659 154.346 71.8487 154.425 71.9038C154.505 71.959 154.609 71.9866 154.738 71.9866C154.885 71.9866 155.002 71.9555 155.088 71.8932C155.175 71.83 155.219 71.7543 155.219 71.6662C155.219 71.595 155.194 71.5354 155.144 71.4873C155.094 71.4384 155.018 71.4019 154.915 71.3779L154.573 71.2978C154.385 71.2533 154.247 71.1843 154.159 71.0909C154.072 70.9965 154.028 70.8786 154.028 70.7371C154.028 70.6214 154.061 70.5191 154.126 70.4301C154.192 70.3411 154.281 70.2712 154.394 70.2205C154.508 70.1697 154.637 70.1444 154.781 70.1444C154.984 70.1444 155.143 70.1889 155.259 70.2779C155.376 70.3669 155.458 70.4843 155.507 70.6303ZM156.879 72.2643C156.681 72.2643 156.511 72.2207 156.367 72.1335C156.225 72.0453 156.115 71.9225 156.038 71.765C155.961 71.6066 155.923 71.4224 155.923 71.2123C155.923 71.0023 155.961 70.8172 156.038 70.657C156.115 70.4959 156.223 70.3704 156.361 70.2805C156.5 70.1898 156.662 70.1444 156.847 70.1444C156.953 70.1444 157.059 70.1622 157.163 70.1978C157.267 70.2334 157.362 70.2912 157.447 70.3713C157.533 70.4505 157.601 70.5555 157.652 70.6864C157.702 70.8172 157.728 70.9783 157.728 71.1696V71.3031H156.147V71.0308H157.407C157.407 70.9151 157.384 70.8118 157.338 70.7211C157.293 70.6303 157.228 70.5587 157.143 70.5061C157.059 70.4536 156.961 70.4274 156.847 70.4274C156.721 70.4274 156.613 70.4585 156.521 70.5208C156.43 70.5822 156.36 70.6623 156.311 70.7611C156.262 70.8599 156.238 70.9658 156.238 71.0788V71.2604C156.238 71.4152 156.265 71.5465 156.318 71.6542C156.372 71.761 156.448 71.8424 156.544 71.8985C156.64 71.9537 156.751 71.9813 156.879 71.9813C156.961 71.9813 157.036 71.9697 157.103 71.9466C157.171 71.9225 157.229 71.8869 157.278 71.8398C157.327 71.7917 157.365 71.7321 157.391 71.6609L157.696 71.7463C157.664 71.8496 157.61 71.9403 157.534 72.0186C157.459 72.0961 157.365 72.1566 157.254 72.2002C157.143 72.2429 157.018 72.2643 156.879 72.2643ZM159.264 72.2216V70.1711H159.569V70.4915H159.595C159.638 70.382 159.707 70.297 159.802 70.2365C159.897 70.1751 160.012 70.1444 160.145 70.1444C160.281 70.1444 160.393 70.1751 160.483 70.2365C160.574 70.297 160.645 70.382 160.695 70.4915H160.717C160.769 70.3856 160.848 70.3015 160.953 70.2392C161.058 70.176 161.184 70.1444 161.331 70.1444C161.514 70.1444 161.664 70.2018 161.781 70.3166C161.897 70.4305 161.956 70.608 161.956 70.8492V72.2216H161.64V70.8492C161.64 70.6979 161.599 70.5898 161.516 70.5248C161.434 70.4599 161.336 70.4274 161.224 70.4274C161.08 70.4274 160.968 70.471 160.889 70.5582C160.81 70.6445 160.77 70.754 160.77 70.8866V72.2216H160.45V70.8172C160.45 70.7006 160.412 70.6067 160.336 70.5355C160.261 70.4634 160.163 70.4274 160.044 70.4274C159.962 70.4274 159.885 70.4492 159.814 70.4928C159.744 70.5364 159.687 70.5969 159.643 70.6743C159.601 70.7509 159.579 70.8394 159.579 70.94V72.2216H159.264ZM162.532 72.2216V70.1711H162.847V72.2216H162.532ZM162.692 69.8293C162.63 69.8293 162.577 69.8084 162.533 69.7666C162.489 69.7248 162.467 69.6745 162.467 69.6157C162.467 69.557 162.489 69.5067 162.533 69.4649C162.577 69.4231 162.63 69.4021 162.692 69.4021C162.753 69.4021 162.806 69.4231 162.849 69.4649C162.894 69.5067 162.916 69.557 162.916 69.6157C162.916 69.6745 162.894 69.7248 162.849 69.7666C162.806 69.8084 162.753 69.8293 162.692 69.8293ZM163.739 69.4876V72.2216H163.424V69.4876H163.739ZM164.609 71.474L164.604 71.0842H164.668L165.565 70.1711H165.955L164.999 71.1376H164.973L164.609 71.474ZM164.316 72.2216V69.4876H164.631V72.2216H164.316ZM165.619 72.2216L164.818 71.207L165.042 70.9881L166.019 72.2216H165.619ZM167.461 72.2216V69.4876H167.776V70.4968H167.802C167.825 70.4612 167.857 70.4158 167.898 70.3606C167.94 70.3046 168 70.2547 168.077 70.2111C168.156 70.1666 168.262 70.1444 168.395 70.1444C168.568 70.1444 168.72 70.1875 168.852 70.2739C168.983 70.3602 169.086 70.4826 169.16 70.641C169.234 70.7994 169.271 70.9863 169.271 71.2017C169.271 71.4188 169.234 71.607 169.16 71.7663C169.086 71.9248 168.984 72.0476 168.853 72.1348C168.722 72.2211 168.571 72.2643 168.4 72.2643C168.269 72.2643 168.163 72.2425 168.084 72.1989C168.005 72.1544 167.944 72.1041 167.901 72.048C167.858 71.9911 167.825 71.9439 167.802 71.9065H167.765V72.2216H167.461ZM167.77 71.1963C167.77 71.3512 167.793 71.4878 167.838 71.6061C167.884 71.7236 167.95 71.8157 168.037 71.8825C168.124 71.9483 168.231 71.9813 168.358 71.9813C168.489 71.9813 168.599 71.9466 168.687 71.8771C168.776 71.8068 168.843 71.7125 168.888 71.5941C168.933 71.4749 168.956 71.3423 168.956 71.1963C168.956 71.0521 168.933 70.9222 168.889 70.8065C168.845 70.6899 168.779 70.5978 168.69 70.5302C168.602 70.4616 168.491 70.4274 168.358 70.4274C168.229 70.4274 168.122 70.4599 168.035 70.5248C167.947 70.5889 167.881 70.6788 167.837 70.7945C167.793 70.9093 167.77 71.0432 167.77 71.1963ZM169.753 72.2216V70.1711H170.057V70.4808H170.078C170.116 70.3793 170.183 70.297 170.281 70.2338C170.379 70.1706 170.49 70.139 170.612 70.139C170.636 70.139 170.664 70.1395 170.699 70.1404C170.734 70.1413 170.76 70.1426 170.778 70.1444V70.4648C170.767 70.4621 170.743 70.4581 170.704 70.4527C170.667 70.4465 170.627 70.4434 170.586 70.4434C170.486 70.4434 170.397 70.4643 170.319 70.5061C170.241 70.5471 170.18 70.604 170.134 70.677C170.09 70.7491 170.068 70.8314 170.068 70.924V72.2216H169.753ZM171.949 72.2643C171.751 72.2643 171.581 72.2207 171.437 72.1335C171.295 72.0453 171.185 71.9225 171.108 71.765C171.031 71.6066 170.993 71.4224 170.993 71.2123C170.993 71.0023 171.031 70.8172 171.108 70.657C171.185 70.4959 171.293 70.3704 171.431 70.2805C171.57 70.1898 171.731 70.1444 171.917 70.1444C172.023 70.1444 172.129 70.1622 172.233 70.1978C172.337 70.2334 172.432 70.2912 172.517 70.3713C172.603 70.4505 172.671 70.5555 172.722 70.6864C172.772 70.8172 172.798 70.9783 172.798 71.1696V71.3031H171.217V71.0308H172.477C172.477 70.9151 172.454 70.8118 172.408 70.7211C172.362 70.6303 172.298 70.5587 172.213 70.5061C172.129 70.4536 172.031 70.4274 171.917 70.4274C171.791 70.4274 171.683 70.4585 171.591 70.5208C171.5 70.5822 171.43 70.6623 171.381 70.7611C171.332 70.8599 171.308 70.9658 171.308 71.0788V71.2604C171.308 71.4152 171.335 71.5465 171.388 71.6542C171.442 71.761 171.517 71.8424 171.614 71.8985C171.71 71.9537 171.821 71.9813 171.949 71.9813C172.031 71.9813 172.106 71.9697 172.173 71.9466C172.241 71.9225 172.299 71.8869 172.348 71.8398C172.397 71.7917 172.435 71.7321 172.461 71.6609L172.766 71.7463C172.734 71.8496 172.68 71.9403 172.604 72.0186C172.528 72.0961 172.435 72.1566 172.324 72.2002C172.213 72.2429 172.087 72.2643 171.949 72.2643ZM173.88 72.2696C173.75 72.2696 173.632 72.2451 173.527 72.1962C173.421 72.1464 173.337 72.0747 173.274 71.9813C173.212 71.8869 173.181 71.773 173.181 71.6395C173.181 71.522 173.204 71.4268 173.25 71.3538C173.297 71.28 173.358 71.2221 173.436 71.1803C173.513 71.1385 173.599 71.1073 173.692 71.0868C173.786 71.0655 173.881 71.0486 173.976 71.0361C174.101 71.0201 174.202 71.0081 174.279 71.0001C174.358 70.9912 174.415 70.9765 174.45 70.956C174.487 70.9356 174.505 70.9 174.505 70.8492V70.8385C174.505 70.7068 174.469 70.6045 174.397 70.5315C174.326 70.4585 174.218 70.422 174.073 70.422C173.922 70.422 173.804 70.455 173.719 70.5208C173.633 70.5867 173.573 70.657 173.539 70.7318L173.24 70.625C173.293 70.5004 173.364 70.4034 173.453 70.3339C173.543 70.2636 173.641 70.2147 173.747 70.1871C173.854 70.1586 173.959 70.1444 174.062 70.1444C174.128 70.1444 174.203 70.1524 174.289 70.1684C174.375 70.1835 174.458 70.2151 174.538 70.2632C174.619 70.3112 174.687 70.3838 174.74 70.4808C174.793 70.5778 174.82 70.7077 174.82 70.8706V72.2216H174.505V71.9439H174.489C174.468 71.9884 174.432 72.036 174.382 72.0867C174.332 72.1375 174.266 72.1806 174.183 72.2162C174.101 72.2518 174 72.2696 173.88 72.2696ZM173.928 71.9866C174.053 71.9866 174.158 71.9621 174.243 71.9132C174.33 71.8642 174.395 71.801 174.438 71.7236C174.483 71.6462 174.505 71.5648 174.505 71.4793V71.191C174.492 71.207 174.462 71.2217 174.417 71.235C174.372 71.2475 174.321 71.2586 174.262 71.2684C174.204 71.2773 174.148 71.2853 174.093 71.2924C174.038 71.2987 173.994 71.304 173.96 71.3085C173.879 71.3191 173.802 71.3365 173.731 71.3605C173.661 71.3837 173.604 71.4188 173.56 71.466C173.517 71.5123 173.496 71.5754 173.496 71.6555C173.496 71.765 173.536 71.8478 173.617 71.9038C173.699 71.959 173.803 71.9866 173.928 71.9866ZM176.169 72.2643C175.999 72.2643 175.848 72.2211 175.717 72.1348C175.586 72.0476 175.484 71.9248 175.41 71.7663C175.336 71.607 175.299 71.4188 175.299 71.2017C175.299 70.9863 175.336 70.7994 175.41 70.641C175.484 70.4826 175.587 70.3602 175.718 70.2739C175.85 70.1875 176.002 70.1444 176.175 70.1444C176.308 70.1444 176.414 70.1666 176.491 70.2111C176.569 70.2547 176.629 70.3046 176.67 70.3606C176.712 70.4158 176.744 70.4612 176.767 70.4968H176.794V69.4876H177.109V72.2216H176.805V71.9065H176.767C176.744 71.9439 176.711 71.9911 176.669 72.048C176.626 72.1041 176.565 72.1544 176.486 72.1989C176.407 72.2425 176.301 72.2643 176.169 72.2643ZM176.212 71.9813C176.339 71.9813 176.445 71.9483 176.533 71.8825C176.62 71.8157 176.686 71.7236 176.731 71.6061C176.777 71.4878 176.8 71.3512 176.8 71.1963C176.8 71.0432 176.777 70.9093 176.733 70.7945C176.688 70.6788 176.622 70.5889 176.535 70.5248C176.448 70.4599 176.34 70.4274 176.212 70.4274C176.079 70.4274 175.967 70.4616 175.878 70.5302C175.79 70.5978 175.724 70.6899 175.68 70.8065C175.636 70.9222 175.614 71.0521 175.614 71.1963C175.614 71.3423 175.636 71.4749 175.681 71.5941C175.726 71.7125 175.793 71.8068 175.881 71.8771C175.97 71.9466 176.08 71.9813 176.212 71.9813Z"
        fill="#949494" />
      <path
        d="M77.0125 85.7523C77.0125 82.984 79.2565 80.74 82.0247 80.74H122.75C125.518 80.74 127.762 82.984 127.762 85.7523V135.875H77.0125V85.7523Z"
        fill="#E6E6E6" />
      <rect x="77.0123" y="127.731" width="50.7495" height="28.1942" rx="5.0123" fill="#D1D1D1" />
      <path
        d="M133.871 85.7521C133.871 82.9839 136.115 80.7398 138.883 80.7398H179.608C182.376 80.7398 184.62 82.9839 184.62 85.7521V135.875H133.871V85.7521Z"
        fill="#E6E6E6" />
      <rect x="133.87" y="127.73" width="50.7495" height="28.1942" rx="5.0123" fill="#D1D1D1" />
    </g>
  </g>
  <path
    d="M40.3082 28.5703V27.9091H44.2482V28.5703H42.6598V33H41.8942V28.5703H40.3082ZM46.1511 33.0771C45.7749 33.0771 45.4509 32.9967 45.1792 32.8359C44.909 32.6735 44.7002 32.4457 44.5527 32.1523C44.4069 31.8574 44.334 31.5118 44.334 31.1158C44.334 30.7247 44.4069 30.38 44.5527 30.0817C44.7002 29.7834 44.9057 29.5505 45.1692 29.3832C45.4344 29.2158 45.7443 29.1321 46.0989 29.1321C46.3143 29.1321 46.5231 29.1677 46.7253 29.239C46.9275 29.3103 47.109 29.4221 47.2697 29.5746C47.4305 29.727 47.5572 29.9251 47.65 30.1687C47.7428 30.4106 47.7892 30.7048 47.7892 31.0511V31.3146H44.7541V30.7578H47.0609C47.0609 30.5623 47.0211 30.3891 46.9416 30.2383C46.862 30.0858 46.7502 29.9657 46.606 29.8778C46.4635 29.79 46.2961 29.7461 46.1039 29.7461C45.8951 29.7461 45.7128 29.7975 45.557 29.9002C45.4029 30.0013 45.2836 30.1339 45.199 30.2979C45.1162 30.4603 45.0748 30.6368 45.0748 30.8274V31.2624C45.0748 31.5176 45.1195 31.7347 45.209 31.9137C45.3001 32.0927 45.4269 32.2294 45.5893 32.3239C45.7517 32.4167 45.9415 32.4631 46.1586 32.4631C46.2994 32.4631 46.4279 32.4432 46.5439 32.4034C46.6599 32.362 46.7601 32.3007 46.8446 32.2195C46.9292 32.1383 46.9938 32.038 47.0385 31.9187L47.742 32.0455C47.6857 32.2526 47.5846 32.4341 47.4387 32.5898C47.2946 32.744 47.1131 32.8641 46.8944 32.9503C46.6773 33.0348 46.4295 33.0771 46.1511 33.0771ZM51.055 29.1818V29.8232H49.3472V33H48.6139V29.1818H51.055ZM52.5688 31.9585L54.2517 29.1818H55.0521V33H54.3238V30.2209L52.6483 33H51.8405V29.1818H52.5688V31.9585Z"
    fill="#191919" />
  <path
    d="M201.135 60L199.424 57.718H198.883V60H198.114V54.9091H198.883V57.0593H199.134L201.058 54.9091H201.995L199.959 57.1886L202.072 60H201.135ZM203.835 60.0845C203.593 60.0845 203.374 60.0398 203.179 59.9503C202.983 59.8591 202.828 59.7274 202.714 59.555C202.601 59.3827 202.545 59.1714 202.545 58.9212C202.545 58.7057 202.586 58.5284 202.669 58.3892C202.752 58.25 202.864 58.1398 203.005 58.0586C203.146 57.9774 203.303 57.9161 203.477 57.8746C203.651 57.8332 203.828 57.8017 204.009 57.7802C204.238 57.7537 204.423 57.7321 204.566 57.7156C204.708 57.6973 204.812 57.6683 204.876 57.6286C204.941 57.5888 204.973 57.5241 204.973 57.4347V57.4173C204.973 57.2002 204.912 57.032 204.789 56.9126C204.668 56.7933 204.488 56.7337 204.248 56.7337C203.997 56.7337 203.8 56.7892 203.656 56.9002C203.513 57.0096 203.415 57.1314 203.36 57.2656L202.662 57.1065C202.744 56.8745 202.865 56.6873 203.025 56.5447C203.185 56.4006 203.37 56.2962 203.579 56.2315C203.788 56.1652 204.007 56.1321 204.238 56.1321C204.39 56.1321 204.552 56.1503 204.722 56.1868C204.895 56.2216 205.055 56.2862 205.205 56.3807C205.355 56.4751 205.479 56.6102 205.575 56.7859C205.671 56.9599 205.719 57.1861 205.719 57.4645V60H204.993V59.478H204.963C204.915 59.5741 204.843 59.6686 204.747 59.7614C204.651 59.8542 204.528 59.9312 204.377 59.9925C204.226 60.0539 204.045 60.0845 203.835 60.0845ZM203.996 59.4879C204.202 59.4879 204.378 59.4473 204.523 59.3661C204.671 59.2849 204.783 59.1789 204.859 59.0479C204.937 58.9154 204.976 58.7737 204.976 58.6229V58.1307C204.949 58.1572 204.898 58.1821 204.822 58.2053C204.747 58.2268 204.662 58.2459 204.566 58.2624C204.47 58.2773 204.376 58.2914 204.285 58.3047C204.194 58.3163 204.117 58.3262 204.056 58.3345C203.912 58.3527 203.78 58.3834 203.661 58.4265C203.543 58.4696 203.449 58.5317 203.378 58.6129C203.308 58.6925 203.273 58.7985 203.273 58.9311C203.273 59.1151 203.341 59.2543 203.477 59.3487C203.613 59.4415 203.786 59.4879 203.996 59.4879ZM206.236 56.8232V56.1818H209.457V56.8232H208.212V60H207.486V56.8232H206.236ZM211.711 60.0771C211.335 60.0771 211.011 59.9967 210.739 59.8359C210.469 59.6735 210.26 59.4457 210.113 59.1523C209.967 58.8574 209.894 58.5118 209.894 58.1158C209.894 57.7247 209.967 57.38 210.113 57.0817C210.26 56.7834 210.466 56.5505 210.729 56.3832C210.994 56.2158 211.304 56.1321 211.659 56.1321C211.874 56.1321 212.083 56.1677 212.285 56.239C212.488 56.3103 212.669 56.4221 212.83 56.5746C212.991 56.727 213.117 56.9251 213.21 57.1687C213.303 57.4106 213.349 57.7048 213.349 58.0511V58.3146H210.314V57.7578H212.621C212.621 57.5623 212.581 57.3891 212.502 57.2383C212.422 57.0858 212.31 56.9657 212.166 56.8778C212.024 56.79 211.856 56.7461 211.664 56.7461C211.455 56.7461 211.273 56.7975 211.117 56.9002C210.963 57.0013 210.844 57.1339 210.759 57.2979C210.676 57.4603 210.635 57.6368 210.635 57.8274V58.2624C210.635 58.5176 210.68 58.7347 210.769 58.9137C210.86 59.0927 210.987 59.2294 211.149 59.3239C211.312 59.4167 211.502 59.4631 211.719 59.4631C211.859 59.4631 211.988 59.4432 212.104 59.4034C212.22 59.362 212.32 59.3007 212.405 59.2195C212.489 59.1383 212.554 59.038 212.599 58.9187L213.302 59.0455C213.246 59.2526 213.145 59.4341 212.999 59.5898C212.855 59.744 212.673 59.8641 212.454 59.9503C212.237 60.0348 211.99 60.0771 211.711 60.0771ZM216.615 56.1818V56.8232H214.907V60H214.174V56.1818H216.615ZM218.831 60.0771C218.473 60.0771 218.161 59.995 217.894 59.831C217.627 59.6669 217.42 59.4374 217.273 59.1424C217.125 58.8474 217.051 58.5027 217.051 58.1083C217.051 57.7122 217.125 57.3659 217.273 57.0692C217.42 56.7726 217.627 56.5423 217.894 56.3782C218.161 56.2141 218.473 56.1321 218.831 56.1321C219.189 56.1321 219.501 56.2141 219.768 56.3782C220.035 56.5423 220.242 56.7726 220.39 57.0692C220.537 57.3659 220.611 57.7122 220.611 58.1083C220.611 58.5027 220.537 58.8474 220.39 59.1424C220.242 59.4374 220.035 59.6669 219.768 59.831C219.501 59.995 219.189 60.0771 218.831 60.0771ZM218.834 59.4531C219.066 59.4531 219.258 59.3918 219.41 59.2692C219.563 59.1465 219.675 58.9833 219.748 58.7795C219.823 58.5756 219.86 58.3511 219.86 58.1058C219.86 57.8622 219.823 57.6385 219.748 57.4347C219.675 57.2292 219.563 57.0643 219.41 56.94C219.258 56.8157 219.066 56.7536 218.834 56.7536C218.6 56.7536 218.406 56.8157 218.252 56.94C218.099 57.0643 217.986 57.2292 217.911 57.4347C217.838 57.6385 217.802 57.8622 217.802 58.1058C217.802 58.3511 217.838 58.5756 217.911 58.7795C217.986 58.9833 218.099 59.1465 218.252 59.2692C218.406 59.3918 218.6 59.4531 218.834 59.4531ZM221.441 61.4318V56.1818H222.166V56.8008H222.229C222.272 56.7212 222.334 56.6293 222.415 56.5249C222.496 56.4205 222.609 56.3293 222.753 56.2514C222.897 56.1719 223.088 56.1321 223.325 56.1321C223.633 56.1321 223.908 56.21 224.15 56.3658C224.392 56.5215 224.582 56.7461 224.719 57.0394C224.859 57.3327 224.928 57.6857 224.928 58.0984C224.928 58.511 224.859 58.8648 224.722 59.1598C224.584 59.4531 224.395 59.6793 224.155 59.8384C223.915 59.9959 223.64 60.0746 223.332 60.0746C223.1 60.0746 222.91 60.0356 222.763 59.9577C222.617 59.8799 222.503 59.7887 222.42 59.6843C222.337 59.5799 222.273 59.4871 222.229 59.4059H222.184V61.4318H221.441ZM222.169 58.0909C222.169 58.3594 222.208 58.5947 222.286 58.7969C222.364 58.9991 222.476 59.1573 222.624 59.2717C222.771 59.3844 222.952 59.4407 223.166 59.4407C223.388 59.4407 223.573 59.3819 223.723 59.2642C223.872 59.1449 223.984 58.9833 224.061 58.7795C224.138 58.5756 224.177 58.3461 224.177 58.0909C224.177 57.839 224.139 57.6128 224.063 57.4123C223.988 57.2118 223.876 57.0535 223.725 56.9375C223.576 56.8215 223.389 56.7635 223.166 56.7635C222.95 56.7635 222.768 56.819 222.619 56.93C222.471 57.0411 222.359 57.196 222.283 57.3949C222.207 57.5938 222.169 57.8258 222.169 58.0909ZM226.489 58.9585L228.172 56.1818H228.973V60H228.244V57.2209L226.569 60H225.761V56.1818H226.489V58.9585ZM232.249 60V56.8157H231.334C231.117 56.8157 230.948 56.8662 230.827 56.9673C230.706 57.0684 230.645 57.201 230.645 57.3651C230.645 57.5275 230.701 57.6584 230.812 57.7578C230.925 57.8556 231.082 57.9045 231.284 57.9045H232.465V58.506H231.284C231.003 58.506 230.759 58.4596 230.553 58.3668C230.35 58.2724 230.192 58.139 230.081 57.9666C229.972 57.7943 229.917 57.5904 229.917 57.3551C229.917 57.1148 229.973 56.9077 230.086 56.7337C230.201 56.558 230.364 56.4221 230.576 56.326C230.79 56.2299 231.042 56.1818 231.334 56.1818H232.947V60H232.249ZM229.743 60L230.819 58.071H231.58L230.504 60H229.743Z"
    fill="#191919" />
  <path
    d="M202.943 72.4545C202.943 72.9981 202.844 73.4654 202.645 73.8565C202.446 74.246 202.173 74.5459 201.827 74.7564C201.482 74.9652 201.09 75.0696 200.651 75.0696C200.21 75.0696 199.817 74.9652 199.47 74.7564C199.126 74.5459 198.854 74.2451 198.655 73.854C198.456 73.4629 198.357 72.9964 198.357 72.4545C198.357 71.911 198.456 71.4445 198.655 71.055C198.854 70.6639 199.126 70.364 199.47 70.1552C199.817 69.9447 200.21 69.8395 200.651 69.8395C201.09 69.8395 201.482 69.9447 201.827 70.1552C202.173 70.364 202.446 70.6639 202.645 71.055C202.844 71.4445 202.943 71.911 202.943 72.4545ZM202.182 72.4545C202.182 72.0402 202.115 71.6914 201.981 71.408C201.848 71.123 201.666 70.9076 201.434 70.7617C201.204 70.6142 200.943 70.5405 200.651 70.5405C200.358 70.5405 200.096 70.6142 199.866 70.7617C199.635 70.9076 199.453 71.123 199.319 71.408C199.186 71.6914 199.12 72.0402 199.12 72.4545C199.12 72.8688 199.186 73.2185 199.319 73.5036C199.453 73.7869 199.635 74.0024 199.866 74.1499C200.096 74.2957 200.358 74.3686 200.651 74.3686C200.943 74.3686 201.204 74.2957 201.434 74.1499C201.666 74.0024 201.848 73.7869 201.981 73.5036C202.115 73.2185 202.182 72.8688 202.182 72.4545ZM203.841 75V71.1818H206.956V75H206.227V71.8232H204.564V75H203.841ZM208.678 73.9585L210.361 71.1818H211.161V75H210.433V72.2209L208.757 75H207.949V71.1818H208.678V73.9585ZM213.769 75.0771C213.399 75.0771 213.081 74.9934 212.814 74.826C212.549 74.657 212.345 74.4241 212.203 74.1275C212.06 73.8308 211.989 73.4911 211.989 73.1083C211.989 72.7205 212.062 72.3783 212.208 72.0817C212.353 71.7834 212.559 71.5505 212.824 71.3832C213.089 71.2158 213.402 71.1321 213.761 71.1321C214.051 71.1321 214.31 71.186 214.537 71.2937C214.764 71.3997 214.947 71.5489 215.086 71.7411C215.227 71.9334 215.311 72.1579 215.337 72.4148H214.614C214.574 72.2358 214.483 72.0817 214.34 71.9524C214.199 71.8232 214.011 71.7585 213.774 71.7585C213.566 71.7585 213.385 71.8132 213.229 71.9226C213.075 72.0303 212.955 72.1844 212.869 72.3849C212.783 72.5838 212.739 72.8191 212.739 73.0909C212.739 73.3693 212.782 73.6096 212.866 73.8118C212.951 74.014 213.07 74.1706 213.224 74.2816C213.38 74.3926 213.563 74.4482 213.774 74.4482C213.914 74.4482 214.042 74.4225 214.156 74.3711C214.272 74.3181 214.369 74.2427 214.447 74.1449C214.527 74.0471 214.582 73.9295 214.614 73.7919H215.337C215.311 74.0388 215.23 74.2592 215.096 74.4531C214.962 74.647 214.782 74.7995 214.557 74.9105C214.333 75.0215 214.07 75.0771 213.769 75.0771ZM217.243 75.0845C217.001 75.0845 216.782 75.0398 216.587 74.9503C216.391 74.8591 216.236 74.7274 216.122 74.555C216.009 74.3827 215.953 74.1714 215.953 73.9212C215.953 73.7057 215.994 73.5284 216.077 73.3892C216.16 73.25 216.272 73.1398 216.413 73.0586C216.554 72.9774 216.711 72.9161 216.885 72.8746C217.059 72.8332 217.236 72.8017 217.417 72.7802C217.646 72.7537 217.831 72.7321 217.974 72.7156C218.116 72.6973 218.22 72.6683 218.285 72.6286C218.349 72.5888 218.382 72.5241 218.382 72.4347V72.4173C218.382 72.2002 218.32 72.032 218.198 71.9126C218.077 71.7933 217.896 71.7337 217.656 71.7337C217.406 71.7337 217.208 71.7892 217.064 71.9002C216.922 72.0096 216.823 72.1314 216.768 72.2656L216.07 72.1065C216.153 71.8745 216.274 71.6873 216.433 71.5447C216.593 71.4006 216.778 71.2962 216.987 71.2315C217.196 71.1652 217.415 71.1321 217.646 71.1321C217.798 71.1321 217.96 71.1503 218.131 71.1868C218.303 71.2216 218.464 71.2862 218.613 71.3807C218.764 71.4751 218.887 71.6102 218.983 71.7859C219.079 71.9599 219.127 72.1861 219.127 72.4645V75H218.401V74.478H218.372C218.324 74.5741 218.252 74.6686 218.155 74.7614C218.059 74.8542 217.936 74.9312 217.785 74.9925C217.634 75.0539 217.454 75.0845 217.243 75.0845ZM217.405 74.4879C217.61 74.4879 217.786 74.4473 217.932 74.3661C218.079 74.2849 218.191 74.1789 218.267 74.0479C218.345 73.9154 218.384 73.7737 218.384 73.6229V73.1307C218.358 73.1572 218.306 73.1821 218.23 73.2053C218.155 73.2268 218.07 73.2459 217.974 73.2624C217.878 73.2773 217.784 73.2914 217.693 73.3047C217.602 73.3163 217.526 73.3262 217.464 73.3345C217.32 73.3527 217.188 73.3834 217.069 73.4265C216.951 73.4696 216.857 73.5317 216.786 73.6129C216.716 73.6925 216.681 73.7985 216.681 73.9311C216.681 74.1151 216.749 74.2543 216.885 74.3487C217.021 74.4415 217.194 74.4879 217.405 74.4879ZM222.705 72.7702V73.4141H220.637V72.7702H222.705ZM220.846 71.1818V75H220.117V71.1818H220.846ZM223.225 71.1818V75H222.499V71.1818H223.225ZM224.947 73.9585L226.63 71.1818H227.431V75H226.702V72.2209L225.027 75H224.219V71.1818H224.947V73.9585ZM230.075 75.0771C229.699 75.0771 229.375 74.9967 229.103 74.8359C228.833 74.6735 228.625 74.4457 228.477 74.1523C228.331 73.8574 228.258 73.5118 228.258 73.1158C228.258 72.7247 228.331 72.38 228.477 72.0817C228.625 71.7834 228.83 71.5505 229.094 71.3832C229.359 71.2158 229.669 71.1321 230.023 71.1321C230.239 71.1321 230.447 71.1677 230.65 71.239C230.852 71.3103 231.033 71.4221 231.194 71.5746C231.355 71.727 231.482 71.9251 231.574 72.1687C231.667 72.4106 231.714 72.7048 231.714 73.0511V73.3146H228.678V72.7578H230.985C230.985 72.5623 230.945 72.3891 230.866 72.2383C230.786 72.0858 230.674 71.9657 230.53 71.8778C230.388 71.79 230.22 71.7461 230.028 71.7461C229.819 71.7461 229.637 71.7975 229.481 71.9002C229.327 72.0013 229.208 72.1339 229.123 72.2979C229.04 72.4603 228.999 72.6368 228.999 72.8274V73.2624C228.999 73.5176 229.044 73.7347 229.133 73.9137C229.224 74.0927 229.351 74.2294 229.514 74.3239C229.676 74.4167 229.866 74.4631 230.083 74.4631C230.224 74.4631 230.352 74.4432 230.468 74.4034C230.584 74.362 230.684 74.3007 230.769 74.2195C230.853 74.1383 230.918 74.038 230.963 73.9187L231.666 74.0455C231.61 74.2526 231.509 74.4341 231.363 74.5898C231.219 74.744 231.037 74.8641 230.819 74.9503C230.602 75.0348 230.354 75.0771 230.075 75.0771ZM197.832 83V79.1818H198.575V80.7827H198.933L200.194 79.1818H201.113L199.634 81.0387L201.131 83H200.209L199.058 81.4737H198.575V83H197.832ZM202.819 83.0845C202.577 83.0845 202.359 83.0398 202.163 82.9503C201.967 82.8591 201.813 82.7274 201.698 82.555C201.586 82.3827 201.529 82.1714 201.529 81.9212C201.529 81.7057 201.571 81.5284 201.653 81.3892C201.736 81.25 201.848 81.1398 201.989 81.0586C202.13 80.9774 202.287 80.9161 202.461 80.8746C202.635 80.8332 202.813 80.8017 202.993 80.7802C203.222 80.7537 203.408 80.7321 203.55 80.7156C203.693 80.6973 203.796 80.6683 203.861 80.6286C203.925 80.5888 203.958 80.5241 203.958 80.4347V80.4173C203.958 80.2002 203.896 80.032 203.774 79.9126C203.653 79.7933 203.472 79.7337 203.232 79.7337C202.982 79.7337 202.784 79.7892 202.64 79.9002C202.498 80.0096 202.399 80.1314 202.345 80.2656L201.646 80.1065C201.729 79.8745 201.85 79.6873 202.009 79.5447C202.17 79.4006 202.354 79.2962 202.563 79.2315C202.772 79.1652 202.992 79.1321 203.222 79.1321C203.374 79.1321 203.536 79.1503 203.707 79.1868C203.879 79.2216 204.04 79.2862 204.189 79.3807C204.34 79.4751 204.463 79.6102 204.559 79.7859C204.655 79.9599 204.704 80.1861 204.704 80.4645V83H203.978V82.478H203.948C203.9 82.5741 203.828 82.6686 203.732 82.7614C203.635 82.8542 203.512 82.9312 203.361 82.9925C203.21 83.0539 203.03 83.0845 202.819 83.0845ZM202.981 82.4879C203.186 82.4879 203.362 82.4473 203.508 82.3661C203.655 82.2849 203.767 82.1789 203.843 82.0479C203.921 81.9154 203.96 81.7737 203.96 81.6229V81.1307C203.934 81.1572 203.882 81.1821 203.806 81.2053C203.732 81.2268 203.646 81.2459 203.55 81.2624C203.454 81.2773 203.36 81.2914 203.269 81.3047C203.178 81.3163 203.102 81.3262 203.041 81.3345C202.896 81.3527 202.765 81.3834 202.645 81.4265C202.528 81.4696 202.433 81.5317 202.362 81.6129C202.292 81.6925 202.258 81.7985 202.258 81.9311C202.258 82.1151 202.325 82.2543 202.461 82.3487C202.597 82.4415 202.77 82.4879 202.981 82.4879ZM205.22 79.8232V79.1818H208.442V79.8232H207.196V83H206.47V79.8232H205.22ZM210.696 83.0771C210.319 83.0771 209.995 82.9967 209.724 82.8359C209.453 82.6735 209.245 82.4457 209.097 82.1523C208.951 81.8574 208.878 81.5118 208.878 81.1158C208.878 80.7247 208.951 80.38 209.097 80.0817C209.245 79.7834 209.45 79.5505 209.714 79.3832C209.979 79.2158 210.289 79.1321 210.643 79.1321C210.859 79.1321 211.068 79.1677 211.27 79.239C211.472 79.3103 211.653 79.4221 211.814 79.5746C211.975 79.727 212.102 79.9251 212.194 80.1687C212.287 80.4106 212.334 80.7048 212.334 81.0511V81.3146H209.299V80.7578H211.605C211.605 80.5623 211.566 80.3891 211.486 80.2383C211.406 80.0858 211.295 79.9657 211.15 79.8778C211.008 79.79 210.841 79.7461 210.648 79.7461C210.439 79.7461 210.257 79.7975 210.101 79.9002C209.947 80.0013 209.828 80.1339 209.743 80.2979C209.661 80.4603 209.619 80.6368 209.619 80.8274V81.2624C209.619 81.5176 209.664 81.7347 209.753 81.9137C209.845 82.0927 209.971 82.2294 210.134 82.3239C210.296 82.4167 210.486 82.4631 210.703 82.4631C210.844 82.4631 210.972 82.4432 211.088 82.4034C211.204 82.362 211.305 82.3007 211.389 82.2195C211.474 82.1383 211.538 82.038 211.583 81.9187L212.286 82.0455C212.23 82.2526 212.129 82.4341 211.983 82.5898C211.839 82.744 211.658 82.8641 211.439 82.9503C211.222 83.0348 210.974 83.0771 210.696 83.0771ZM215.599 79.1818V79.8232H213.892V83H213.158V79.1818H215.599ZM217.815 83.0771C217.458 83.0771 217.145 82.995 216.878 82.831C216.612 82.6669 216.404 82.4374 216.257 82.1424C216.109 81.8474 216.036 81.5027 216.036 81.1083C216.036 80.7122 216.109 80.3659 216.257 80.0692C216.404 79.7726 216.612 79.5423 216.878 79.3782C217.145 79.2141 217.458 79.1321 217.815 79.1321C218.173 79.1321 218.486 79.2141 218.753 79.3782C219.019 79.5423 219.227 79.7726 219.374 80.0692C219.522 80.3659 219.595 80.7122 219.595 81.1083C219.595 81.5027 219.522 81.8474 219.374 82.1424C219.227 82.4374 219.019 82.6669 218.753 82.831C218.486 82.995 218.173 83.0771 217.815 83.0771ZM217.818 82.4531C218.05 82.4531 218.242 82.3918 218.395 82.2692C218.547 82.1465 218.66 81.9833 218.733 81.7795C218.807 81.5756 218.845 81.3511 218.845 81.1058C218.845 80.8622 218.807 80.6385 218.733 80.4347C218.66 80.2292 218.547 80.0643 218.395 79.94C218.242 79.8157 218.05 79.7536 217.818 79.7536C217.584 79.7536 217.39 79.8157 217.236 79.94C217.084 80.0643 216.97 80.2292 216.896 80.4347C216.823 80.6385 216.786 80.8622 216.786 81.1058C216.786 81.3511 216.823 81.5756 216.896 81.7795C216.97 81.9833 217.084 82.1465 217.236 82.2692C217.39 82.3918 217.584 82.4531 217.818 82.4531ZM220.425 84.4318V79.1818H221.151V79.8008H221.213C221.256 79.7212 221.318 79.6293 221.399 79.5249C221.481 79.4205 221.593 79.3293 221.737 79.2514C221.882 79.1719 222.072 79.1321 222.309 79.1321C222.617 79.1321 222.893 79.21 223.134 79.3658C223.376 79.5215 223.566 79.7461 223.704 80.0394C223.843 80.3327 223.913 80.6857 223.913 81.0984C223.913 81.511 223.844 81.8648 223.706 82.1598C223.569 82.4531 223.38 82.6793 223.139 82.8384C222.899 82.9959 222.625 83.0746 222.317 83.0746C222.085 83.0746 221.895 83.0356 221.747 82.9577C221.602 82.8799 221.487 82.7887 221.404 82.6843C221.321 82.5799 221.258 82.4871 221.213 82.4059H221.168V84.4318H220.425ZM221.153 81.0909C221.153 81.3594 221.192 81.5947 221.27 81.7969C221.348 81.9991 221.461 82.1573 221.608 82.2717C221.756 82.3844 221.936 82.4407 222.15 82.4407C222.372 82.4407 222.558 82.3819 222.707 82.2642C222.856 82.1449 222.969 81.9833 223.045 81.7795C223.123 81.5756 223.162 81.3461 223.162 81.0909C223.162 80.839 223.124 80.6128 223.047 80.4123C222.973 80.2118 222.86 80.0535 222.709 79.9375C222.56 79.8215 222.374 79.7635 222.15 79.7635C221.935 79.7635 221.752 79.819 221.603 79.93C221.456 80.0411 221.344 80.196 221.268 80.3949C221.191 80.5938 221.153 80.8258 221.153 81.0909ZM225.474 81.9585L227.156 79.1818H227.957V83H227.229V80.2209L225.553 83H224.745V79.1818H225.474V81.9585ZM229.685 81.9585L231.367 79.1818H232.168V83H231.439V80.2209L229.764 83H228.956V79.1818H229.685V81.9585Z"
    fill="#191919" />
  <path
    d="M139.963 58C139.963 58.5727 140.427 59.037 141 59.037C141.573 59.037 142.037 58.5727 142.037 58C142.037 57.4273 141.573 56.963 141 56.963C140.427 56.963 139.963 57.4273 139.963 58ZM141 58.1944L193 58.1944L193 57.8056L141 57.8056L141 58.1944Z"
    fill="#191919" />
  <path
    d="M79.4078 30.7222C79.4078 31.2949 79.8721 31.7592 80.4448 31.7592C81.0176 31.7592 81.4819 31.2949 81.4819 30.7222C81.4819 30.1494 81.0176 29.6851 80.4448 29.6851C79.8721 29.6851 79.4078 30.1494 79.4078 30.7222ZM60.4448 30.9166H80.4448V30.5277H60.4448V30.9166Z"
    fill="#191919" />
  <path
    d="M172.963 75C172.963 75.5727 173.427 76.037 174 76.037C174.573 76.037 175.037 75.5727 175.037 75C175.037 74.4273 174.573 73.963 174 73.963C173.427 73.963 172.963 74.4273 172.963 75ZM174 75.1944L193 75.1944L193 74.8056L174 74.8056L174 75.1944Z"
    fill="#191919" />
  <defs>
    <clipPath id="clip0_126_17">
      <path
        d="M72.0001 19.5089C72.0001 14.3185 76.2078 10.1108 81.3982 10.1108H180.078C185.268 10.1108 189.476 14.3185 189.476 19.5089V154.734H72.0001V19.5089Z"
        fill="white" />
    </clipPath>
    <clipPath id="clip1_126_17">
      <path
        d="M72.0001 25.1477C72.0001 19.6113 76.4883 15.1231 82.0247 15.1231H179.451C184.988 15.1231 189.476 19.6113 189.476 25.1477V154.734H72.0001V25.1477Z"
        fill="white" />
    </clipPath>
  </defs>
</svg>
  